<svg xmlns="http://www.w3.org/2000/svg" xmlns:xlink="http://www.w3.org/1999/xlink" contentStyleType="text/css" data-diagram-type="ACTIVITY" height="1136px" preserveAspectRatio="none" style="width:541px;height:1136px;background:#FFFFFF;" version="1.1" viewBox="0 0 541 1136" width="541px" zoomAndPan="magnify"><defs/><g><ellipse cx="279.4458" cy="20" fill="#222222" rx="10" ry="10" style="stroke:#222222;stroke-width:1;"/><rect fill="#F1F1F1" height="33.9688" rx="12.5" ry="12.5" style="stroke:#181818;stroke-width:0.5;" width="129.541" x="214.6753" y="50"/><text fill="#000000" font-family="sans-serif" font-size="12" lengthAdjust="spacing" textLength="109.541" x="224.6753" y="71.1387">View Class Details</text><rect fill="#F1F1F1" height="33.9688" rx="12.5" ry="12.5" style="stroke:#181818;stroke-width:0.5;" width="121.5078" x="218.6919" y="103.9688"/><text fill="#000000" font-family="sans-serif" font-size="12" lengthAdjust="spacing" textLength="101.5078" x="228.6919" y="125.1074">View Classmates</text><ellipse cx="279.4458" cy="168.9375" fill="#FFFFFF" fill-opacity="0.00000" rx="11" ry="11" style="stroke:#222222;stroke-width:1;"/><ellipse cx="279.4458" cy="168.9375" fill="#222222" rx="6" ry="6" style="stroke:#222222;stroke-width:1;"/><ellipse cx="279.4458" cy="199.9375" fill="#222222" rx="10" ry="10" style="stroke:#222222;stroke-width:1;"/><rect fill="#F1F1F1" height="33.9688" rx="12.5" ry="12.5" style="stroke:#181818;stroke-width:0.5;" width="366.623" x="96.1343" y="229.9375"/><text fill="#000000" font-family="sans-serif" font-size="12" lengthAdjust="spacing" textLength="346.623" x="106.1343" y="251.0762">View Academic Records (Attendance, Marks, Evaluations)</text><polygon fill="#F1F1F1" points="208.875,283.9063,350.0166,283.9063,362.0166,295.9063,350.0166,307.9063,208.875,307.9063,196.875,295.9063,208.875,283.9063" style="stroke:#181818;stroke-width:0.5;"/><text fill="#000000" font-family="sans-serif" font-size="11" lengthAdjust="spacing" textLength="141.1416" x="208.875" y="299.7144">Academic data available?</text><text fill="#000000" font-family="sans-serif" font-size="11" lengthAdjust="spacing" textLength="19.0083" x="177.8667" y="293.312">yes</text><text fill="#000000" font-family="sans-serif" font-size="11" lengthAdjust="spacing" textLength="13.7017" x="362.0166" y="293.312">no</text><rect fill="#F1F1F1" height="33.9688" rx="12.5" ry="12.5" style="stroke:#181818;stroke-width:0.5;" width="267.2363" x="11" y="317.9063"/><text fill="#000000" font-family="sans-serif" font-size="12" lengthAdjust="spacing" textLength="247.2363" x="21" y="339.0449">Display Attendance, Marks &amp; Evaluations</text><rect fill="#F1F1F1" height="33.9688" rx="12.5" ry="12.5" style="stroke:#181818;stroke-width:0.5;" width="232.0742" x="298.2363" y="317.9063"/><text fill="#000000" font-family="sans-serif" font-size="12" lengthAdjust="spacing" textLength="212.0742" x="308.2363" y="339.0449">Display No Data Available Message</text><polygon fill="#F1F1F1" points="279.4458,357.875,291.4458,369.875,279.4458,381.875,267.4458,369.875,279.4458,357.875" style="stroke:#181818;stroke-width:0.5;"/><ellipse cx="279.4458" cy="412.875" fill="#FFFFFF" fill-opacity="0.00000" rx="11" ry="11" style="stroke:#222222;stroke-width:1;"/><ellipse cx="279.4458" cy="412.875" fill="#222222" rx="6" ry="6" style="stroke:#222222;stroke-width:1;"/><ellipse cx="279.4458" cy="443.875" fill="#222222" rx="10" ry="10" style="stroke:#222222;stroke-width:1;"/><rect fill="#F1F1F1" height="33.9688" rx="12.5" ry="12.5" style="stroke:#181818;stroke-width:0.5;" width="159.9277" x="199.4819" y="473.875"/><text fill="#000000" font-family="sans-serif" font-size="12" lengthAdjust="spacing" textLength="139.9277" x="209.4819" y="495.0137">Update Student Details</text><rect fill="#F1F1F1" height="33.9688" rx="12.5" ry="12.5" style="stroke:#181818;stroke-width:0.5;" width="127.6133" x="215.6392" y="527.8438"/><text fill="#000000" font-family="sans-serif" font-size="12" lengthAdjust="spacing" textLength="107.6133" x="225.6392" y="548.9824">Enter New Details</text><rect fill="#F1F1F1" height="33.9688" rx="12.5" ry="12.5" style="stroke:#181818;stroke-width:0.5;" width="177.834" x="190.5288" y="581.8125"/><text fill="#000000" font-family="sans-serif" font-size="12" lengthAdjust="spacing" textLength="157.834" x="200.5288" y="602.9512">Save Updated Information</text><ellipse cx="279.4458" cy="646.7813" fill="#FFFFFF" fill-opacity="0.00000" rx="11" ry="11" style="stroke:#222222;stroke-width:1;"/><ellipse cx="279.4458" cy="646.7813" fill="#222222" rx="6" ry="6" style="stroke:#222222;stroke-width:1;"/><ellipse cx="279.4458" cy="677.7813" fill="#222222" rx="10" ry="10" style="stroke:#222222;stroke-width:1;"/><rect fill="#F1F1F1" height="33.9688" rx="12.5" ry="12.5" style="stroke:#181818;stroke-width:0.5;" width="124.9941" x="216.9487" y="707.7813"/><text fill="#000000" font-family="sans-serif" font-size="12" lengthAdjust="spacing" textLength="104.9941" x="226.9487" y="728.9199">Message Teacher</text><rect fill="#F1F1F1" height="33.9688" rx="12.5" ry="12.5" style="stroke:#181818;stroke-width:0.5;" width="108.6172" x="225.1372" y="761.75"/><text fill="#000000" font-family="sans-serif" font-size="12" lengthAdjust="spacing" textLength="88.6172" x="235.1372" y="782.8887">Enter Message</text><rect fill="#F1F1F1" height="33.9688" rx="12.5" ry="12.5" style="stroke:#181818;stroke-width:0.5;" width="174.8926" x="191.9995" y="815.7188"/><text fill="#000000" font-family="sans-serif" font-size="12" lengthAdjust="spacing" textLength="154.8926" x="201.9995" y="836.8574">Send Message to Teacher</text><ellipse cx="279.4458" cy="880.6875" fill="#FFFFFF" fill-opacity="0.00000" rx="11" ry="11" style="stroke:#222222;stroke-width:1;"/><ellipse cx="279.4458" cy="880.6875" fill="#222222" rx="6" ry="6" style="stroke:#222222;stroke-width:1;"/><ellipse cx="279.4458" cy="911.6875" fill="#222222" rx="10" ry="10" style="stroke:#222222;stroke-width:1;"/><rect fill="#F1F1F1" height="33.9688" rx="12.5" ry="12.5" style="stroke:#181818;stroke-width:0.5;" width="93.9395" x="232.4761" y="941.6875"/><text fill="#000000" font-family="sans-serif" font-size="12" lengthAdjust="spacing" textLength="73.9395" x="242.4761" y="962.8262">Use Chatbot</text><rect fill="#F1F1F1" height="33.9688" rx="12.5" ry="12.5" style="stroke:#181818;stroke-width:0.5;" width="92.4922" x="233.1997" y="995.6563"/><text fill="#000000" font-family="sans-serif" font-size="12" lengthAdjust="spacing" textLength="72.4922" x="243.1997" y="1016.7949">Enter Query</text><rect fill="#F1F1F1" height="33.9688" rx="12.5" ry="12.5" style="stroke:#181818;stroke-width:0.5;" width="218.8027" x="170.0444" y="1049.625"/><text fill="#000000" font-family="sans-serif" font-size="12" lengthAdjust="spacing" textLength="198.8027" x="180.0444" y="1070.7637">Receive Assistance from Chatbot</text><ellipse cx="279.4458" cy="1114.5938" fill="#FFFFFF" fill-opacity="0.00000" rx="11" ry="11" style="stroke:#222222;stroke-width:1;"/><ellipse cx="279.4458" cy="1114.5938" fill="#222222" rx="6" ry="6" style="stroke:#222222;stroke-width:1;"/><line style="stroke:#181818;stroke-width:1;" x1="279.4458" x2="279.4458" y1="30" y2="50"/><polygon fill="#181818" points="275.4458,40,279.4458,50,283.4458,40,279.4458,44" style="stroke:#181818;stroke-width:1;"/><line style="stroke:#181818;stroke-width:1;" x1="279.4458" x2="279.4458" y1="83.9688" y2="103.9688"/><polygon fill="#181818" points="275.4458,93.9688,279.4458,103.9688,283.4458,93.9688,279.4458,97.9688" style="stroke:#181818;stroke-width:1;"/><line style="stroke:#181818;stroke-width:1;" x1="279.4458" x2="279.4458" y1="137.9375" y2="157.9375"/><polygon fill="#181818" points="275.4458,147.9375,279.4458,157.9375,283.4458,147.9375,279.4458,151.9375" style="stroke:#181818;stroke-width:1;"/><line style="stroke:#181818;stroke-width:1;" x1="279.4458" x2="279.4458" y1="209.9375" y2="229.9375"/><polygon fill="#181818" points="275.4458,219.9375,279.4458,229.9375,283.4458,219.9375,279.4458,223.9375" style="stroke:#181818;stroke-width:1;"/><line style="stroke:#181818;stroke-width:1;" x1="196.875" x2="144.6182" y1="295.9063" y2="295.9063"/><line style="stroke:#181818;stroke-width:1;" x1="144.6182" x2="144.6182" y1="295.9063" y2="317.9063"/><polygon fill="#181818" points="140.6182,307.9063,144.6182,317.9063,148.6182,307.9063,144.6182,311.9063" style="stroke:#181818;stroke-width:1;"/><line style="stroke:#181818;stroke-width:1;" x1="362.0166" x2="414.2734" y1="295.9063" y2="295.9063"/><line style="stroke:#181818;stroke-width:1;" x1="414.2734" x2="414.2734" y1="295.9063" y2="317.9063"/><polygon fill="#181818" points="410.2734,307.9063,414.2734,317.9063,418.2734,307.9063,414.2734,311.9063" style="stroke:#181818;stroke-width:1;"/><line style="stroke:#181818;stroke-width:1;" x1="144.6182" x2="144.6182" y1="351.875" y2="369.875"/><line style="stroke:#181818;stroke-width:1;" x1="144.6182" x2="267.4458" y1="369.875" y2="369.875"/><polygon fill="#181818" points="257.4458,365.875,267.4458,369.875,257.4458,373.875,261.4458,369.875" style="stroke:#181818;stroke-width:1;"/><line style="stroke:#181818;stroke-width:1;" x1="414.2734" x2="414.2734" y1="351.875" y2="369.875"/><line style="stroke:#181818;stroke-width:1;" x1="414.2734" x2="291.4458" y1="369.875" y2="369.875"/><polygon fill="#181818" points="301.4458,365.875,291.4458,369.875,301.4458,373.875,297.4458,369.875" style="stroke:#181818;stroke-width:1;"/><line style="stroke:#181818;stroke-width:1;" x1="279.4458" x2="279.4458" y1="263.9063" y2="283.9063"/><polygon fill="#181818" points="275.4458,273.9063,279.4458,283.9063,283.4458,273.9063,279.4458,277.9063" style="stroke:#181818;stroke-width:1;"/><line style="stroke:#181818;stroke-width:1;" x1="279.4458" x2="279.4458" y1="381.875" y2="401.875"/><polygon fill="#181818" points="275.4458,391.875,279.4458,401.875,283.4458,391.875,279.4458,395.875" style="stroke:#181818;stroke-width:1;"/><line style="stroke:#181818;stroke-width:1;" x1="279.4458" x2="279.4458" y1="453.875" y2="473.875"/><polygon fill="#181818" points="275.4458,463.875,279.4458,473.875,283.4458,463.875,279.4458,467.875" style="stroke:#181818;stroke-width:1;"/><line style="stroke:#181818;stroke-width:1;" x1="279.4458" x2="279.4458" y1="507.8438" y2="527.8438"/><polygon fill="#181818" points="275.4458,517.8438,279.4458,527.8438,283.4458,517.8438,279.4458,521.8438" style="stroke:#181818;stroke-width:1;"/><line style="stroke:#181818;stroke-width:1;" x1="279.4458" x2="279.4458" y1="561.8125" y2="581.8125"/><polygon fill="#181818" points="275.4458,571.8125,279.4458,581.8125,283.4458,571.8125,279.4458,575.8125" style="stroke:#181818;stroke-width:1;"/><line style="stroke:#181818;stroke-width:1;" x1="279.4458" x2="279.4458" y1="615.7813" y2="635.7813"/><polygon fill="#181818" points="275.4458,625.7813,279.4458,635.7813,283.4458,625.7813,279.4458,629.7813" style="stroke:#181818;stroke-width:1;"/><line style="stroke:#181818;stroke-width:1;" x1="279.4458" x2="279.4458" y1="687.7813" y2="707.7813"/><polygon fill="#181818" points="275.4458,697.7813,279.4458,707.7813,283.4458,697.7813,279.4458,701.7813" style="stroke:#181818;stroke-width:1;"/><line style="stroke:#181818;stroke-width:1;" x1="279.4458" x2="279.4458" y1="741.75" y2="761.75"/><polygon fill="#181818" points="275.4458,751.75,279.4458,761.75,283.4458,751.75,279.4458,755.75" style="stroke:#181818;stroke-width:1;"/><line style="stroke:#181818;stroke-width:1;" x1="279.4458" x2="279.4458" y1="795.7188" y2="815.7188"/><polygon fill="#181818" points="275.4458,805.7188,279.4458,815.7188,283.4458,805.7188,279.4458,809.7188" style="stroke:#181818;stroke-width:1;"/><line style="stroke:#181818;stroke-width:1;" x1="279.4458" x2="279.4458" y1="849.6875" y2="869.6875"/><polygon fill="#181818" points="275.4458,859.6875,279.4458,869.6875,283.4458,859.6875,279.4458,863.6875" style="stroke:#181818;stroke-width:1;"/><line style="stroke:#181818;stroke-width:1;" x1="279.4458" x2="279.4458" y1="921.6875" y2="941.6875"/><polygon fill="#181818" points="275.4458,931.6875,279.4458,941.6875,283.4458,931.6875,279.4458,935.6875" style="stroke:#181818;stroke-width:1;"/><line style="stroke:#181818;stroke-width:1;" x1="279.4458" x2="279.4458" y1="975.6563" y2="995.6563"/><polygon fill="#181818" points="275.4458,985.6563,279.4458,995.6563,283.4458,985.6563,279.4458,989.6563" style="stroke:#181818;stroke-width:1;"/><line style="stroke:#181818;stroke-width:1;" x1="279.4458" x2="279.4458" y1="1029.625" y2="1049.625"/><polygon fill="#181818" points="275.4458,1039.625,279.4458,1049.625,283.4458,1039.625,279.4458,1043.625" style="stroke:#181818;stroke-width:1;"/><line style="stroke:#181818;stroke-width:1;" x1="279.4458" x2="279.4458" y1="1083.5938" y2="1103.5938"/><polygon fill="#181818" points="275.4458,1093.5938,279.4458,1103.5938,283.4458,1093.5938,279.4458,1097.5938" style="stroke:#181818;stroke-width:1;"/><!--SRC=[XL4xRy8m4DxpAsvgGMBfQt66AWA63g2sjDsF-D9OJMpaku3uzpqeIQ1GTRBE_kvxcGMZ9CarFEi9DmO-76rWN24pJ4ZGLGnNFtEDGfoOSq1wVBb7fGbBM7MqjmVQB4TBjSlXbV8GBSDW7EgbysGDP2BaBVgSHZ33-CKZcAwnQb1Sy3nKmfrHymVFFzjfuWe5jMiM1G7NwXsN5JqEGKhoCDYIwW2OYUDLXTjpIzh44MkQKCK40nzEjkO19Zl-hEM76J7Z9odUMrUSLdDdu7sbVWWMqbZoqfRQ1hxygfLFlL24kTRHtormJGS-2q- -2B7UU_tr7_S6jFYwyIxVFyF6IGblX7b9iHK-k6wlEyKkZLbeddO42JtoHEn14sfDun9b6GJK4sJCJbMqs2vbZ-Y4NXgAMvtqaybfhduBYXZg7h-J-mO0]--></g></svg>