<svg xmlns="http://www.w3.org/2000/svg" xmlns:xlink="http://www.w3.org/1999/xlink" contentStyleType="text/css" data-diagram-type="ACTIVITY" height="1571px" preserveAspectRatio="none" style="width:572px;height:1571px;background:#FFFFFF;" version="1.1" viewBox="0 0 572 1571" width="572px" zoomAndPan="magnify"><defs/><g><ellipse cx="286.0879" cy="20" fill="#222222" rx="10" ry="10" style="stroke:#222222;stroke-width:1;"/><rect fill="#F1F1F1" height="33.9688" rx="12.5" ry="12.5" style="stroke:#181818;stroke-width:0.5;" width="129.541" x="221.3174" y="50"/><text fill="#000000" font-family="sans-serif" font-size="12" lengthAdjust="spacing" textLength="109.541" x="231.3174" y="71.1387">View Class Details</text><rect fill="#F1F1F1" height="33.9688" rx="12.5" ry="12.5" style="stroke:#181818;stroke-width:0.5;" width="141.4297" x="215.373" y="103.9688"/><text fill="#000000" font-family="sans-serif" font-size="12" lengthAdjust="spacing" textLength="121.4297" x="225.373" y="125.1074">View Class Students</text><ellipse cx="286.0879" cy="168.9375" fill="#FFFFFF" fill-opacity="0.00000" rx="11" ry="11" style="stroke:#222222;stroke-width:1;"/><ellipse cx="286.0879" cy="168.9375" fill="#222222" rx="6" ry="6" style="stroke:#222222;stroke-width:1;"/><ellipse cx="286.0879" cy="199.9375" fill="#222222" rx="10" ry="10" style="stroke:#222222;stroke-width:1;"/><rect fill="#F1F1F1" height="33.9688" rx="12.5" ry="12.5" style="stroke:#181818;stroke-width:0.5;" width="124.9707" x="223.6025" y="229.9375"/><text fill="#000000" font-family="sans-serif" font-size="12" lengthAdjust="spacing" textLength="104.9707" x="233.6025" y="251.0762">Manage Students</text><polygon fill="#F1F1F1" points="43.0442,283.9063,127.6335,283.9063,139.6335,295.9063,127.6335,307.9063,43.0442,307.9063,31.0442,295.9063,43.0442,283.9063" style="stroke:#181818;stroke-width:0.5;"/><text fill="#000000" font-family="sans-serif" font-size="11" lengthAdjust="spacing" textLength="21.4897" x="89.3389" y="318.1167">Add</text><text fill="#000000" font-family="sans-serif" font-size="11" lengthAdjust="spacing" textLength="84.5894" x="43.0442" y="299.7144">Choose Action?</text><rect fill="#F1F1F1" height="33.9688" rx="12.5" ry="12.5" style="stroke:#181818;stroke-width:0.5;" width="148.6777" x="11" y="340.7109"/><text fill="#000000" font-family="sans-serif" font-size="12" lengthAdjust="spacing" textLength="128.6777" x="21" y="361.8496">Enter Student Details</text><rect fill="#F1F1F1" height="33.9688" rx="12.5" ry="12.5" style="stroke:#181818;stroke-width:0.5;" width="132.9746" x="18.8516" y="407.4844"/><text fill="#000000" font-family="sans-serif" font-size="12" lengthAdjust="spacing" textLength="112.9746" x="28.8516" y="428.623">Save Student Data</text><polygon fill="#F1F1F1" points="252.0159,283.9063,291.8533,283.9063,303.8533,295.9063,291.8533,307.9063,252.0159,307.9063,240.0159,295.9063,252.0159,283.9063" style="stroke:#181818;stroke-width:0.5;"/><text fill="#000000" font-family="sans-serif" font-size="11" lengthAdjust="spacing" textLength="39.8374" x="252.0159" y="299.7144">Update</text><text fill="#000000" font-family="sans-serif" font-size="11" lengthAdjust="spacing" textLength="36.1421" x="303.8533" y="293.312">Delete</text><rect fill="#F1F1F1" height="33.9688" rx="12.5" ry="12.5" style="stroke:#181818;stroke-width:0.5;" width="108.0723" x="217.8984" y="327.9063"/><text fill="#000000" font-family="sans-serif" font-size="12" lengthAdjust="spacing" textLength="88.0723" x="227.8984" y="349.0449">Select Student</text><rect fill="#F1F1F1" height="33.9688" rx="12.5" ry="12.5" style="stroke:#181818;stroke-width:0.5;" width="184.5137" x="179.6777" y="394.6797"/><text fill="#000000" font-family="sans-serif" font-size="12" lengthAdjust="spacing" textLength="164.5137" x="189.6777" y="415.8184">Modify Student Information</text><rect fill="#F1F1F1" height="33.9688" rx="12.5" ry="12.5" style="stroke:#181818;stroke-width:0.5;" width="177.834" x="183.0176" y="461.4531"/><text fill="#000000" font-family="sans-serif" font-size="12" lengthAdjust="spacing" textLength="157.834" x="193.0176" y="482.5918">Save Updated Information</text><rect fill="#F1F1F1" height="33.9688" rx="12.5" ry="12.5" style="stroke:#181818;stroke-width:0.5;" width="176.9844" x="384.1914" y="330.9063"/><text fill="#000000" font-family="sans-serif" font-size="12" lengthAdjust="spacing" textLength="156.9844" x="394.1914" y="352.0449">Select Student to Remove</text><rect fill="#F1F1F1" height="33.9688" rx="12.5" ry="12.5" style="stroke:#181818;stroke-width:0.5;" width="121.6484" x="411.8594" y="397.6797"/><text fill="#000000" font-family="sans-serif" font-size="12" lengthAdjust="spacing" textLength="101.6484" x="421.8594" y="418.8184">Confirm Deletion</text><rect fill="#F1F1F1" height="33.9688" rx="12.5" ry="12.5" style="stroke:#181818;stroke-width:0.5;" width="156.5059" x="394.4307" y="464.4531"/><text fill="#000000" font-family="sans-serif" font-size="12" lengthAdjust="spacing" textLength="136.5059" x="404.4307" y="485.5918">Delete Student Record</text><ellipse cx="286.0879" cy="549.4219" fill="#FFFFFF" fill-opacity="0.00000" rx="11" ry="11" style="stroke:#222222;stroke-width:1;"/><ellipse cx="286.0879" cy="549.4219" fill="#222222" rx="6" ry="6" style="stroke:#222222;stroke-width:1;"/><ellipse cx="286.0879" cy="580.4219" fill="#222222" rx="10" ry="10" style="stroke:#222222;stroke-width:1;"/><rect fill="#F1F1F1" height="33.9688" rx="12.5" ry="12.5" style="stroke:#181818;stroke-width:0.5;" width="270.6699" x="150.7529" y="610.4219"/><text fill="#000000" font-family="sans-serif" font-size="12" lengthAdjust="spacing" textLength="250.6699" x="160.7529" y="631.5605">Manage Attendance, Marks &amp; Evaluations</text><rect fill="#F1F1F1" height="33.9688" rx="12.5" ry="12.5" style="stroke:#181818;stroke-width:0.5;" width="108.0723" x="232.0518" y="664.3906"/><text fill="#000000" font-family="sans-serif" font-size="12" lengthAdjust="spacing" textLength="88.0723" x="242.0518" y="685.5293">Select Student</text><rect fill="#F1F1F1" height="33.9688" rx="12.5" ry="12.5" style="stroke:#181818;stroke-width:0.5;" width="293.3574" x="139.4092" y="718.3594"/><text fill="#000000" font-family="sans-serif" font-size="12" lengthAdjust="spacing" textLength="273.3574" x="149.4092" y="739.498">Enter/Update Attendance, Marks, Evaluations</text><rect fill="#F1F1F1" height="33.9688" rx="12.5" ry="12.5" style="stroke:#181818;stroke-width:0.5;" width="81.9219" x="245.127" y="772.3281"/><text fill="#000000" font-family="sans-serif" font-size="12" lengthAdjust="spacing" textLength="61.9219" x="255.127" y="793.4668">Save Data</text><ellipse cx="286.0879" cy="837.2969" fill="#FFFFFF" fill-opacity="0.00000" rx="11" ry="11" style="stroke:#222222;stroke-width:1;"/><ellipse cx="286.0879" cy="837.2969" fill="#222222" rx="6" ry="6" style="stroke:#222222;stroke-width:1;"/><ellipse cx="286.0879" cy="868.2969" fill="#222222" rx="10" ry="10" style="stroke:#222222;stroke-width:1;"/><rect fill="#F1F1F1" height="33.9688" rx="12.5" ry="12.5" style="stroke:#181818;stroke-width:0.5;" width="293.4395" x="139.3682" y="898.2969"/><text fill="#000000" font-family="sans-serif" font-size="12" lengthAdjust="spacing" textLength="273.4395" x="149.3682" y="919.4355">View Student Attendance, Marks, Evaluations</text><polygon fill="#F1F1F1" points="243.4629,952.2656,328.7129,952.2656,340.7129,964.2656,328.7129,976.2656,243.4629,976.2656,231.4629,964.2656,243.4629,952.2656" style="stroke:#181818;stroke-width:0.5;"/><text fill="#000000" font-family="sans-serif" font-size="11" lengthAdjust="spacing" textLength="85.25" x="243.4629" y="968.0737">Data available?</text><text fill="#000000" font-family="sans-serif" font-size="11" lengthAdjust="spacing" textLength="19.0083" x="212.4546" y="961.6714">yes</text><text fill="#000000" font-family="sans-serif" font-size="11" lengthAdjust="spacing" textLength="13.7017" x="340.7129" y="961.6714">no</text><rect fill="#F1F1F1" height="33.9688" rx="12.5" ry="12.5" style="stroke:#181818;stroke-width:0.5;" width="267.2363" x="17.6421" y="986.2656"/><text fill="#000000" font-family="sans-serif" font-size="12" lengthAdjust="spacing" textLength="247.2363" x="27.6421" y="1007.4043">Display Attendance, Marks &amp; Evaluations</text><rect fill="#F1F1F1" height="33.9688" rx="12.5" ry="12.5" style="stroke:#181818;stroke-width:0.5;" width="232.0742" x="304.8784" y="986.2656"/><text fill="#000000" font-family="sans-serif" font-size="12" lengthAdjust="spacing" textLength="212.0742" x="314.8784" y="1007.4043">Display No Data Available Message</text><polygon fill="#F1F1F1" points="286.0879,1026.2344,298.0879,1038.2344,286.0879,1050.2344,274.0879,1038.2344,286.0879,1026.2344" style="stroke:#181818;stroke-width:0.5;"/><ellipse cx="286.0879" cy="1081.2344" fill="#FFFFFF" fill-opacity="0.00000" rx="11" ry="11" style="stroke:#222222;stroke-width:1;"/><ellipse cx="286.0879" cy="1081.2344" fill="#222222" rx="6" ry="6" style="stroke:#222222;stroke-width:1;"/><ellipse cx="286.0879" cy="1112.2344" fill="#222222" rx="10" ry="10" style="stroke:#222222;stroke-width:1;"/><rect fill="#F1F1F1" height="33.9688" rx="12.5" ry="12.5" style="stroke:#181818;stroke-width:0.5;" width="167.1934" x="202.4912" y="1142.2344"/><text fill="#000000" font-family="sans-serif" font-size="12" lengthAdjust="spacing" textLength="147.1934" x="212.4912" y="1163.373">Select Student or Parent</text><rect fill="#F1F1F1" height="33.9688" rx="12.5" ry="12.5" style="stroke:#181818;stroke-width:0.5;" width="108.6172" x="231.7793" y="1196.2031"/><text fill="#000000" font-family="sans-serif" font-size="12" lengthAdjust="spacing" textLength="88.6172" x="241.7793" y="1217.3418">Enter Message</text><rect fill="#F1F1F1" height="33.9688" rx="12.5" ry="12.5" style="stroke:#181818;stroke-width:0.5;" width="106.6309" x="232.7725" y="1250.1719"/><text fill="#000000" font-family="sans-serif" font-size="12" lengthAdjust="spacing" textLength="86.6309" x="242.7725" y="1271.3105">Send Message</text><ellipse cx="286.0879" cy="1315.1406" fill="#FFFFFF" fill-opacity="0.00000" rx="11" ry="11" style="stroke:#222222;stroke-width:1;"/><ellipse cx="286.0879" cy="1315.1406" fill="#222222" rx="6" ry="6" style="stroke:#222222;stroke-width:1;"/><ellipse cx="286.0879" cy="1346.1406" fill="#222222" rx="10" ry="10" style="stroke:#222222;stroke-width:1;"/><rect fill="#F1F1F1" height="33.9688" rx="12.5" ry="12.5" style="stroke:#181818;stroke-width:0.5;" width="161.2754" x="205.4502" y="1376.1406"/><text fill="#000000" font-family="sans-serif" font-size="12" lengthAdjust="spacing" textLength="141.2754" x="215.4502" y="1397.2793">Update Teacher Details</text><rect fill="#F1F1F1" height="33.9688" rx="12.5" ry="12.5" style="stroke:#181818;stroke-width:0.5;" width="188.7148" x="191.7305" y="1430.1094"/><text fill="#000000" font-family="sans-serif" font-size="12" lengthAdjust="spacing" textLength="168.7148" x="201.7305" y="1451.248">Modify Personal Information</text><rect fill="#F1F1F1" height="33.9688" rx="12.5" ry="12.5" style="stroke:#181818;stroke-width:0.5;" width="177.834" x="197.1709" y="1484.0781"/><text fill="#000000" font-family="sans-serif" font-size="12" lengthAdjust="spacing" textLength="157.834" x="207.1709" y="1505.2168">Save Updated Information</text><ellipse cx="286.0879" cy="1549.0469" fill="#FFFFFF" fill-opacity="0.00000" rx="11" ry="11" style="stroke:#222222;stroke-width:1;"/><ellipse cx="286.0879" cy="1549.0469" fill="#222222" rx="6" ry="6" style="stroke:#222222;stroke-width:1;"/><line style="stroke:#181818;stroke-width:1;" x1="286.0879" x2="286.0879" y1="30" y2="50"/><polygon fill="#181818" points="282.0879,40,286.0879,50,290.0879,40,286.0879,44" style="stroke:#181818;stroke-width:1;"/><line style="stroke:#181818;stroke-width:1;" x1="286.0879" x2="286.0879" y1="83.9688" y2="103.9688"/><polygon fill="#181818" points="282.0879,93.9688,286.0879,103.9688,290.0879,93.9688,286.0879,97.9688" style="stroke:#181818;stroke-width:1;"/><line style="stroke:#181818;stroke-width:1;" x1="286.0879" x2="286.0879" y1="137.9375" y2="157.9375"/><polygon fill="#181818" points="282.0879,147.9375,286.0879,157.9375,290.0879,147.9375,286.0879,151.9375" style="stroke:#181818;stroke-width:1;"/><line style="stroke:#181818;stroke-width:1;" x1="286.0879" x2="286.0879" y1="209.9375" y2="229.9375"/><polygon fill="#181818" points="282.0879,219.9375,286.0879,229.9375,290.0879,219.9375,286.0879,223.9375" style="stroke:#181818;stroke-width:1;"/><line style="stroke:#181818;stroke-width:1;" x1="85.3389" x2="85.3389" y1="374.6797" y2="407.4844"/><polygon fill="#181818" points="81.3389,397.4844,85.3389,407.4844,89.3389,397.4844,85.3389,401.4844" style="stroke:#181818;stroke-width:1;"/><line style="stroke:#181818;stroke-width:1;" x1="271.9346" x2="271.9346" y1="361.875" y2="394.6797"/><polygon fill="#181818" points="267.9346,384.6797,271.9346,394.6797,275.9346,384.6797,271.9346,388.6797" style="stroke:#181818;stroke-width:1;"/><line style="stroke:#181818;stroke-width:1;" x1="271.9346" x2="271.9346" y1="428.6484" y2="461.4531"/><polygon fill="#181818" points="267.9346,451.4531,271.9346,461.4531,275.9346,451.4531,271.9346,455.4531" style="stroke:#181818;stroke-width:1;"/><line style="stroke:#181818;stroke-width:1;" x1="472.6836" x2="472.6836" y1="364.875" y2="397.6797"/><polygon fill="#181818" points="468.6836,387.6797,472.6836,397.6797,476.6836,387.6797,472.6836,391.6797" style="stroke:#181818;stroke-width:1;"/><line style="stroke:#181818;stroke-width:1;" x1="472.6836" x2="472.6836" y1="431.6484" y2="464.4531"/><polygon fill="#181818" points="468.6836,454.4531,472.6836,464.4531,476.6836,454.4531,472.6836,458.4531" style="stroke:#181818;stroke-width:1;"/><line style="stroke:#181818;stroke-width:1;" x1="85.3389" x2="85.3389" y1="307.9063" y2="340.7109"/><polygon fill="#181818" points="81.3389,330.7109,85.3389,340.7109,89.3389,330.7109,85.3389,334.7109" style="stroke:#181818;stroke-width:1;"/><line style="stroke:#181818;stroke-width:1;" x1="85.3389" x2="85.3389" y1="441.4531" y2="518.4219"/><polygon fill="#181818" points="81.3389,508.4219,85.3389,518.4219,89.3389,508.4219,85.3389,512.4219" style="stroke:#181818;stroke-width:1;"/><line style="stroke:#181818;stroke-width:1;" x1="271.9346" x2="271.9346" y1="307.9063" y2="327.9063"/><polygon fill="#181818" points="267.9346,317.9063,271.9346,327.9063,275.9346,317.9063,271.9346,321.9063" style="stroke:#181818;stroke-width:1;"/><line style="stroke:#181818;stroke-width:1;" x1="271.9346" x2="271.9346" y1="495.4219" y2="518.4219"/><polygon fill="#181818" points="267.9346,508.4219,271.9346,518.4219,275.9346,508.4219,271.9346,512.4219" style="stroke:#181818;stroke-width:1;"/><line style="stroke:#181818;stroke-width:1;" x1="139.6335" x2="240.0159" y1="295.9063" y2="295.9063"/><polygon fill="#181818" points="230.0159,291.9063,240.0159,295.9063,230.0159,299.9063,234.0159,295.9063" style="stroke:#181818;stroke-width:1;"/><line style="stroke:#181818;stroke-width:1;" x1="286.0879" x2="286.0879" y1="263.9063" y2="268.9063"/><line style="stroke:#181818;stroke-width:1;" x1="286.0879" x2="85.3389" y1="268.9063" y2="268.9063"/><line style="stroke:#181818;stroke-width:1;" x1="85.3389" x2="85.3389" y1="268.9063" y2="283.9063"/><polygon fill="#181818" points="81.3389,273.9063,85.3389,283.9063,89.3389,273.9063,85.3389,277.9063" style="stroke:#181818;stroke-width:1;"/><line style="stroke:#181818;stroke-width:1;" x1="303.8533" x2="472.6836" y1="295.9063" y2="295.9063"/><line style="stroke:#181818;stroke-width:1;" x1="472.6836" x2="472.6836" y1="295.9063" y2="330.9063"/><polygon fill="#181818" points="468.6836,320.9063,472.6836,330.9063,476.6836,320.9063,472.6836,324.9063" style="stroke:#181818;stroke-width:1;"/><line style="stroke:#181818;stroke-width:1;" x1="472.6836" x2="472.6836" y1="498.4219" y2="518.4219"/><polygon fill="#181818" points="468.6836,508.4219,472.6836,518.4219,476.6836,508.4219,472.6836,512.4219" style="stroke:#181818;stroke-width:1;"/><line style="stroke:#181818;stroke-width:1;" x1="85.3389" x2="472.6836" y1="518.4219" y2="518.4219"/><line style="stroke:#181818;stroke-width:1;" x1="286.0879" x2="286.0879" y1="518.4219" y2="538.4219"/><polygon fill="#181818" points="282.0879,528.4219,286.0879,538.4219,290.0879,528.4219,286.0879,532.4219" style="stroke:#181818;stroke-width:1;"/><line style="stroke:#181818;stroke-width:1;" x1="286.0879" x2="286.0879" y1="590.4219" y2="610.4219"/><polygon fill="#181818" points="282.0879,600.4219,286.0879,610.4219,290.0879,600.4219,286.0879,604.4219" style="stroke:#181818;stroke-width:1;"/><line style="stroke:#181818;stroke-width:1;" x1="286.0879" x2="286.0879" y1="644.3906" y2="664.3906"/><polygon fill="#181818" points="282.0879,654.3906,286.0879,664.3906,290.0879,654.3906,286.0879,658.3906" style="stroke:#181818;stroke-width:1;"/><line style="stroke:#181818;stroke-width:1;" x1="286.0879" x2="286.0879" y1="698.3594" y2="718.3594"/><polygon fill="#181818" points="282.0879,708.3594,286.0879,718.3594,290.0879,708.3594,286.0879,712.3594" style="stroke:#181818;stroke-width:1;"/><line style="stroke:#181818;stroke-width:1;" x1="286.0879" x2="286.0879" y1="752.3281" y2="772.3281"/><polygon fill="#181818" points="282.0879,762.3281,286.0879,772.3281,290.0879,762.3281,286.0879,766.3281" style="stroke:#181818;stroke-width:1;"/><line style="stroke:#181818;stroke-width:1;" x1="286.0879" x2="286.0879" y1="806.2969" y2="826.2969"/><polygon fill="#181818" points="282.0879,816.2969,286.0879,826.2969,290.0879,816.2969,286.0879,820.2969" style="stroke:#181818;stroke-width:1;"/><line style="stroke:#181818;stroke-width:1;" x1="286.0879" x2="286.0879" y1="878.2969" y2="898.2969"/><polygon fill="#181818" points="282.0879,888.2969,286.0879,898.2969,290.0879,888.2969,286.0879,892.2969" style="stroke:#181818;stroke-width:1;"/><line style="stroke:#181818;stroke-width:1;" x1="231.4629" x2="151.2603" y1="964.2656" y2="964.2656"/><line style="stroke:#181818;stroke-width:1;" x1="151.2603" x2="151.2603" y1="964.2656" y2="986.2656"/><polygon fill="#181818" points="147.2603,976.2656,151.2603,986.2656,155.2603,976.2656,151.2603,980.2656" style="stroke:#181818;stroke-width:1;"/><line style="stroke:#181818;stroke-width:1;" x1="340.7129" x2="420.9155" y1="964.2656" y2="964.2656"/><line style="stroke:#181818;stroke-width:1;" x1="420.9155" x2="420.9155" y1="964.2656" y2="986.2656"/><polygon fill="#181818" points="416.9155,976.2656,420.9155,986.2656,424.9155,976.2656,420.9155,980.2656" style="stroke:#181818;stroke-width:1;"/><line style="stroke:#181818;stroke-width:1;" x1="151.2603" x2="151.2603" y1="1020.2344" y2="1038.2344"/><line style="stroke:#181818;stroke-width:1;" x1="151.2603" x2="274.0879" y1="1038.2344" y2="1038.2344"/><polygon fill="#181818" points="264.0879,1034.2344,274.0879,1038.2344,264.0879,1042.2344,268.0879,1038.2344" style="stroke:#181818;stroke-width:1;"/><line style="stroke:#181818;stroke-width:1;" x1="420.9155" x2="420.9155" y1="1020.2344" y2="1038.2344"/><line style="stroke:#181818;stroke-width:1;" x1="420.9155" x2="298.0879" y1="1038.2344" y2="1038.2344"/><polygon fill="#181818" points="308.0879,1034.2344,298.0879,1038.2344,308.0879,1042.2344,304.0879,1038.2344" style="stroke:#181818;stroke-width:1;"/><line style="stroke:#181818;stroke-width:1;" x1="286.0879" x2="286.0879" y1="932.2656" y2="952.2656"/><polygon fill="#181818" points="282.0879,942.2656,286.0879,952.2656,290.0879,942.2656,286.0879,946.2656" style="stroke:#181818;stroke-width:1;"/><line style="stroke:#181818;stroke-width:1;" x1="286.0879" x2="286.0879" y1="1050.2344" y2="1070.2344"/><polygon fill="#181818" points="282.0879,1060.2344,286.0879,1070.2344,290.0879,1060.2344,286.0879,1064.2344" style="stroke:#181818;stroke-width:1;"/><line style="stroke:#181818;stroke-width:1;" x1="286.0879" x2="286.0879" y1="1122.2344" y2="1142.2344"/><polygon fill="#181818" points="282.0879,1132.2344,286.0879,1142.2344,290.0879,1132.2344,286.0879,1136.2344" style="stroke:#181818;stroke-width:1;"/><line style="stroke:#181818;stroke-width:1;" x1="286.0879" x2="286.0879" y1="1176.2031" y2="1196.2031"/><polygon fill="#181818" points="282.0879,1186.2031,286.0879,1196.2031,290.0879,1186.2031,286.0879,1190.2031" style="stroke:#181818;stroke-width:1;"/><line style="stroke:#181818;stroke-width:1;" x1="286.0879" x2="286.0879" y1="1230.1719" y2="1250.1719"/><polygon fill="#181818" points="282.0879,1240.1719,286.0879,1250.1719,290.0879,1240.1719,286.0879,1244.1719" style="stroke:#181818;stroke-width:1;"/><line style="stroke:#181818;stroke-width:1;" x1="286.0879" x2="286.0879" y1="1284.1406" y2="1304.1406"/><polygon fill="#181818" points="282.0879,1294.1406,286.0879,1304.1406,290.0879,1294.1406,286.0879,1298.1406" style="stroke:#181818;stroke-width:1;"/><line style="stroke:#181818;stroke-width:1;" x1="286.0879" x2="286.0879" y1="1356.1406" y2="1376.1406"/><polygon fill="#181818" points="282.0879,1366.1406,286.0879,1376.1406,290.0879,1366.1406,286.0879,1370.1406" style="stroke:#181818;stroke-width:1;"/><line style="stroke:#181818;stroke-width:1;" x1="286.0879" x2="286.0879" y1="1410.1094" y2="1430.1094"/><polygon fill="#181818" points="282.0879,1420.1094,286.0879,1430.1094,290.0879,1420.1094,286.0879,1424.1094" style="stroke:#181818;stroke-width:1;"/><line style="stroke:#181818;stroke-width:1;" x1="286.0879" x2="286.0879" y1="1464.0781" y2="1484.0781"/><polygon fill="#181818" points="282.0879,1474.0781,286.0879,1484.0781,290.0879,1474.0781,286.0879,1478.0781" style="stroke:#181818;stroke-width:1;"/><line style="stroke:#181818;stroke-width:1;" x1="286.0879" x2="286.0879" y1="1518.0469" y2="1538.0469"/><polygon fill="#181818" points="282.0879,1528.0469,286.0879,1538.0469,290.0879,1528.0469,286.0879,1532.0469" style="stroke:#181818;stroke-width:1;"/><!--SRC=[XPF1Rjim38RlVWgUrWG8K7HRTt0EWv7si4E6ecbtPosc4MPBWSMaoDkNaYnvIelbPCVa_v7yoJZ6WQlg2Xxa2JSr_D7q1giEdOClyTaZawlgVm9tnAWxjom-RlYWoB1yTMpt6VcrXZKQVAMS0BD6gGKyxvM05mBhY6akAjz9VPQyhFGMPgkTjOwWQLbRytCEl2CJCFCAeButJ4DIJCr9P8D7cWB8kAoe4v1dnle1i94MMaw9GRcsIczFMVlBREqWHaZv2Hm9gWm6_YmDzG4ERE6HUdkam5bPizL37qr8y2ZEYaTgxQ24RAIbqjnlsTo6MU9eMd5qZSDVlxtx8tQ7q5Rq_3gDN5fzGIfRFlSdEZxYFkeNvt9lLdI_wFxxU6rfqAP5HRrknubTwhDCkb3DhzRN0ZpA6U1BH_bUJkJ2HkwqstTukZnutAMnXUgt3RD0a_Ym9kV4o4ytT5l3olRzmUWsKFqj8yERvbqUoGu-LzxoPivk9YSawwUIachKzBEe_QCUJnIU2DkToCR_HYhpULIWu_K_qE2imQwyyFySlo__3W00]--></g></svg>