<svg xmlns="http://www.w3.org/2000/svg" xmlns:xlink="http://www.w3.org/1999/xlink" contentStyleType="text/css" data-diagram-type="ACTIVITY" height="1220px" preserveAspectRatio="none" style="width:525px;height:1220px;background:#FFFFFF;" version="1.1" viewBox="0 0 525 1220" width="525px" zoomAndPan="magnify"><defs/><g><ellipse cx="267.8838" cy="20" fill="#222222" rx="10" ry="10" style="stroke:#222222;stroke-width:1;"/><rect fill="#F1F1F1" height="33.9688" rx="12.5" ry="12.5" style="stroke:#181818;stroke-width:0.5;" width="116.6855" x="209.541" y="50"/><text fill="#000000" font-family="sans-serif" font-size="12" lengthAdjust="spacing" textLength="96.6855" x="219.541" y="71.1387">Manage Classes</text><polygon fill="#F1F1F1" points="200.8875,103.9688,334.8801,103.9688,346.8801,115.9688,334.8801,127.9688,200.8875,127.9688,188.8875,115.9688,200.8875,103.9688" style="stroke:#181818;stroke-width:0.5;"/><text fill="#000000" font-family="sans-serif" font-size="11" lengthAdjust="spacing" textLength="133.9927" x="200.8875" y="119.7769">Class action completed?</text><text fill="#000000" font-family="sans-serif" font-size="11" lengthAdjust="spacing" textLength="19.0083" x="169.8792" y="113.3745">yes</text><text fill="#000000" font-family="sans-serif" font-size="11" lengthAdjust="spacing" textLength="13.7017" x="346.8801" y="113.3745">no</text><rect fill="#F1F1F1" height="33.9688" rx="12.5" ry="12.5" style="stroke:#181818;stroke-width:0.5;" width="200.0352" x="60.478" y="137.9688"/><text fill="#000000" font-family="sans-serif" font-size="12" lengthAdjust="spacing" textLength="180.0352" x="70.478" y="159.1074">Class Added/Updated/Deleted</text><rect fill="#F1F1F1" height="33.9688" rx="12.5" ry="12.5" style="stroke:#181818;stroke-width:0.5;" width="189.5176" x="280.5132" y="137.9688"/><text fill="#000000" font-family="sans-serif" font-size="12" lengthAdjust="spacing" textLength="169.5176" x="290.5132" y="159.1074">Display Error in Class Action</text><polygon fill="#F1F1F1" points="267.8838,177.9375,279.8838,189.9375,267.8838,201.9375,255.8838,189.9375,267.8838,177.9375" style="stroke:#181818;stroke-width:0.5;"/><ellipse cx="267.8838" cy="232.9375" fill="#FFFFFF" fill-opacity="0.00000" rx="11" ry="11" style="stroke:#222222;stroke-width:1;"/><ellipse cx="267.8838" cy="232.9375" fill="#222222" rx="6" ry="6" style="stroke:#222222;stroke-width:1;"/><ellipse cx="267.8838" cy="263.9375" fill="#222222" rx="10" ry="10" style="stroke:#222222;stroke-width:1;"/><rect fill="#F1F1F1" height="33.9688" rx="12.5" ry="12.5" style="stroke:#181818;stroke-width:0.5;" width="126.3184" x="204.7246" y="293.9375"/><text fill="#000000" font-family="sans-serif" font-size="12" lengthAdjust="spacing" textLength="106.3184" x="214.7246" y="315.0762">Manage Teachers</text><polygon fill="#F1F1F1" points="193.0886,347.9063,342.679,347.9063,354.679,359.9063,342.679,371.9063,193.0886,371.9063,181.0886,359.9063,193.0886,347.9063" style="stroke:#181818;stroke-width:0.5;"/><text fill="#000000" font-family="sans-serif" font-size="11" lengthAdjust="spacing" textLength="149.5903" x="193.0886" y="363.7144">Teacher action completed?</text><text fill="#000000" font-family="sans-serif" font-size="11" lengthAdjust="spacing" textLength="19.0083" x="162.0803" y="357.312">yes</text><text fill="#000000" font-family="sans-serif" font-size="11" lengthAdjust="spacing" textLength="13.7017" x="354.679" y="357.312">no</text><rect fill="#F1F1F1" height="33.9688" rx="12.5" ry="12.5" style="stroke:#181818;stroke-width:0.5;" width="217.0508" x="43.4624" y="381.9063"/><text fill="#000000" font-family="sans-serif" font-size="12" lengthAdjust="spacing" textLength="197.0508" x="53.4624" y="403.0449">Teacher Added/Updated/Deleted</text><rect fill="#F1F1F1" height="33.9688" rx="12.5" ry="12.5" style="stroke:#181818;stroke-width:0.5;" width="206.5332" x="280.5132" y="381.9063"/><text fill="#000000" font-family="sans-serif" font-size="12" lengthAdjust="spacing" textLength="186.5332" x="290.5132" y="403.0449">Display Error in Teacher Action</text><polygon fill="#F1F1F1" points="267.8838,421.875,279.8838,433.875,267.8838,445.875,255.8838,433.875,267.8838,421.875" style="stroke:#181818;stroke-width:0.5;"/><ellipse cx="267.8838" cy="476.875" fill="#FFFFFF" fill-opacity="0.00000" rx="11" ry="11" style="stroke:#222222;stroke-width:1;"/><ellipse cx="267.8838" cy="476.875" fill="#222222" rx="6" ry="6" style="stroke:#222222;stroke-width:1;"/><ellipse cx="267.8838" cy="507.875" fill="#222222" rx="10" ry="10" style="stroke:#222222;stroke-width:1;"/><rect fill="#F1F1F1" height="33.9688" rx="12.5" ry="12.5" style="stroke:#181818;stroke-width:0.5;" width="132.2598" x="201.7539" y="537.875"/><text fill="#000000" font-family="sans-serif" font-size="12" lengthAdjust="spacing" textLength="112.2598" x="211.7539" y="559.0137">View Student Data</text><polygon fill="#F1F1F1" points="211.6646,591.8438,324.103,591.8438,336.103,603.8438,324.103,615.8438,211.6646,615.8438,199.6646,603.8438,211.6646,591.8438" style="stroke:#181818;stroke-width:0.5;"/><text fill="#000000" font-family="sans-serif" font-size="11" lengthAdjust="spacing" textLength="112.4385" x="211.6646" y="607.6519">Student data found?</text><text fill="#000000" font-family="sans-serif" font-size="11" lengthAdjust="spacing" textLength="19.0083" x="180.6563" y="601.2495">yes</text><text fill="#000000" font-family="sans-serif" font-size="11" lengthAdjust="spacing" textLength="13.7017" x="336.103" y="601.2495">no</text><rect fill="#F1F1F1" height="33.9688" rx="12.5" ry="12.5" style="stroke:#181818;stroke-width:0.5;" width="188.7734" x="60.2305" y="625.8438"/><text fill="#000000" font-family="sans-serif" font-size="12" lengthAdjust="spacing" textLength="168.7734" x="70.2305" y="646.9824">Display Student Information</text><rect fill="#F1F1F1" height="33.9688" rx="12.5" ry="12.5" style="stroke:#181818;stroke-width:0.5;" width="142.9473" x="83.1436" y="679.8125"/><text fill="#000000" font-family="sans-serif" font-size="12" lengthAdjust="spacing" textLength="122.9473" x="93.1436" y="700.9512">Delete Student Data</text><rect fill="#F1F1F1" height="33.9688" rx="12.5" ry="12.5" style="stroke:#181818;stroke-width:0.5;" width="224.293" x="269.0039" y="625.8438"/><text fill="#000000" font-family="sans-serif" font-size="12" lengthAdjust="spacing" textLength="204.293" x="279.0039" y="646.9824">Display No Student Data Message</text><polygon fill="#F1F1F1" points="267.8838,719.7813,279.8838,731.7813,267.8838,743.7813,255.8838,731.7813,267.8838,719.7813" style="stroke:#181818;stroke-width:0.5;"/><ellipse cx="267.8838" cy="774.7813" fill="#FFFFFF" fill-opacity="0.00000" rx="11" ry="11" style="stroke:#222222;stroke-width:1;"/><ellipse cx="267.8838" cy="774.7813" fill="#222222" rx="6" ry="6" style="stroke:#222222;stroke-width:1;"/><ellipse cx="267.8838" cy="805.7813" fill="#222222" rx="10" ry="10" style="stroke:#222222;stroke-width:1;"/><rect fill="#F1F1F1" height="33.9688" rx="12.5" ry="12.5" style="stroke:#181818;stroke-width:0.5;" width="143.8027" x="195.9824" y="835.7813"/><text fill="#000000" font-family="sans-serif" font-size="12" lengthAdjust="spacing" textLength="123.8027" x="205.9824" y="856.9199">View Academic Data</text><polygon fill="#F1F1F1" points="225.2588,889.75,310.5088,889.75,322.5088,901.75,310.5088,913.75,225.2588,913.75,213.2588,901.75,225.2588,889.75" style="stroke:#181818;stroke-width:0.5;"/><text fill="#000000" font-family="sans-serif" font-size="11" lengthAdjust="spacing" textLength="85.25" x="225.2588" y="905.5581">Data available?</text><text fill="#000000" font-family="sans-serif" font-size="11" lengthAdjust="spacing" textLength="19.0083" x="194.2505" y="899.1558">yes</text><text fill="#000000" font-family="sans-serif" font-size="11" lengthAdjust="spacing" textLength="13.7017" x="322.5088" y="899.1558">no</text><rect fill="#F1F1F1" height="33.9688" rx="12.5" ry="12.5" style="stroke:#181818;stroke-width:0.5;" width="251.8203" x="11" y="923.75"/><text fill="#000000" font-family="sans-serif" font-size="12" lengthAdjust="spacing" textLength="231.8203" x="21" y="944.8887">Display Student Reports &amp; Attendance</text><rect fill="#F1F1F1" height="33.9688" rx="12.5" ry="12.5" style="stroke:#181818;stroke-width:0.5;" width="232.0742" x="282.8203" y="923.75"/><text fill="#000000" font-family="sans-serif" font-size="12" lengthAdjust="spacing" textLength="212.0742" x="292.8203" y="944.8887">Display No Data Available Message</text><polygon fill="#F1F1F1" points="267.8838,963.7188,279.8838,975.7188,267.8838,987.7188,255.8838,975.7188,267.8838,963.7188" style="stroke:#181818;stroke-width:0.5;"/><ellipse cx="267.8838" cy="1018.7188" fill="#FFFFFF" fill-opacity="0.00000" rx="11" ry="11" style="stroke:#222222;stroke-width:1;"/><ellipse cx="267.8838" cy="1018.7188" fill="#222222" rx="6" ry="6" style="stroke:#222222;stroke-width:1;"/><ellipse cx="267.8838" cy="1049.7188" fill="#222222" rx="10" ry="10" style="stroke:#222222;stroke-width:1;"/><rect fill="#F1F1F1" height="33.9688" rx="12.5" ry="12.5" style="stroke:#181818;stroke-width:0.5;" width="126.9863" x="204.3906" y="1079.7188"/><text fill="#000000" font-family="sans-serif" font-size="12" lengthAdjust="spacing" textLength="106.9863" x="214.3906" y="1100.8574">Configure System</text><rect fill="#F1F1F1" height="33.9688" rx="12.5" ry="12.5" style="stroke:#181818;stroke-width:0.5;" width="286.7949" x="124.4863" y="1133.6875"/><text fill="#000000" font-family="sans-serif" font-size="12" lengthAdjust="spacing" textLength="266.7949" x="134.4863" y="1154.8262">Update Institution Details &amp; Grading Policies</text><ellipse cx="267.8838" cy="1198.6563" fill="#FFFFFF" fill-opacity="0.00000" rx="11" ry="11" style="stroke:#222222;stroke-width:1;"/><ellipse cx="267.8838" cy="1198.6563" fill="#222222" rx="6" ry="6" style="stroke:#222222;stroke-width:1;"/><line style="stroke:#181818;stroke-width:1;" x1="267.8838" x2="267.8838" y1="30" y2="50"/><polygon fill="#181818" points="263.8838,40,267.8838,50,271.8838,40,267.8838,44" style="stroke:#181818;stroke-width:1;"/><line style="stroke:#181818;stroke-width:1;" x1="188.8875" x2="160.4956" y1="115.9688" y2="115.9688"/><line style="stroke:#181818;stroke-width:1;" x1="160.4956" x2="160.4956" y1="115.9688" y2="137.9688"/><polygon fill="#181818" points="156.4956,127.9688,160.4956,137.9688,164.4956,127.9688,160.4956,131.9688" style="stroke:#181818;stroke-width:1;"/><line style="stroke:#181818;stroke-width:1;" x1="346.8801" x2="375.272" y1="115.9688" y2="115.9688"/><line style="stroke:#181818;stroke-width:1;" x1="375.272" x2="375.272" y1="115.9688" y2="137.9688"/><polygon fill="#181818" points="371.272,127.9688,375.272,137.9688,379.272,127.9688,375.272,131.9688" style="stroke:#181818;stroke-width:1;"/><line style="stroke:#181818;stroke-width:1;" x1="160.4956" x2="160.4956" y1="171.9375" y2="189.9375"/><line style="stroke:#181818;stroke-width:1;" x1="160.4956" x2="255.8838" y1="189.9375" y2="189.9375"/><polygon fill="#181818" points="245.8838,185.9375,255.8838,189.9375,245.8838,193.9375,249.8838,189.9375" style="stroke:#181818;stroke-width:1;"/><line style="stroke:#181818;stroke-width:1;" x1="375.272" x2="375.272" y1="171.9375" y2="189.9375"/><line style="stroke:#181818;stroke-width:1;" x1="375.272" x2="279.8838" y1="189.9375" y2="189.9375"/><polygon fill="#181818" points="289.8838,185.9375,279.8838,189.9375,289.8838,193.9375,285.8838,189.9375" style="stroke:#181818;stroke-width:1;"/><line style="stroke:#181818;stroke-width:1;" x1="267.8838" x2="267.8838" y1="83.9688" y2="103.9688"/><polygon fill="#181818" points="263.8838,93.9688,267.8838,103.9688,271.8838,93.9688,267.8838,97.9688" style="stroke:#181818;stroke-width:1;"/><line style="stroke:#181818;stroke-width:1;" x1="267.8838" x2="267.8838" y1="201.9375" y2="221.9375"/><polygon fill="#181818" points="263.8838,211.9375,267.8838,221.9375,271.8838,211.9375,267.8838,215.9375" style="stroke:#181818;stroke-width:1;"/><line style="stroke:#181818;stroke-width:1;" x1="267.8838" x2="267.8838" y1="273.9375" y2="293.9375"/><polygon fill="#181818" points="263.8838,283.9375,267.8838,293.9375,271.8838,283.9375,267.8838,287.9375" style="stroke:#181818;stroke-width:1;"/><line style="stroke:#181818;stroke-width:1;" x1="181.0886" x2="151.9878" y1="359.9063" y2="359.9063"/><line style="stroke:#181818;stroke-width:1;" x1="151.9878" x2="151.9878" y1="359.9063" y2="381.9063"/><polygon fill="#181818" points="147.9878,371.9063,151.9878,381.9063,155.9878,371.9063,151.9878,375.9063" style="stroke:#181818;stroke-width:1;"/><line style="stroke:#181818;stroke-width:1;" x1="354.679" x2="383.7798" y1="359.9063" y2="359.9063"/><line style="stroke:#181818;stroke-width:1;" x1="383.7798" x2="383.7798" y1="359.9063" y2="381.9063"/><polygon fill="#181818" points="379.7798,371.9063,383.7798,381.9063,387.7798,371.9063,383.7798,375.9063" style="stroke:#181818;stroke-width:1;"/><line style="stroke:#181818;stroke-width:1;" x1="151.9878" x2="151.9878" y1="415.875" y2="433.875"/><line style="stroke:#181818;stroke-width:1;" x1="151.9878" x2="255.8838" y1="433.875" y2="433.875"/><polygon fill="#181818" points="245.8838,429.875,255.8838,433.875,245.8838,437.875,249.8838,433.875" style="stroke:#181818;stroke-width:1;"/><line style="stroke:#181818;stroke-width:1;" x1="383.7798" x2="383.7798" y1="415.875" y2="433.875"/><line style="stroke:#181818;stroke-width:1;" x1="383.7798" x2="279.8838" y1="433.875" y2="433.875"/><polygon fill="#181818" points="289.8838,429.875,279.8838,433.875,289.8838,437.875,285.8838,433.875" style="stroke:#181818;stroke-width:1;"/><line style="stroke:#181818;stroke-width:1;" x1="267.8838" x2="267.8838" y1="327.9063" y2="347.9063"/><polygon fill="#181818" points="263.8838,337.9063,267.8838,347.9063,271.8838,337.9063,267.8838,341.9063" style="stroke:#181818;stroke-width:1;"/><line style="stroke:#181818;stroke-width:1;" x1="267.8838" x2="267.8838" y1="445.875" y2="465.875"/><polygon fill="#181818" points="263.8838,455.875,267.8838,465.875,271.8838,455.875,267.8838,459.875" style="stroke:#181818;stroke-width:1;"/><line style="stroke:#181818;stroke-width:1;" x1="267.8838" x2="267.8838" y1="517.875" y2="537.875"/><polygon fill="#181818" points="263.8838,527.875,267.8838,537.875,271.8838,527.875,267.8838,531.875" style="stroke:#181818;stroke-width:1;"/><line style="stroke:#181818;stroke-width:1;" x1="154.6172" x2="154.6172" y1="659.8125" y2="679.8125"/><polygon fill="#181818" points="150.6172,669.8125,154.6172,679.8125,158.6172,669.8125,154.6172,673.8125" style="stroke:#181818;stroke-width:1;"/><line style="stroke:#181818;stroke-width:1;" x1="199.6646" x2="154.6172" y1="603.8438" y2="603.8438"/><line style="stroke:#181818;stroke-width:1;" x1="154.6172" x2="154.6172" y1="603.8438" y2="625.8438"/><polygon fill="#181818" points="150.6172,615.8438,154.6172,625.8438,158.6172,615.8438,154.6172,619.8438" style="stroke:#181818;stroke-width:1;"/><line style="stroke:#181818;stroke-width:1;" x1="336.103" x2="381.1504" y1="603.8438" y2="603.8438"/><line style="stroke:#181818;stroke-width:1;" x1="381.1504" x2="381.1504" y1="603.8438" y2="625.8438"/><polygon fill="#181818" points="377.1504,615.8438,381.1504,625.8438,385.1504,615.8438,381.1504,619.8438" style="stroke:#181818;stroke-width:1;"/><line style="stroke:#181818;stroke-width:1;" x1="154.6172" x2="154.6172" y1="713.7813" y2="731.7813"/><line style="stroke:#181818;stroke-width:1;" x1="154.6172" x2="255.8838" y1="731.7813" y2="731.7813"/><polygon fill="#181818" points="245.8838,727.7813,255.8838,731.7813,245.8838,735.7813,249.8838,731.7813" style="stroke:#181818;stroke-width:1;"/><line style="stroke:#181818;stroke-width:1;" x1="381.1504" x2="381.1504" y1="659.8125" y2="731.7813"/><line style="stroke:#181818;stroke-width:1;" x1="381.1504" x2="279.8838" y1="731.7813" y2="731.7813"/><polygon fill="#181818" points="289.8838,727.7813,279.8838,731.7813,289.8838,735.7813,285.8838,731.7813" style="stroke:#181818;stroke-width:1;"/><line style="stroke:#181818;stroke-width:1;" x1="267.8838" x2="267.8838" y1="571.8438" y2="591.8438"/><polygon fill="#181818" points="263.8838,581.8438,267.8838,591.8438,271.8838,581.8438,267.8838,585.8438" style="stroke:#181818;stroke-width:1;"/><line style="stroke:#181818;stroke-width:1;" x1="267.8838" x2="267.8838" y1="743.7813" y2="763.7813"/><polygon fill="#181818" points="263.8838,753.7813,267.8838,763.7813,271.8838,753.7813,267.8838,757.7813" style="stroke:#181818;stroke-width:1;"/><line style="stroke:#181818;stroke-width:1;" x1="267.8838" x2="267.8838" y1="815.7813" y2="835.7813"/><polygon fill="#181818" points="263.8838,825.7813,267.8838,835.7813,271.8838,825.7813,267.8838,829.7813" style="stroke:#181818;stroke-width:1;"/><line style="stroke:#181818;stroke-width:1;" x1="213.2588" x2="136.9102" y1="901.75" y2="901.75"/><line style="stroke:#181818;stroke-width:1;" x1="136.9102" x2="136.9102" y1="901.75" y2="923.75"/><polygon fill="#181818" points="132.9102,913.75,136.9102,923.75,140.9102,913.75,136.9102,917.75" style="stroke:#181818;stroke-width:1;"/><line style="stroke:#181818;stroke-width:1;" x1="322.5088" x2="398.8574" y1="901.75" y2="901.75"/><line style="stroke:#181818;stroke-width:1;" x1="398.8574" x2="398.8574" y1="901.75" y2="923.75"/><polygon fill="#181818" points="394.8574,913.75,398.8574,923.75,402.8574,913.75,398.8574,917.75" style="stroke:#181818;stroke-width:1;"/><line style="stroke:#181818;stroke-width:1;" x1="136.9102" x2="136.9102" y1="957.7188" y2="975.7188"/><line style="stroke:#181818;stroke-width:1;" x1="136.9102" x2="255.8838" y1="975.7188" y2="975.7188"/><polygon fill="#181818" points="245.8838,971.7188,255.8838,975.7188,245.8838,979.7188,249.8838,975.7188" style="stroke:#181818;stroke-width:1;"/><line style="stroke:#181818;stroke-width:1;" x1="398.8574" x2="398.8574" y1="957.7188" y2="975.7188"/><line style="stroke:#181818;stroke-width:1;" x1="398.8574" x2="279.8838" y1="975.7188" y2="975.7188"/><polygon fill="#181818" points="289.8838,971.7188,279.8838,975.7188,289.8838,979.7188,285.8838,975.7188" style="stroke:#181818;stroke-width:1;"/><line style="stroke:#181818;stroke-width:1;" x1="267.8838" x2="267.8838" y1="869.75" y2="889.75"/><polygon fill="#181818" points="263.8838,879.75,267.8838,889.75,271.8838,879.75,267.8838,883.75" style="stroke:#181818;stroke-width:1;"/><line style="stroke:#181818;stroke-width:1;" x1="267.8838" x2="267.8838" y1="987.7188" y2="1007.7188"/><polygon fill="#181818" points="263.8838,997.7188,267.8838,1007.7188,271.8838,997.7188,267.8838,1001.7188" style="stroke:#181818;stroke-width:1;"/><line style="stroke:#181818;stroke-width:1;" x1="267.8838" x2="267.8838" y1="1059.7188" y2="1079.7188"/><polygon fill="#181818" points="263.8838,1069.7188,267.8838,1079.7188,271.8838,1069.7188,267.8838,1073.7188" style="stroke:#181818;stroke-width:1;"/><line style="stroke:#181818;stroke-width:1;" x1="267.8838" x2="267.8838" y1="1113.6875" y2="1133.6875"/><polygon fill="#181818" points="263.8838,1123.6875,267.8838,1133.6875,271.8838,1123.6875,267.8838,1127.6875" style="stroke:#181818;stroke-width:1;"/><line style="stroke:#181818;stroke-width:1;" x1="267.8838" x2="267.8838" y1="1167.6563" y2="1187.6563"/><polygon fill="#181818" points="263.8838,1177.6563,267.8838,1187.6563,271.8838,1177.6563,267.8838,1181.6563" style="stroke:#181818;stroke-width:1;"/><!--SRC=[dPCzJyCm48Pt_ugRe1rGnTUI3YXg468egYYm7_6bjPJOaNq1zT_Zs77LAfHAJB5yZttlSt8SesKXBc7blt2TGIuRfI4lMHdju0eMDJe7IzIueOOqYookOu7SNAWA9f72S0fAqxGrCSc7AV2MD4nsvAO288jOBYN9sNihqJEpWW8x5rGxWeasWIoKQslSmQErne9FD1mD7JohfQg4OzFkiz-CixyHbbkoX-bTy4qE0p189FoiHWB_9R8_V5hbTgpoeUWRBY3sW3Ltqjj0WOn9AH27XIYLTdn6XCfqUgoJ8YRqMLV6DXZZzVLnqnEIB-Q8WYKvv-Vyg-JT2ScyH4cDAiToHvLe5xhW5weQFsiwQ_PAhR7i_21pPfy9TKcdLSBbURhyJvdxiSnwvvWQM1XTgKrdmpYJJjgaWPgBBBuYFtl7Yhlm00jYtxjF-sHHAhs1bQbLgVgVhk_-0m00]--></g></svg>