<svg xmlns="http://www.w3.org/2000/svg" xmlns:xlink="http://www.w3.org/1999/xlink" contentStyleType="text/css" data-diagram-type="ACTIVITY" height="892px" preserveAspectRatio="none" style="width:231px;height:892px;background:#FFFFFF;" version="1.1" viewBox="0 0 231 892" width="231px" zoomAndPan="magnify"><defs/><g><ellipse cx="115.541" cy="20" fill="#222222" rx="10" ry="10" style="stroke:#222222;stroke-width:1;"/><rect fill="#F1F1F1" height="33.9688" rx="12.5" ry="12.5" style="stroke:#181818;stroke-width:0.5;" width="209.082" x="11" y="50"/><text fill="#000000" font-family="sans-serif" font-size="12" lengthAdjust="spacing" textLength="189.082" x="21" y="71.1387">Institution (Admin) Registration</text><rect fill="#F1F1F1" height="33.9688" rx="12.5" ry="12.5" style="stroke:#181818;stroke-width:0.5;" width="162.1719" x="34.4551" y="103.9688"/><text fill="#000000" font-family="sans-serif" font-size="12" lengthAdjust="spacing" textLength="142.1719" x="44.4551" y="125.1074">Enter Institution Details</text><rect fill="#F1F1F1" height="33.9688" rx="12.5" ry="12.5" style="stroke:#181818;stroke-width:0.5;" width="149.4922" x="40.7949" y="157.9375"/><text fill="#000000" font-family="sans-serif" font-size="12" lengthAdjust="spacing" textLength="129.4922" x="50.7949" y="179.0762">Institution Registered</text><rect fill="#F1F1F1" height="33.9688" rx="12.5" ry="12.5" style="stroke:#181818;stroke-width:0.5;" width="94.8535" x="68.1143" y="211.9063"/><text fill="#000000" font-family="sans-serif" font-size="12" lengthAdjust="spacing" textLength="74.8535" x="78.1143" y="233.0449">Admin Login</text><rect fill="#F1F1F1" height="33.9688" rx="12.5" ry="12.5" style="stroke:#181818;stroke-width:0.5;" width="163.9004" x="33.5908" y="265.875"/><text fill="#000000" font-family="sans-serif" font-size="12" lengthAdjust="spacing" textLength="143.9004" x="43.5908" y="287.0137">Go to Admin Dashboard</text><ellipse cx="115.541" cy="330.8438" fill="#FFFFFF" fill-opacity="0.00000" rx="11" ry="11" style="stroke:#222222;stroke-width:1;"/><ellipse cx="115.541" cy="330.8438" fill="#222222" rx="6" ry="6" style="stroke:#222222;stroke-width:1;"/><ellipse cx="115.541" cy="361.8438" fill="#222222" rx="10" ry="10" style="stroke:#222222;stroke-width:1;"/><rect fill="#F1F1F1" height="33.9688" rx="12.5" ry="12.5" style="stroke:#181818;stroke-width:0.5;" width="104.9844" x="63.0488" y="391.8438"/><text fill="#000000" font-family="sans-serif" font-size="12" lengthAdjust="spacing" textLength="84.9844" x="73.0488" y="412.9824">Teacher Login</text><rect fill="#F1F1F1" height="33.9688" rx="12.5" ry="12.5" style="stroke:#181818;stroke-width:0.5;" width="174.0313" x="28.5254" y="445.8125"/><text fill="#000000" font-family="sans-serif" font-size="12" lengthAdjust="spacing" textLength="154.0313" x="38.5254" y="466.9512">Go to Teacher Dashboard</text><ellipse cx="115.541" cy="510.7813" fill="#FFFFFF" fill-opacity="0.00000" rx="11" ry="11" style="stroke:#222222;stroke-width:1;"/><ellipse cx="115.541" cy="510.7813" fill="#222222" rx="6" ry="6" style="stroke:#222222;stroke-width:1;"/><ellipse cx="115.541" cy="541.7813" fill="#222222" rx="10" ry="10" style="stroke:#222222;stroke-width:1;"/><rect fill="#F1F1F1" height="33.9688" rx="12.5" ry="12.5" style="stroke:#181818;stroke-width:0.5;" width="103.6367" x="63.7227" y="571.7813"/><text fill="#000000" font-family="sans-serif" font-size="12" lengthAdjust="spacing" textLength="83.6367" x="73.7227" y="592.9199">Student Login</text><rect fill="#F1F1F1" height="33.9688" rx="12.5" ry="12.5" style="stroke:#181818;stroke-width:0.5;" width="172.6836" x="29.1992" y="625.75"/><text fill="#000000" font-family="sans-serif" font-size="12" lengthAdjust="spacing" textLength="152.6836" x="39.1992" y="646.8887">Go to Student Dashboard</text><ellipse cx="115.541" cy="690.7188" fill="#FFFFFF" fill-opacity="0.00000" rx="11" ry="11" style="stroke:#222222;stroke-width:1;"/><ellipse cx="115.541" cy="690.7188" fill="#222222" rx="6" ry="6" style="stroke:#222222;stroke-width:1;"/><ellipse cx="115.541" cy="721.7188" fill="#222222" rx="10" ry="10" style="stroke:#222222;stroke-width:1;"/><rect fill="#F1F1F1" height="33.9688" rx="12.5" ry="12.5" style="stroke:#181818;stroke-width:0.5;" width="95.6152" x="67.7334" y="751.7188"/><text fill="#000000" font-family="sans-serif" font-size="12" lengthAdjust="spacing" textLength="75.6152" x="77.7334" y="772.8574">Parent Login</text><rect fill="#F1F1F1" height="33.9688" rx="12.5" ry="12.5" style="stroke:#181818;stroke-width:0.5;" width="164.6621" x="33.21" y="805.6875"/><text fill="#000000" font-family="sans-serif" font-size="12" lengthAdjust="spacing" textLength="144.6621" x="43.21" y="826.8262">Go to Parent Dashboard</text><ellipse cx="115.541" cy="870.6563" fill="#FFFFFF" fill-opacity="0.00000" rx="11" ry="11" style="stroke:#222222;stroke-width:1;"/><ellipse cx="115.541" cy="870.6563" fill="#222222" rx="6" ry="6" style="stroke:#222222;stroke-width:1;"/><line style="stroke:#181818;stroke-width:1;" x1="115.541" x2="115.541" y1="30" y2="50"/><polygon fill="#181818" points="111.541,40,115.541,50,119.541,40,115.541,44" style="stroke:#181818;stroke-width:1;"/><line style="stroke:#181818;stroke-width:1;" x1="115.541" x2="115.541" y1="83.9688" y2="103.9688"/><polygon fill="#181818" points="111.541,93.9688,115.541,103.9688,119.541,93.9688,115.541,97.9688" style="stroke:#181818;stroke-width:1;"/><line style="stroke:#181818;stroke-width:1;" x1="115.541" x2="115.541" y1="137.9375" y2="157.9375"/><polygon fill="#181818" points="111.541,147.9375,115.541,157.9375,119.541,147.9375,115.541,151.9375" style="stroke:#181818;stroke-width:1;"/><line style="stroke:#181818;stroke-width:1;" x1="115.541" x2="115.541" y1="191.9063" y2="211.9063"/><polygon fill="#181818" points="111.541,201.9063,115.541,211.9063,119.541,201.9063,115.541,205.9063" style="stroke:#181818;stroke-width:1;"/><line style="stroke:#181818;stroke-width:1;" x1="115.541" x2="115.541" y1="245.875" y2="265.875"/><polygon fill="#181818" points="111.541,255.875,115.541,265.875,119.541,255.875,115.541,259.875" style="stroke:#181818;stroke-width:1;"/><line style="stroke:#181818;stroke-width:1;" x1="115.541" x2="115.541" y1="299.8438" y2="319.8438"/><polygon fill="#181818" points="111.541,309.8438,115.541,319.8438,119.541,309.8438,115.541,313.8438" style="stroke:#181818;stroke-width:1;"/><line style="stroke:#181818;stroke-width:1;" x1="115.541" x2="115.541" y1="371.8438" y2="391.8438"/><polygon fill="#181818" points="111.541,381.8438,115.541,391.8438,119.541,381.8438,115.541,385.8438" style="stroke:#181818;stroke-width:1;"/><line style="stroke:#181818;stroke-width:1;" x1="115.541" x2="115.541" y1="425.8125" y2="445.8125"/><polygon fill="#181818" points="111.541,435.8125,115.541,445.8125,119.541,435.8125,115.541,439.8125" style="stroke:#181818;stroke-width:1;"/><line style="stroke:#181818;stroke-width:1;" x1="115.541" x2="115.541" y1="479.7813" y2="499.7813"/><polygon fill="#181818" points="111.541,489.7813,115.541,499.7813,119.541,489.7813,115.541,493.7813" style="stroke:#181818;stroke-width:1;"/><line style="stroke:#181818;stroke-width:1;" x1="115.541" x2="115.541" y1="551.7813" y2="571.7813"/><polygon fill="#181818" points="111.541,561.7813,115.541,571.7813,119.541,561.7813,115.541,565.7813" style="stroke:#181818;stroke-width:1;"/><line style="stroke:#181818;stroke-width:1;" x1="115.541" x2="115.541" y1="605.75" y2="625.75"/><polygon fill="#181818" points="111.541,615.75,115.541,625.75,119.541,615.75,115.541,619.75" style="stroke:#181818;stroke-width:1;"/><line style="stroke:#181818;stroke-width:1;" x1="115.541" x2="115.541" y1="659.7188" y2="679.7188"/><polygon fill="#181818" points="111.541,669.7188,115.541,679.7188,119.541,669.7188,115.541,673.7188" style="stroke:#181818;stroke-width:1;"/><line style="stroke:#181818;stroke-width:1;" x1="115.541" x2="115.541" y1="731.7188" y2="751.7188"/><polygon fill="#181818" points="111.541,741.7188,115.541,751.7188,119.541,741.7188,115.541,745.7188" style="stroke:#181818;stroke-width:1;"/><line style="stroke:#181818;stroke-width:1;" x1="115.541" x2="115.541" y1="785.6875" y2="805.6875"/><polygon fill="#181818" points="111.541,795.6875,115.541,805.6875,119.541,795.6875,115.541,799.6875" style="stroke:#181818;stroke-width:1;"/><line style="stroke:#181818;stroke-width:1;" x1="115.541" x2="115.541" y1="839.6563" y2="859.6563"/><polygon fill="#181818" points="111.541,849.6563,115.541,859.6563,119.541,849.6563,115.541,853.6563" style="stroke:#181818;stroke-width:1;"/><!--SRC=[TOv12i9034NtSueizGhjIgY8u4Aq5uXEQ0CwaIIzlpFMWgrqayNBVpynH_KGgcCoPn-S9S5c5v-Sjd2XZiqL2wn3jKzE2h_1XXpvOVLS7pLIYddngOAJT5mg3W8kCB86hRy9QawPoolaMLwfMi9xdm_DdOckMLSV8YLVM1DTiywe_z8NBfmt]--></g></svg>