<svg xmlns="http://www.w3.org/2000/svg" xmlns:xlink="http://www.w3.org/1999/xlink" contentStyleType="text/css" data-diagram-type="ACTIVITY" height="1424px" preserveAspectRatio="none" style="width:551px;height:1424px;background:#FFFFFF;" version="1.1" viewBox="0 0 551 1424" width="551px" zoomAndPan="magnify"><defs/><g><ellipse cx="287.3281" cy="20" fill="#222222" rx="10" ry="10" style="stroke:#222222;stroke-width:1;"/><rect fill="#F1F1F1" height="33.9688" rx="12.5" ry="12.5" style="stroke:#181818;stroke-width:0.5;" width="173.2813" x="200.6875" y="50"/><text fill="#000000" font-family="sans-serif" font-size="12" lengthAdjust="spacing" textLength="153.2813" x="210.6875" y="71.1387">View Student Information</text><rect fill="#F1F1F1" height="33.9688" rx="12.5" ry="12.5" style="stroke:#181818;stroke-width:0.5;" width="215.4805" x="179.5879" y="103.9688"/><text fill="#000000" font-family="sans-serif" font-size="12" lengthAdjust="spacing" textLength="195.4805" x="189.5879" y="125.1074">View Class Details &amp; Classmates</text><rect fill="#F1F1F1" height="33.9688" rx="12.5" ry="12.5" style="stroke:#181818;stroke-width:0.5;" width="204.6406" x="185.0078" y="157.9375"/><text fill="#000000" font-family="sans-serif" font-size="12" lengthAdjust="spacing" textLength="184.6406" x="195.0078" y="179.0762">View Assigned Teacher Details</text><ellipse cx="287.3281" cy="222.9063" fill="#FFFFFF" fill-opacity="0.00000" rx="11" ry="11" style="stroke:#222222;stroke-width:1;"/><ellipse cx="287.3281" cy="222.9063" fill="#222222" rx="6" ry="6" style="stroke:#222222;stroke-width:1;"/><ellipse cx="287.3281" cy="253.9063" fill="#222222" rx="10" ry="10" style="stroke:#222222;stroke-width:1;"/><rect fill="#F1F1F1" height="33.9688" rx="12.5" ry="12.5" style="stroke:#181818;stroke-width:0.5;" width="262.5254" x="156.0654" y="283.9063"/><text fill="#000000" font-family="sans-serif" font-size="12" lengthAdjust="spacing" textLength="242.5254" x="166.0654" y="305.0449">View Attendance, Marks, and Evaluation</text><polygon fill="#F1F1F1" points="244.311,337.875,330.3452,337.875,342.3452,349.875,330.3452,361.875,244.311,361.875,232.311,349.875,244.311,337.875" style="stroke:#181818;stroke-width:0.5;"/><text fill="#000000" font-family="sans-serif" font-size="11" lengthAdjust="spacing" textLength="86.0342" x="244.311" y="353.6831">Data Available?</text><text fill="#000000" font-family="sans-serif" font-size="11" lengthAdjust="spacing" textLength="19.2178" x="213.0933" y="347.2808">Yes</text><text fill="#000000" font-family="sans-serif" font-size="11" lengthAdjust="spacing" textLength="14.9585" x="342.3452" y="347.2808">No</text><rect fill="#F1F1F1" height="33.9688" rx="12.5" ry="12.5" style="stroke:#181818;stroke-width:0.5;" width="278.0176" x="11" y="371.875"/><text fill="#000000" font-family="sans-serif" font-size="12" lengthAdjust="spacing" textLength="258.0176" x="21" y="393.0137">Display Attendance, Marks, and Evaluation</text><rect fill="#F1F1F1" height="33.9688" rx="12.5" ry="12.5" style="stroke:#181818;stroke-width:0.5;" width="231.2598" x="309.0176" y="371.875"/><text fill="#000000" font-family="sans-serif" font-size="12" lengthAdjust="spacing" textLength="211.2598" x="319.0176" y="393.0137">Show "No Data Available" Message</text><polygon fill="#F1F1F1" points="287.3281,411.8438,299.3281,423.8438,287.3281,435.8438,275.3281,423.8438,287.3281,411.8438" style="stroke:#181818;stroke-width:0.5;"/><ellipse cx="287.3281" cy="466.8438" fill="#FFFFFF" fill-opacity="0.00000" rx="11" ry="11" style="stroke:#222222;stroke-width:1;"/><ellipse cx="287.3281" cy="466.8438" fill="#222222" rx="6" ry="6" style="stroke:#222222;stroke-width:1;"/><ellipse cx="287.3281" cy="497.8438" fill="#222222" rx="10" ry="10" style="stroke:#222222;stroke-width:1;"/><rect fill="#F1F1F1" height="33.9688" rx="12.5" ry="12.5" style="stroke:#181818;stroke-width:0.5;" width="153.8633" x="210.3965" y="527.8438"/><text fill="#000000" font-family="sans-serif" font-size="12" lengthAdjust="spacing" textLength="133.8633" x="220.3965" y="548.9824">Open Evaluation Form</text><rect fill="#F1F1F1" height="33.9688" rx="12.5" ry="12.5" style="stroke:#181818;stroke-width:0.5;" width="219.4121" x="177.6221" y="581.8125"/><text fill="#000000" font-family="sans-serif" font-size="12" lengthAdjust="spacing" textLength="199.4121" x="187.6221" y="602.9512">Enter Student Evaluation Ratings</text><rect fill="#F1F1F1" height="33.9688" rx="12.5" ry="12.5" style="stroke:#181818;stroke-width:0.5;" width="129.6992" x="222.4785" y="635.7813"/><text fill="#000000" font-family="sans-serif" font-size="12" lengthAdjust="spacing" textLength="109.6992" x="232.4785" y="656.9199">Submit Evaluation</text><ellipse cx="287.3281" cy="700.75" fill="#FFFFFF" fill-opacity="0.00000" rx="11" ry="11" style="stroke:#222222;stroke-width:1;"/><ellipse cx="287.3281" cy="700.75" fill="#222222" rx="6" ry="6" style="stroke:#222222;stroke-width:1;"/><ellipse cx="287.3281" cy="731.75" fill="#222222" rx="10" ry="10" style="stroke:#222222;stroke-width:1;"/><rect fill="#F1F1F1" height="33.9688" rx="12.5" ry="12.5" style="stroke:#181818;stroke-width:0.5;" width="167.5039" x="203.5762" y="761.75"/><text fill="#000000" font-family="sans-serif" font-size="12" lengthAdjust="spacing" textLength="147.5039" x="213.5762" y="782.8887">Select Assigned Teacher</text><rect fill="#F1F1F1" height="33.9688" rx="12.5" ry="12.5" style="stroke:#181818;stroke-width:0.5;" width="108.6172" x="233.0195" y="815.7188"/><text fill="#000000" font-family="sans-serif" font-size="12" lengthAdjust="spacing" textLength="88.6172" x="243.0195" y="836.8574">Enter Message</text><rect fill="#F1F1F1" height="33.9688" rx="12.5" ry="12.5" style="stroke:#181818;stroke-width:0.5;" width="106.6309" x="234.0127" y="869.6875"/><text fill="#000000" font-family="sans-serif" font-size="12" lengthAdjust="spacing" textLength="86.6309" x="244.0127" y="890.8262">Send Message</text><ellipse cx="287.3281" cy="934.6563" fill="#FFFFFF" fill-opacity="0.00000" rx="11" ry="11" style="stroke:#222222;stroke-width:1;"/><ellipse cx="287.3281" cy="934.6563" fill="#222222" rx="6" ry="6" style="stroke:#222222;stroke-width:1;"/><ellipse cx="287.3281" cy="965.6563" fill="#222222" rx="10" ry="10" style="stroke:#222222;stroke-width:1;"/><rect fill="#F1F1F1" height="33.9688" rx="12.5" ry="12.5" style="stroke:#181818;stroke-width:0.5;" width="103.5723" x="235.542" y="995.6563"/><text fill="#000000" font-family="sans-serif" font-size="12" lengthAdjust="spacing" textLength="83.5723" x="245.542" y="1016.7949">Open Chatbot</text><rect fill="#F1F1F1" height="33.9688" rx="12.5" ry="12.5" style="stroke:#181818;stroke-width:0.5;" width="204.5996" x="185.0283" y="1049.625"/><text fill="#000000" font-family="sans-serif" font-size="12" lengthAdjust="spacing" textLength="184.5996" x="195.0283" y="1070.7637">Ask Academic-Related Queries</text><rect fill="#F1F1F1" height="33.9688" rx="12.5" ry="12.5" style="stroke:#181818;stroke-width:0.5;" width="145.0684" x="214.7939" y="1103.5938"/><text fill="#000000" font-family="sans-serif" font-size="12" lengthAdjust="spacing" textLength="125.0684" x="224.7939" y="1124.7324">Receive AI Response</text><ellipse cx="287.3281" cy="1168.5625" fill="#FFFFFF" fill-opacity="0.00000" rx="11" ry="11" style="stroke:#222222;stroke-width:1;"/><ellipse cx="287.3281" cy="1168.5625" fill="#222222" rx="6" ry="6" style="stroke:#222222;stroke-width:1;"/><ellipse cx="287.3281" cy="1199.5625" fill="#222222" rx="10" ry="10" style="stroke:#222222;stroke-width:1;"/><rect fill="#F1F1F1" height="33.9688" rx="12.5" ry="12.5" style="stroke:#181818;stroke-width:0.5;" width="151.9063" x="211.375" y="1229.5625"/><text fill="#000000" font-family="sans-serif" font-size="12" lengthAdjust="spacing" textLength="131.9063" x="221.375" y="1250.7012">Update Parent Details</text><rect fill="#F1F1F1" height="33.9688" rx="12.5" ry="12.5" style="stroke:#181818;stroke-width:0.5;" width="188.7148" x="192.9707" y="1283.5313"/><text fill="#000000" font-family="sans-serif" font-size="12" lengthAdjust="spacing" textLength="168.7148" x="202.9707" y="1304.6699">Modify Personal Information</text><rect fill="#F1F1F1" height="33.9688" rx="12.5" ry="12.5" style="stroke:#181818;stroke-width:0.5;" width="177.834" x="198.4111" y="1337.5"/><text fill="#000000" font-family="sans-serif" font-size="12" lengthAdjust="spacing" textLength="157.834" x="208.4111" y="1358.6387">Save Updated Information</text><ellipse cx="287.3281" cy="1402.4688" fill="#FFFFFF" fill-opacity="0.00000" rx="11" ry="11" style="stroke:#222222;stroke-width:1;"/><ellipse cx="287.3281" cy="1402.4688" fill="#222222" rx="6" ry="6" style="stroke:#222222;stroke-width:1;"/><line style="stroke:#181818;stroke-width:1;" x1="287.3281" x2="287.3281" y1="30" y2="50"/><polygon fill="#181818" points="283.3281,40,287.3281,50,291.3281,40,287.3281,44" style="stroke:#181818;stroke-width:1;"/><line style="stroke:#181818;stroke-width:1;" x1="287.3281" x2="287.3281" y1="83.9688" y2="103.9688"/><polygon fill="#181818" points="283.3281,93.9688,287.3281,103.9688,291.3281,93.9688,287.3281,97.9688" style="stroke:#181818;stroke-width:1;"/><line style="stroke:#181818;stroke-width:1;" x1="287.3281" x2="287.3281" y1="137.9375" y2="157.9375"/><polygon fill="#181818" points="283.3281,147.9375,287.3281,157.9375,291.3281,147.9375,287.3281,151.9375" style="stroke:#181818;stroke-width:1;"/><line style="stroke:#181818;stroke-width:1;" x1="287.3281" x2="287.3281" y1="191.9063" y2="211.9063"/><polygon fill="#181818" points="283.3281,201.9063,287.3281,211.9063,291.3281,201.9063,287.3281,205.9063" style="stroke:#181818;stroke-width:1;"/><line style="stroke:#181818;stroke-width:1;" x1="287.3281" x2="287.3281" y1="263.9063" y2="283.9063"/><polygon fill="#181818" points="283.3281,273.9063,287.3281,283.9063,291.3281,273.9063,287.3281,277.9063" style="stroke:#181818;stroke-width:1;"/><line style="stroke:#181818;stroke-width:1;" x1="232.311" x2="150.0088" y1="349.875" y2="349.875"/><line style="stroke:#181818;stroke-width:1;" x1="150.0088" x2="150.0088" y1="349.875" y2="371.875"/><polygon fill="#181818" points="146.0088,361.875,150.0088,371.875,154.0088,361.875,150.0088,365.875" style="stroke:#181818;stroke-width:1;"/><line style="stroke:#181818;stroke-width:1;" x1="342.3452" x2="424.6475" y1="349.875" y2="349.875"/><line style="stroke:#181818;stroke-width:1;" x1="424.6475" x2="424.6475" y1="349.875" y2="371.875"/><polygon fill="#181818" points="420.6475,361.875,424.6475,371.875,428.6475,361.875,424.6475,365.875" style="stroke:#181818;stroke-width:1;"/><line style="stroke:#181818;stroke-width:1;" x1="150.0088" x2="150.0088" y1="405.8438" y2="423.8438"/><line style="stroke:#181818;stroke-width:1;" x1="150.0088" x2="275.3281" y1="423.8438" y2="423.8438"/><polygon fill="#181818" points="265.3281,419.8438,275.3281,423.8438,265.3281,427.8438,269.3281,423.8438" style="stroke:#181818;stroke-width:1;"/><line style="stroke:#181818;stroke-width:1;" x1="424.6475" x2="424.6475" y1="405.8438" y2="423.8438"/><line style="stroke:#181818;stroke-width:1;" x1="424.6475" x2="299.3281" y1="423.8438" y2="423.8438"/><polygon fill="#181818" points="309.3281,419.8438,299.3281,423.8438,309.3281,427.8438,305.3281,423.8438" style="stroke:#181818;stroke-width:1;"/><line style="stroke:#181818;stroke-width:1;" x1="287.3281" x2="287.3281" y1="317.875" y2="337.875"/><polygon fill="#181818" points="283.3281,327.875,287.3281,337.875,291.3281,327.875,287.3281,331.875" style="stroke:#181818;stroke-width:1;"/><line style="stroke:#181818;stroke-width:1;" x1="287.3281" x2="287.3281" y1="435.8438" y2="455.8438"/><polygon fill="#181818" points="283.3281,445.8438,287.3281,455.8438,291.3281,445.8438,287.3281,449.8438" style="stroke:#181818;stroke-width:1;"/><line style="stroke:#181818;stroke-width:1;" x1="287.3281" x2="287.3281" y1="507.8438" y2="527.8438"/><polygon fill="#181818" points="283.3281,517.8438,287.3281,527.8438,291.3281,517.8438,287.3281,521.8438" style="stroke:#181818;stroke-width:1;"/><line style="stroke:#181818;stroke-width:1;" x1="287.3281" x2="287.3281" y1="561.8125" y2="581.8125"/><polygon fill="#181818" points="283.3281,571.8125,287.3281,581.8125,291.3281,571.8125,287.3281,575.8125" style="stroke:#181818;stroke-width:1;"/><line style="stroke:#181818;stroke-width:1;" x1="287.3281" x2="287.3281" y1="615.7813" y2="635.7813"/><polygon fill="#181818" points="283.3281,625.7813,287.3281,635.7813,291.3281,625.7813,287.3281,629.7813" style="stroke:#181818;stroke-width:1;"/><line style="stroke:#181818;stroke-width:1;" x1="287.3281" x2="287.3281" y1="669.75" y2="689.75"/><polygon fill="#181818" points="283.3281,679.75,287.3281,689.75,291.3281,679.75,287.3281,683.75" style="stroke:#181818;stroke-width:1;"/><line style="stroke:#181818;stroke-width:1;" x1="287.3281" x2="287.3281" y1="741.75" y2="761.75"/><polygon fill="#181818" points="283.3281,751.75,287.3281,761.75,291.3281,751.75,287.3281,755.75" style="stroke:#181818;stroke-width:1;"/><line style="stroke:#181818;stroke-width:1;" x1="287.3281" x2="287.3281" y1="795.7188" y2="815.7188"/><polygon fill="#181818" points="283.3281,805.7188,287.3281,815.7188,291.3281,805.7188,287.3281,809.7188" style="stroke:#181818;stroke-width:1;"/><line style="stroke:#181818;stroke-width:1;" x1="287.3281" x2="287.3281" y1="849.6875" y2="869.6875"/><polygon fill="#181818" points="283.3281,859.6875,287.3281,869.6875,291.3281,859.6875,287.3281,863.6875" style="stroke:#181818;stroke-width:1;"/><line style="stroke:#181818;stroke-width:1;" x1="287.3281" x2="287.3281" y1="903.6563" y2="923.6563"/><polygon fill="#181818" points="283.3281,913.6563,287.3281,923.6563,291.3281,913.6563,287.3281,917.6563" style="stroke:#181818;stroke-width:1;"/><line style="stroke:#181818;stroke-width:1;" x1="287.3281" x2="287.3281" y1="975.6563" y2="995.6563"/><polygon fill="#181818" points="283.3281,985.6563,287.3281,995.6563,291.3281,985.6563,287.3281,989.6563" style="stroke:#181818;stroke-width:1;"/><line style="stroke:#181818;stroke-width:1;" x1="287.3281" x2="287.3281" y1="1029.625" y2="1049.625"/><polygon fill="#181818" points="283.3281,1039.625,287.3281,1049.625,291.3281,1039.625,287.3281,1043.625" style="stroke:#181818;stroke-width:1;"/><line style="stroke:#181818;stroke-width:1;" x1="287.3281" x2="287.3281" y1="1083.5938" y2="1103.5938"/><polygon fill="#181818" points="283.3281,1093.5938,287.3281,1103.5938,291.3281,1093.5938,287.3281,1097.5938" style="stroke:#181818;stroke-width:1;"/><line style="stroke:#181818;stroke-width:1;" x1="287.3281" x2="287.3281" y1="1137.5625" y2="1157.5625"/><polygon fill="#181818" points="283.3281,1147.5625,287.3281,1157.5625,291.3281,1147.5625,287.3281,1151.5625" style="stroke:#181818;stroke-width:1;"/><line style="stroke:#181818;stroke-width:1;" x1="287.3281" x2="287.3281" y1="1209.5625" y2="1229.5625"/><polygon fill="#181818" points="283.3281,1219.5625,287.3281,1229.5625,291.3281,1219.5625,287.3281,1223.5625" style="stroke:#181818;stroke-width:1;"/><line style="stroke:#181818;stroke-width:1;" x1="287.3281" x2="287.3281" y1="1263.5313" y2="1283.5313"/><polygon fill="#181818" points="283.3281,1273.5313,287.3281,1283.5313,291.3281,1273.5313,287.3281,1277.5313" style="stroke:#181818;stroke-width:1;"/><line style="stroke:#181818;stroke-width:1;" x1="287.3281" x2="287.3281" y1="1317.5" y2="1337.5"/><polygon fill="#181818" points="283.3281,1327.5,287.3281,1337.5,291.3281,1327.5,287.3281,1331.5" style="stroke:#181818;stroke-width:1;"/><line style="stroke:#181818;stroke-width:1;" x1="287.3281" x2="287.3281" y1="1371.4688" y2="1391.4688"/><polygon fill="#181818" points="283.3281,1381.4688,287.3281,1391.4688,291.3281,1381.4688,287.3281,1385.4688" style="stroke:#181818;stroke-width:1;"/><!--SRC=[ZLFBRi8m4BpdArOzj23HGv-7SAWYe58Fz47QIZqkyK8i73lAEY3-lfj00e4UUdBidPsPVOGz5Zu8hk1TJhW9uLlJ1c9VAh8UBc5aa1bUxC8L6NhjR11s44UHuJwqIncJHssueH08SOE8cFNIae9FmYIbeW4F0_OkRztSdhXvfw8Mimb1B_AUhAg-1p35ObKfJTPeojfBNvYgmlPwfzW1e5L7y66W5z0ReqU8rk84vuQU-k1Jij3x8Uu70E5OSsvm-nysCYmMNrsT5wTk0nUl3hhy5p0bPboImAtIYsxjTo54IhMb7yYRmjvoyNPuXcVfZFHtOhtqypmDPdBOPJM2k9ndsdVyTgJlGnYvB2kjJdQflL6A7ZRQfyt0slR6P2ZnPmDjZRGb2b9wr5uxWWyYA0fp9qH98X2GCTUSeY9jxfIyHmfZn2l1ew9C9zSpCh9X2ZvAAdIzQJDAIAy9eXUO4UVEygdkOmXVkPAqwbgrQx-6ZTwVGM6UEXdNjbf7TXRDoJyGeuZkKbKtL8d_0W00]--></g></svg>