<svg version="1.2" xmlns="http://www.w3.org/2000/svg" viewBox="0 0 639 764" width="639" height="764">
	<title>sequence (eduke_auth)</title>
	<style>
		.s0 { fill: #494949 } 
		.s1 { fill: #ffffff;stroke: #181818 } 
		.s2 { fill: none } 
		.s3 { fill: #000000;stroke: #181818;stroke-width: .5;stroke-dasharray: 5,5 } 
		.s4 { fill: #000000 } 
		.s5 { fill: #e2e2f0;stroke: #181818;stroke-width: .5 } 
		.s6 { fill: none;stroke: #181818;stroke-width: .5 } 
		.s7 { fill: #181818;stroke: #181818 } 
		.s8 { fill: #000000;stroke: #181818 } 
		.s9 { fill: #000000;stroke: #181818;stroke-dasharray: 2,2 } 
	</style>
	<path id="X" class="s0" aria-label="X"  d="m273.5 924.9l-7.4-10.1h4.5l5.1 7.1 5.2-7.1h4.4l-7.3 10.1 7.3 10.1h-4.4l-5.2-7.1-5.1 7.1h-4.5z"/>
	<path id="X" class="s0" aria-label="X"  d="m412.7 692.9l-7.4-10.1h4.4l5.2 7.1 5.1-7.1h4.5l-7.3 10.1 7.3 10.1h-4.5l-5.1-7.1-5.2 7.1h-4.4z"/>
	<path id="X copy" class="s0" aria-label="X"  d="m590.7 693.9l-7.4-10.1h4.4l5.2 7.1 5.1-7.1h4.5l-7.3 10.1 7.3 10.1h-4.5l-5.1-7.1-5.2 7.1h-4.4z"/>
	<g>
		<g>
			<path fill-rule="evenodd" class="s1" d="m38.4 112.4h10v87.4h-10z"/>
		</g>
		<g>
			<path fill-rule="evenodd" class="s1" d="m38.4 229h10v87.4h-10z"/>
		</g>
		<g>
			<path fill-rule="evenodd" class="s1" d="m117.4 345.5h10v87.4h-10z"/>
		</g>
		<g>
			<path fill-rule="evenodd" class="s1" d="m189.3 462h10v87.4h-10z"/>
		</g>
		<g>
			<path fill-rule="evenodd" class="s1" d="m256.5 578.6h10v87.4h-10z"/>
		</g>
		<g>
			<path fill-rule="evenodd" class="s1" d="m410.1 112.4h10v87.4h-10z"/>
		</g>
		<g>
			<path fill-rule="evenodd" class="s1" d="m410.1 229h10v87.4h-10z"/>
		</g>
		<g>
			<path fill-rule="evenodd" class="s1" d="m410.1 345.5h10v87.4h-10z"/>
		</g>
		<g>
			<path fill-rule="evenodd" class="s1" d="m410.1 462h10v87.4h-10z"/>
		</g>
		<g>
			<path fill-rule="evenodd" class="s1" d="m410.1 578.6h10v87.4h-10z"/>
		</g>
		<g>
			<path fill-rule="evenodd" class="s2" d="m39.4 81.3h8v602.7h-8z"/>
			<path fill-rule="evenodd" class="s3" d="m43 81.3v602.7"/>
		</g>
		<g>
			<path fill-rule="evenodd" class="s2" d="m118.4 81.3h8v602.7h-8z"/>
			<path fill-rule="evenodd" class="s3" d="m121.9 81.3v602.7"/>
		</g>
		<g>
			<path fill-rule="evenodd" class="s2" d="m190.3 81.3h8v602.7h-8z"/>
			<path fill-rule="evenodd" class="s3" d="m194 81.3v602.7"/>
		</g>
		<g>
			<path fill-rule="evenodd" class="s2" d="m257.5 81.3h8v602.7h-8z"/>
			<path fill-rule="evenodd" class="s3" d="m260.6 81.3v602.7"/>
		</g>
		<g>
			<path fill-rule="evenodd" class="s2" d="m411.1 81.3h8v602.7h-8z"/>
			<path fill-rule="evenodd" class="s3" d="m414.2 81.3v602.7"/>
		</g>
		<g>
			<path fill-rule="evenodd" class="s2" d="m589.2 81.3h8v602.7h-8z"/>
			<path fill-rule="evenodd" class="s3" d="m592.8 81.3v602.7"/>
		</g>
		<path id="Institution" class="s4" aria-label="Institution"  d="m6.4 78v-10.2h1.4v10.2zm10.4-4.6v4.6h-1.3v-4.6q0-1.1-0.4-1.6-0.4-0.5-1.3-0.5-1 0-1.6 0.6-0.6 0.7-0.6 1.8v4.3h-1.2v-7.7h1.2v1.2q0.5-0.7 1.1-1 0.6-0.3 1.4-0.3 1.3 0 2 0.8 0.7 0.8 0.7 2.4zm7.4-2.8v1.2q-0.6-0.3-1.1-0.5-0.6-0.1-1.2-0.1-1 0-1.4 0.3-0.5 0.3-0.5 0.9 0 0.4 0.3 0.7 0.4 0.2 1.4 0.4l0.4 0.1q1.4 0.3 1.9 0.8 0.6 0.6 0.6 1.5 0 1.1-0.9 1.7-0.8 0.6-2.3 0.6-0.6 0-1.3-0.1-0.6-0.1-1.4-0.4v-1.3q0.7 0.4 1.4 0.6 0.7 0.1 1.4 0.1 0.8 0 1.3-0.3 0.5-0.3 0.5-0.8 0-0.5-0.3-0.8-0.4-0.3-1.6-0.5l-0.4-0.1q-1.2-0.3-1.7-0.8-0.5-0.5-0.5-1.4 0-1.1 0.8-1.7 0.7-0.5 2.1-0.5 0.7 0 1.3 0.1 0.7 0.1 1.2 0.3zm2.4-2.4h1.2v2.1h2.6v1h-2.6v4.2q0 0.9 0.3 1.2 0.3 0.2 1 0.2h1.3v1.1h-1.3q-1.4 0-2-0.5-0.5-0.6-0.5-2v-4.2h-0.9v-1h0.9zm5.5 9.9v-7.7h1.2v7.7zm0-9.1v-1.6h1.3v1.6zm3.9-0.8h1.2v2.2h2.6v1h-2.6v4.2q0 0.9 0.3 1.2 0.2 0.2 1 0.2h1.3v1.1h-1.3q-1.4 0-2-0.6-0.5-0.5-0.5-1.9v-4.2h-1v-1h1zm5.3 6.8v-4.6h1.3v4.6q0 1.1 0.4 1.6 0.5 0.6 1.3 0.6 1 0 1.6-0.7 0.6-0.6 0.6-1.8v-4.3h1.3v7.6h-1.3v-1.1q-0.5 0.7-1.1 1-0.6 0.3-1.4 0.3-1.3 0-2-0.8-0.7-0.8-0.7-2.4zm3.2-4.8zm5.8-2h1.3v2.2h2.6v1h-2.6v4.1q0 1 0.2 1.2 0.3 0.3 1.1 0.3h1.3v1h-1.3q-1.5 0-2-0.5-0.6-0.5-0.6-2v-4.1h-0.9v-1h0.9zm5.5 9.8v-7.6h1.3v7.6zm0-9v-1.6h1.3v1.6zm6.8 2.2q-1 0-1.6 0.8-0.6 0.8-0.6 2.2 0 1.4 0.6 2.2 0.6 0.8 1.6 0.8 1 0 1.6-0.8 0.6-0.8 0.6-2.2 0-1.4-0.6-2.2-0.6-0.8-1.6-0.8zm0-1q1.7 0 2.6 1 0.9 1.1 0.9 3 0 1.9-0.9 3-0.9 1-2.6 1-1.6 0-2.6-1-0.9-1.1-0.9-3 0-1.9 0.9-3 1-1 2.6-1zm12 3.2v4.6h-1.3v-4.6q0-1-0.4-1.6-0.4-0.5-1.3-0.5-1 0-1.6 0.6-0.6 0.7-0.6 1.8v4.3h-1.2v-7.6h1.2v1.2q0.5-0.7 1.1-1.1 0.6-0.3 1.4-0.3 1.3 0 2 0.8 0.7 0.8 0.7 2.4z"/>
		<path fill-rule="evenodd" class="s5" d="m43.4 21.5c-4.4 0-8-3.6-8-8 0-4.4 3.6-8 8-8 4.5 0 8 3.6 8 8 0 4.4-3.5 8-8 8z"/>
		<path class="s6" d="m43.4 21.5v27m-13-19h26m-13 19l-13 15m13-15l13 15"/>
		<path id="Institution" class="s4" aria-label="Institution"  d="m6.4 696v-10.2h1.4v10.2zm10.4-4.6v4.6h-1.3v-4.6q0-1.1-0.4-1.6-0.4-0.5-1.3-0.5-1 0-1.6 0.6-0.6 0.7-0.6 1.8v4.3h-1.2v-7.7h1.2v1.2q0.5-0.7 1.1-1 0.6-0.3 1.4-0.3 1.3 0 2 0.8 0.7 0.8 0.7 2.4zm7.4-2.8v1.2q-0.6-0.3-1.1-0.5-0.6-0.1-1.2-0.1-1 0-1.4 0.3-0.5 0.3-0.5 0.9 0 0.4 0.3 0.7 0.4 0.2 1.4 0.4l0.4 0.1q1.4 0.3 1.9 0.8 0.6 0.6 0.6 1.5 0 1.1-0.9 1.7-0.8 0.6-2.3 0.6-0.6 0-1.3-0.1-0.6-0.1-1.4-0.4v-1.3q0.7 0.4 1.4 0.6 0.7 0.1 1.4 0.1 0.8 0 1.3-0.3 0.5-0.3 0.5-0.8 0-0.5-0.3-0.8-0.4-0.3-1.6-0.5l-0.4-0.1q-1.2-0.3-1.7-0.8-0.5-0.5-0.5-1.4 0-1.1 0.8-1.7 0.7-0.5 2.1-0.5 0.7 0 1.3 0.1 0.7 0.1 1.2 0.3zm2.4-2.4h1.2v2.1h2.6v1h-2.6v4.2q0 0.9 0.3 1.2 0.3 0.2 1 0.2h1.3v1.1h-1.3q-1.4 0-2-0.5-0.5-0.6-0.5-2v-4.2h-0.9v-1h0.9zm5.5 9.9v-7.7h1.2v7.7zm0-9.1v-1.6h1.3v1.6zm3.9-0.8h1.2v2.2h2.6v1h-2.6v4.2q0 0.9 0.3 1.2 0.2 0.2 1 0.2h1.3v1.1h-1.3q-1.4 0-2-0.6-0.5-0.5-0.5-1.9v-4.2h-1v-1h1zm5.3 6.8v-4.6h1.3v4.6q0 1.1 0.4 1.6 0.5 0.6 1.3 0.6 1 0 1.6-0.7 0.6-0.6 0.6-1.8v-4.3h1.3v7.6h-1.3v-1.1q-0.5 0.7-1.1 1-0.6 0.3-1.4 0.3-1.3 0-2-0.8-0.7-0.8-0.7-2.4zm3.2-4.8zm5.8-2h1.3v2.2h2.6v1h-2.6v4.1q0 1 0.2 1.2 0.3 0.3 1.1 0.3h1.3v1h-1.3q-1.5 0-2-0.5-0.6-0.5-0.6-2v-4.1h-0.9v-1h0.9zm5.5 9.8v-7.6h1.3v7.6zm0-9v-1.6h1.3v1.6zm6.8 2.2q-1 0-1.6 0.8-0.6 0.8-0.6 2.2 0 1.4 0.6 2.2 0.6 0.8 1.6 0.8 1 0 1.6-0.8 0.6-0.8 0.6-2.2 0-1.4-0.6-2.2-0.6-0.8-1.6-0.8zm0-1q1.7 0 2.6 1 0.9 1.1 0.9 3 0 1.9-0.9 3-0.9 1-2.6 1-1.6 0-2.6-1-0.9-1.1-0.9-3 0-1.9 0.9-3 1-1 2.6-1zm12 3.2v4.6h-1.3v-4.6q0-1-0.4-1.6-0.4-0.5-1.3-0.5-1 0-1.6 0.6-0.6 0.7-0.6 1.8v4.3h-1.2v-7.6h1.2v1.2q0.5-0.7 1.1-1.1 0.6-0.3 1.4-0.3 1.3 0 2 0.8 0.7 0.8 0.7 2.4z"/>
		<path fill-rule="evenodd" class="s5" d="m43.4 715.8c-4.4 0-8-3.6-8-8 0-4.5 3.6-8 8-8 4.5 0 8 3.5 8 8 0 4.4-3.5 8-8 8z"/>
		<path class="s6" d="m43.4 715.8v27m-13-19h26m-13 19l-13 15m13-15l13 15"/>
		<path id="Student" class="s4" aria-label="Student"  d="m99.3 68.1v1.4q-0.7-0.4-1.4-0.6-0.7-0.2-1.4-0.2-1.1 0-1.7 0.5-0.6 0.4-0.6 1.2 0 0.7 0.4 1 0.4 0.4 1.5 0.6l0.8 0.2q1.6 0.3 2.3 1 0.8 0.7 0.8 2 0 1.5-1 2.2-1 0.8-2.9 0.8-0.8 0-1.6-0.2-0.8-0.1-1.7-0.5v-1.4q0.9 0.5 1.7 0.7 0.8 0.3 1.6 0.3 1.1 0 1.8-0.5 0.6-0.5 0.6-1.3 0-0.8-0.4-1.2-0.5-0.4-1.6-0.6l-0.8-0.2q-1.5-0.3-2.2-1-0.7-0.6-0.7-1.8 0-1.3 0.9-2.1 1-0.8 2.7-0.8 0.7 0 1.4 0.1 0.8 0.2 1.5 0.4zm2.7 0.1h1.3v2.1h2.6v1h-2.6v4.2q0 0.9 0.3 1.2 0.2 0.2 1 0.2h1.3v1.1h-1.3q-1.5 0-2-0.5-0.6-0.6-0.6-2v-4.2h-0.9v-1h0.9zm5.4 6.9v-4.7h1.3v4.6q0 1.1 0.4 1.6 0.4 0.6 1.3 0.6 1 0 1.6-0.7 0.6-0.6 0.6-1.7v-4.4h1.2v7.7h-1.2v-1.2q-0.5 0.7-1.1 1-0.6 0.4-1.4 0.4-1.3 0-2-0.8-0.7-0.9-0.7-2.4zm3.2-4.9zm10.9 1.4v-4.2h1.2v10.7h-1.2v-1.2q-0.4 0.7-1 1-0.6 0.4-1.5 0.4-1.4 0-2.3-1.1-0.8-1.1-0.8-2.9 0-1.9 0.8-3 0.9-1.1 2.3-1.1 0.9 0 1.5 0.4 0.6 0.3 1 1zm-4.3 2.7q0 1.3 0.5 2.1 0.6 0.8 1.6 0.8 1 0 1.6-0.8 0.6-0.8 0.6-2.1 0-1.4-0.6-2.2-0.6-0.8-1.6-0.8-1 0-1.6 0.8-0.5 0.8-0.5 2.2zm14.7-0.4v0.6h-5.8q0.1 1.3 0.8 2 0.7 0.7 1.9 0.7 0.7 0 1.4-0.2 0.7-0.1 1.4-0.5v1.2q-0.7 0.3-1.4 0.4-0.7 0.2-1.5 0.2-1.8 0-2.9-1.1-1-1.1-1-2.9 0-1.9 1-3 1-1.1 2.7-1.1 1.6 0 2.5 1 0.9 1 0.9 2.7zm-5.8-0.3h4.5q0-1.1-0.6-1.7-0.5-0.6-1.5-0.6-1 0-1.7 0.6-0.6 0.6-0.7 1.7zm14.2-0.1v4.6h-1.3v-4.6q0-1.1-0.4-1.6-0.4-0.6-1.3-0.6-1 0-1.6 0.7-0.6 0.6-0.6 1.7v4.4h-1.2v-7.7h1.2v1.2q0.5-0.7 1.1-1 0.6-0.4 1.4-0.4 1.3 0 2 0.9 0.7 0.8 0.7 2.4zm2.5-5.3h1.2v2.2h2.6v1h-2.6v4.2q0 0.9 0.3 1.2 0.3 0.2 1 0.2h1.3v1.1h-1.3q-1.4 0-2-0.6-0.5-0.5-0.5-1.9v-4.2h-0.9v-1h0.9z"/>
		<path fill-rule="evenodd" class="s5" d="m122.4 21.5c-4.4 0-8-3.6-8-8 0-4.4 3.6-8 8-8 4.4 0 8 3.6 8 8 0 4.4-3.6 8-8 8z"/>
		<path class="s6" d="m122.4 21.5v27m-13-19h26m-13 19l-13 15m13-15l13 15"/>
		<path id="Student" class="s4" aria-label="Student"  d="m99.3 686.1v1.4q-0.7-0.4-1.4-0.6-0.7-0.2-1.4-0.2-1.1 0-1.7 0.5-0.6 0.4-0.6 1.2 0 0.7 0.4 1 0.4 0.4 1.5 0.6l0.8 0.2q1.6 0.3 2.3 1 0.8 0.7 0.8 2 0 1.5-1 2.2-1 0.8-2.9 0.8-0.8 0-1.6-0.2-0.8-0.1-1.7-0.5v-1.4q0.9 0.5 1.7 0.7 0.8 0.3 1.6 0.3 1.1 0 1.8-0.5 0.6-0.5 0.6-1.3 0-0.8-0.4-1.2-0.5-0.4-1.6-0.6l-0.8-0.2q-1.5-0.3-2.2-1-0.7-0.6-0.7-1.8 0-1.3 0.9-2.1 1-0.8 2.7-0.8 0.7 0 1.4 0.1 0.8 0.2 1.5 0.4zm2.7 0.1h1.3v2.1h2.6v1h-2.6v4.2q0 0.9 0.3 1.2 0.2 0.2 1 0.2h1.3v1.1h-1.3q-1.5 0-2-0.5-0.6-0.6-0.6-2v-4.2h-0.9v-1h0.9zm5.4 6.9v-4.7h1.3v4.6q0 1.1 0.4 1.6 0.4 0.6 1.3 0.6 1 0 1.6-0.7 0.6-0.6 0.6-1.7v-4.4h1.2v7.7h-1.2v-1.2q-0.5 0.7-1.1 1-0.6 0.4-1.4 0.4-1.3 0-2-0.8-0.7-0.9-0.7-2.4zm3.2-4.9zm10.9 1.4v-4.2h1.2v10.7h-1.2v-1.2q-0.4 0.7-1 1-0.6 0.4-1.5 0.4-1.4 0-2.3-1.1-0.8-1.1-0.8-2.9 0-1.9 0.8-3 0.9-1.1 2.3-1.1 0.9 0 1.5 0.4 0.6 0.3 1 1zm-4.3 2.7q0 1.3 0.5 2.1 0.6 0.8 1.6 0.8 1 0 1.6-0.8 0.6-0.8 0.6-2.1 0-1.4-0.6-2.2-0.6-0.8-1.6-0.8-1 0-1.6 0.8-0.5 0.8-0.5 2.2zm14.7-0.4v0.6h-5.8q0.1 1.3 0.8 2 0.7 0.7 1.9 0.7 0.7 0 1.4-0.2 0.7-0.1 1.4-0.5v1.2q-0.7 0.3-1.4 0.4-0.7 0.2-1.5 0.2-1.8 0-2.9-1.1-1-1.1-1-2.9 0-1.9 1-3 1-1.1 2.7-1.1 1.6 0 2.5 1 0.9 1 0.9 2.7zm-5.8-0.3h4.5q0-1.1-0.6-1.7-0.5-0.6-1.5-0.6-1 0-1.7 0.6-0.6 0.6-0.7 1.7zm14.2-0.1v4.6h-1.3v-4.6q0-1.1-0.4-1.6-0.4-0.6-1.3-0.6-1 0-1.6 0.7-0.6 0.6-0.6 1.7v4.4h-1.2v-7.7h1.2v1.2q0.5-0.7 1.1-1 0.6-0.4 1.4-0.4 1.3 0 2 0.9 0.7 0.8 0.7 2.4zm2.5-5.3h1.2v2.2h2.6v1h-2.6v4.2q0 0.9 0.3 1.2 0.3 0.2 1 0.2h1.3v1.1h-1.3q-1.4 0-2-0.6-0.5-0.5-0.5-1.9v-4.2h-0.9v-1h0.9z"/>
		<path fill-rule="evenodd" class="s5" d="m122.4 715.8c-4.4 0-8-3.6-8-8 0-4.5 3.6-8 8-8 4.4 0 8 3.5 8 8 0 4.4-3.6 8-8 8z"/>
		<path class="s6" d="m122.4 715.8v27m-13-19h26m-13 19l-13 15m13-15l13 15"/>
		<path id="Teacher" class="s4" aria-label="Teacher"  d="m162.9 69v-1.2h8.7v1.2h-3.7v9h-1.4v-9zm14.1 4.9v0.6h-5.8q0.1 1.3 0.8 2 0.7 0.6 2 0.6 0.7 0 1.4-0.1 0.7-0.2 1.3-0.6v1.2q-0.6 0.3-1.4 0.4-0.7 0.2-1.4 0.2-1.8 0-2.9-1.1-1.1-1-1.1-2.9 0-1.8 1-2.9 1.1-1.1 2.8-1.1 1.5 0 2.4 1 0.9 0.9 0.9 2.7zm-5.7-0.4h4.5q0-1-0.6-1.7-0.6-0.6-1.5-0.6-1.1 0-1.7 0.6-0.6 0.6-0.7 1.7zm12.5 0.7h-1.2q-1.6 0-2.1 0.3-0.6 0.3-0.6 1.2 0 0.7 0.4 1.1 0.5 0.3 1.2 0.3 1.1 0 1.7-0.7 0.6-0.7 0.6-2zm1.3-0.5v4.4h-1.3v-1.2q-0.4 0.7-1 1.1-0.7 0.3-1.6 0.3-1.2 0-1.9-0.7-0.7-0.6-0.7-1.7 0-1.3 0.9-2 0.8-0.7 2.6-0.7h1.7v-0.1q0-0.8-0.5-1.3-0.6-0.5-1.6-0.5-0.7 0-1.3 0.2-0.6 0.1-1.2 0.4v-1.1q0.7-0.3 1.3-0.4 0.7-0.2 1.3-0.2 1.6 0 2.5 0.9 0.8 0.9 0.8 2.6zm8.1-3v1.2q-0.6-0.3-1.1-0.4-0.5-0.2-1.1-0.2-1.2 0-1.9 0.8-0.6 0.8-0.6 2.2 0 1.4 0.6 2.1 0.7 0.8 1.9 0.8 0.6 0 1.1-0.1 0.5-0.2 1.1-0.5v1.2q-0.5 0.2-1.1 0.4-0.6 0.1-1.2 0.1-1.7 0-2.8-1.1-1-1.1-1-2.9 0-1.9 1.1-3 1-1.1 2.8-1.1 0.6 0 1.1 0.2 0.6 0.1 1.1 0.3zm8.5 2.8v4.6h-1.2v-4.6q0-1.1-0.4-1.6-0.5-0.6-1.3-0.6-1 0-1.6 0.7-0.6 0.6-0.6 1.8v4.3h-1.3v-10.7h1.3v4.2q0.4-0.7 1-1 0.7-0.4 1.5-0.4 1.3 0 2 0.9 0.6 0.8 0.6 2.4zm9.1 0.4v0.7h-5.8q0.1 1.3 0.8 1.9 0.7 0.7 1.9 0.7 0.8 0 1.4-0.2 0.7-0.1 1.4-0.5v1.2q-0.7 0.3-1.4 0.4-0.7 0.2-1.4 0.2-1.9 0-2.9-1.1-1.1-1.1-1.1-2.9 0-1.9 1-3 1-1.1 2.7-1.1 1.6 0 2.5 1 0.9 1 0.9 2.7zm-5.7-0.3h4.4q0-1.1-0.5-1.7-0.6-0.6-1.5-0.6-1.1 0-1.7 0.6-0.7 0.6-0.7 1.7zm12.2-3.3v1.3q-0.2-0.1-0.5-0.2-0.2 0-0.5 0-1.1 0-1.7 0.7-0.5 0.6-0.5 1.9v4.1h-1.3v-7.7h1.3v1.2q0.4-0.7 1-1 0.6-0.4 1.6-0.4 0.1 0 0.2 0.1 0.2 0 0.4 0z"/>
		<path fill-rule="evenodd" class="s5" d="m194.3 21.5c-4.4 0-8-3.6-8-8 0-4.4 3.6-8 8-8 4.4 0 8 3.6 8 8 0 4.4-3.6 8-8 8z"/>
		<path class="s6" d="m194.3 21.5v27m-13-19h26m-13 19l-13 15m13-15l13 15"/>
		<path id="Teacher" class="s4" aria-label="Teacher"  d="m162.9 687v-1.2h8.7v1.2h-3.7v9h-1.4v-9zm14.1 4.9v0.6h-5.8q0.1 1.3 0.8 2 0.7 0.6 2 0.6 0.7 0 1.4-0.1 0.7-0.2 1.3-0.6v1.2q-0.6 0.3-1.4 0.4-0.7 0.2-1.4 0.2-1.8 0-2.9-1.1-1.1-1-1.1-2.9 0-1.8 1-2.9 1.1-1.1 2.8-1.1 1.5 0 2.4 1 0.9 0.9 0.9 2.7zm-5.7-0.4h4.5q0-1-0.6-1.7-0.6-0.6-1.5-0.6-1.1 0-1.7 0.6-0.6 0.6-0.7 1.7zm12.5 0.7h-1.2q-1.6 0-2.1 0.3-0.6 0.3-0.6 1.2 0 0.7 0.4 1.1 0.5 0.3 1.2 0.3 1.1 0 1.7-0.7 0.6-0.7 0.6-2zm1.3-0.5v4.4h-1.3v-1.2q-0.4 0.7-1 1.1-0.7 0.3-1.6 0.3-1.2 0-1.9-0.7-0.7-0.6-0.7-1.7 0-1.3 0.9-2 0.8-0.7 2.6-0.7h1.7v-0.1q0-0.8-0.5-1.3-0.6-0.5-1.6-0.5-0.7 0-1.3 0.2-0.6 0.1-1.2 0.4v-1.1q0.7-0.3 1.3-0.4 0.7-0.2 1.3-0.2 1.6 0 2.5 0.9 0.8 0.9 0.8 2.6zm8.1-3v1.2q-0.6-0.3-1.1-0.4-0.5-0.2-1.1-0.2-1.2 0-1.9 0.8-0.6 0.8-0.6 2.2 0 1.4 0.6 2.1 0.7 0.8 1.9 0.8 0.6 0 1.1-0.1 0.5-0.2 1.1-0.5v1.2q-0.5 0.2-1.1 0.4-0.6 0.1-1.2 0.1-1.7 0-2.8-1.1-1-1.1-1-2.9 0-1.9 1.1-3 1-1.1 2.8-1.1 0.6 0 1.1 0.2 0.6 0.1 1.1 0.3zm8.5 2.8v4.6h-1.2v-4.6q0-1.1-0.4-1.6-0.5-0.6-1.3-0.6-1 0-1.6 0.7-0.6 0.6-0.6 1.8v4.3h-1.3v-10.7h1.3v4.2q0.4-0.7 1-1 0.7-0.4 1.5-0.4 1.3 0 2 0.9 0.6 0.8 0.6 2.4zm9.1 0.4v0.7h-5.8q0.1 1.3 0.8 1.9 0.7 0.7 1.9 0.7 0.8 0 1.4-0.2 0.7-0.1 1.4-0.5v1.2q-0.7 0.3-1.4 0.4-0.7 0.2-1.4 0.2-1.9 0-2.9-1.1-1.1-1.1-1.1-2.9 0-1.9 1-3 1-1.1 2.7-1.1 1.6 0 2.5 1 0.9 1 0.9 2.7zm-5.7-0.3h4.4q0-1.1-0.5-1.7-0.6-0.6-1.5-0.6-1.1 0-1.7 0.6-0.7 0.6-0.7 1.7zm12.2-3.3v1.3q-0.2-0.1-0.5-0.2-0.2 0-0.5 0-1.1 0-1.7 0.7-0.5 0.6-0.5 1.9v4.1h-1.3v-7.7h1.3v1.2q0.4-0.7 1-1 0.6-0.4 1.6-0.4 0.1 0 0.2 0.1 0.2 0 0.4 0z"/>
		<path fill-rule="evenodd" class="s5" d="m194.3 715.8c-4.4 0-8-3.6-8-8 0-4.5 3.6-8 8-8 4.4 0 8 3.5 8 8 0 4.4-3.6 8-8 8z"/>
		<path class="s6" d="m194.3 715.8v27m-13-19h26m-13 19l-13 15m13-15l13 15"/>
		<path id="Parent" class="s4" aria-label="Parent"  d="m240.1 68.9h-1.7v3.9h1.7q1 0 1.5-0.5 0.6-0.5 0.6-1.5 0-0.9-0.6-1.4-0.5-0.5-1.5-0.5zm-3.1 9.1v-10.2h3.1q1.8 0 2.6 0.8 0.9 0.7 0.9 2.2 0 1.6-0.9 2.3-0.8 0.8-2.6 0.8h-1.7v4.1zm12.5-3.8h-1.3q-1.5 0-2.1 0.3-0.6 0.3-0.6 1.2 0 0.7 0.5 1.1 0.4 0.3 1.2 0.3 1 0 1.7-0.7 0.6-0.7 0.6-2zm1.3-0.5v4.4h-1.3v-1.2q-0.4 0.7-1.1 1.1-0.6 0.3-1.6 0.3-1.1 0-1.8-0.7-0.7-0.6-0.7-1.7 0-1.3 0.8-2 0.9-0.7 2.6-0.7h1.8v-0.1q0-0.8-0.6-1.3-0.5-0.5-1.6-0.5-0.6 0-1.3 0.2-0.6 0.1-1.2 0.4v-1.1q0.7-0.3 1.4-0.4 0.6-0.2 1.2-0.2 1.7 0 2.5 0.9 0.9 0.9 0.9 2.6zm7-3.4v1.3q-0.2-0.1-0.5-0.2-0.2 0-0.5 0-1.1 0-1.7 0.7-0.5 0.6-0.5 1.9v4.1h-1.3v-7.7h1.3v1.2q0.4-0.7 1-1 0.6-0.4 1.5-0.4 0.2 0 0.3 0.1 0.2 0 0.4 0zm7.5 3.6v0.7h-5.7q0 1.3 0.7 1.9 0.7 0.7 2 0.7 0.7 0 1.4-0.2 0.7-0.1 1.3-0.5v1.2q-0.6 0.3-1.3 0.4-0.8 0.2-1.5 0.2-1.8 0-2.9-1.1-1.1-1.1-1.1-2.9 0-1.9 1.1-3 1-1.1 2.7-1.1 1.5 0 2.4 1 0.9 1 0.9 2.7zm-5.7-0.3h4.5q0-1.1-0.6-1.7-0.6-0.6-1.5-0.6-1 0-1.7 0.6-0.6 0.6-0.7 1.7zm14.2-0.1v4.6h-1.3v-4.6q0-1.1-0.4-1.6-0.4-0.6-1.3-0.6-1 0-1.6 0.7-0.6 0.6-0.6 1.8v4.3h-1.2v-7.7h1.2v1.2q0.5-0.7 1.1-1 0.6-0.4 1.4-0.4 1.3 0 2 0.9 0.7 0.8 0.7 2.4zm2.5-5.2h1.2v2.1h2.6v1h-2.6v4.2q0 0.9 0.3 1.2 0.2 0.2 1 0.2h1.3v1.1h-1.3q-1.4 0-2-0.6-0.5-0.5-0.5-1.9v-4.2h-1v-1h1z"/>
		<path fill-rule="evenodd" class="s5" d="m261.5 21.5c-4.4 0-8-3.6-8-8 0-4.4 3.6-8 8-8 4.4 0 8 3.6 8 8 0 4.4-3.6 8-8 8z"/>
		<path class="s6" d="m261.5 21.5v27m-13-19h26m-13 19l-13 15m13-15l13 15"/>
		<path id="Parent" class="s4" aria-label="Parent"  d="m240.1 686.9h-1.7v3.9h1.7q1 0 1.5-0.5 0.6-0.5 0.6-1.5 0-0.9-0.6-1.4-0.5-0.5-1.5-0.5zm-3.1 9.1v-10.2h3.1q1.8 0 2.6 0.8 0.9 0.7 0.9 2.2 0 1.6-0.9 2.3-0.8 0.8-2.6 0.8h-1.7v4.1zm12.5-3.8h-1.3q-1.5 0-2.1 0.3-0.6 0.3-0.6 1.2 0 0.7 0.5 1.1 0.4 0.3 1.2 0.3 1 0 1.7-0.7 0.6-0.7 0.6-2zm1.3-0.5v4.4h-1.3v-1.2q-0.4 0.7-1.1 1.1-0.6 0.3-1.6 0.3-1.1 0-1.8-0.7-0.7-0.6-0.7-1.7 0-1.3 0.8-2 0.9-0.7 2.6-0.7h1.8v-0.1q0-0.8-0.6-1.3-0.5-0.5-1.6-0.5-0.6 0-1.3 0.2-0.6 0.1-1.2 0.4v-1.1q0.7-0.3 1.4-0.4 0.6-0.2 1.2-0.2 1.7 0 2.5 0.9 0.9 0.9 0.9 2.6zm7-3.4v1.3q-0.2-0.1-0.5-0.2-0.2 0-0.5 0-1.1 0-1.7 0.7-0.5 0.6-0.5 1.9v4.1h-1.3v-7.7h1.3v1.2q0.4-0.7 1-1 0.6-0.4 1.5-0.4 0.2 0 0.3 0.1 0.2 0 0.4 0zm7.5 3.6v0.7h-5.7q0 1.3 0.7 1.9 0.7 0.7 2 0.7 0.7 0 1.4-0.2 0.7-0.1 1.3-0.5v1.2q-0.6 0.3-1.3 0.4-0.8 0.2-1.5 0.2-1.8 0-2.9-1.1-1.1-1.1-1.1-2.9 0-1.9 1.1-3 1-1.1 2.7-1.1 1.5 0 2.4 1 0.9 1 0.9 2.7zm-5.7-0.3h4.5q0-1.1-0.6-1.7-0.6-0.6-1.5-0.6-1 0-1.7 0.6-0.6 0.6-0.7 1.7zm14.2-0.1v4.6h-1.3v-4.6q0-1.1-0.4-1.6-0.4-0.6-1.3-0.6-1 0-1.6 0.7-0.6 0.6-0.6 1.8v4.3h-1.2v-7.7h1.2v1.2q0.5-0.7 1.1-1 0.6-0.4 1.4-0.4 1.3 0 2 0.9 0.7 0.8 0.7 2.4zm2.5-5.2h1.2v2.1h2.6v1h-2.6v4.2q0 0.9 0.3 1.2 0.2 0.2 1 0.2h1.3v1.1h-1.3q-1.4 0-2-0.6-0.5-0.5-0.5-1.9v-4.2h-1v-1h1z"/>
		<path fill-rule="evenodd" class="s5" d="m261.5 715.8c-4.4 0-8-3.6-8-8 0-4.5 3.6-8 8-8 4.4 0 8 3.5 8 8 0 4.4-3.6 8-8 8z"/>
		<path class="s6" d="m261.5 715.8v27m-13-19h26m-13 19l-13 15m13-15l13 15"/>
		<path fill-rule="evenodd" class="s5" d="m360.7 50h108.9c1.4 0 2.5 1.1 2.5 2.5v25.3c0 1.4-1.1 2.5-2.5 2.5h-108.9c-1.4 0-2.5-1.1-2.5-2.5v-25.3c0-1.4 1.1-2.5 2.5-2.5z"/>
		<path id="Eduke System" class="s4" aria-label="Eduke System"  d="m366.5 70v-10.2h6.5v1.2h-5.1v3h4.9v1.1h-4.9v3.7h5.2v1.2zm13.8-6.5v-4.1h1.3v10.6h-1.3v-1.1q-0.4 0.6-1 1-0.6 0.3-1.4 0.3-1.4 0-2.3-1.1-0.8-1.1-0.8-2.9 0-1.8 0.8-2.9 0.9-1.1 2.3-1.1 0.8 0 1.4 0.3 0.6 0.3 1 1zm-4.3 2.7q0 1.4 0.6 2.2 0.6 0.7 1.6 0.7 1 0 1.6-0.7 0.5-0.8 0.5-2.2 0-1.4-0.5-2.2-0.6-0.8-1.6-0.8-1 0-1.6 0.8-0.6 0.8-0.6 2.2zm8.1 0.8v-4.7h1.2v4.6q0 1.1 0.4 1.7 0.5 0.5 1.3 0.5 1 0 1.6-0.6 0.6-0.7 0.6-1.8v-4.4h1.3v7.7h-1.3v-1.2q-0.4 0.7-1.1 1.1-0.6 0.3-1.4 0.3-1.3 0-2-0.8-0.6-0.8-0.6-2.4zm3.1-4.8zm5.8 7.8v-10.6h1.3v6.2l3.7-3.3h1.6l-4 3.6 4.2 4.1h-1.6l-3.9-3.7v3.7zm14.2-4.1v0.6h-5.8q0.1 1.3 0.8 2 0.7 0.6 1.9 0.6 0.8 0 1.4-0.1 0.7-0.2 1.4-0.6v1.2q-0.7 0.3-1.4 0.4-0.7 0.2-1.4 0.2-1.9 0-3-1.1-1-1-1-2.9 0-1.8 1-2.9 1-1.1 2.7-1.1 1.6 0 2.5 1 0.9 0.9 0.9 2.7zm-5.8-0.4h4.5q0-1-0.6-1.7-0.5-0.6-1.4-0.6-1.1 0-1.7 0.6-0.7 0.6-0.8 1.7zm18.5-5.4v1.4q-0.8-0.4-1.5-0.6-0.7-0.2-1.4-0.2-1.1 0-1.7 0.5-0.6 0.4-0.6 1.2 0 0.7 0.4 1 0.4 0.4 1.5 0.6l0.9 0.2q1.5 0.3 2.2 1 0.8 0.7 0.8 2 0 1.5-1 2.2-1 0.8-2.9 0.8-0.8 0-1.6-0.2-0.8-0.1-1.7-0.5v-1.4q0.9 0.5 1.7 0.7 0.8 0.3 1.6 0.3 1.2 0 1.8-0.5 0.6-0.5 0.6-1.3 0-0.8-0.4-1.2-0.5-0.4-1.5-0.6l-0.9-0.2q-1.5-0.3-2.2-1-0.7-0.6-0.7-1.8 0-1.3 0.9-2.1 1-0.8 2.7-0.8 0.7 0 1.4 0.1 0.8 0.2 1.6 0.4zm9.2 2.2l-3.3 8.4q-0.6 1.4-1.1 1.8-0.5 0.4-1.3 0.4h-1v-1h0.7q0.5 0 0.8-0.3 0.3-0.2 0.6-1.1l0.3-0.6-3.1-7.6h1.3l2.4 6 2.4-6zm6.6 0.3v1.2q-0.5-0.3-1.1-0.5-0.6-0.1-1.2-0.1-0.9 0-1.4 0.3-0.5 0.3-0.5 0.9 0 0.4 0.4 0.7 0.3 0.2 1.3 0.4l0.5 0.1q1.3 0.3 1.9 0.8 0.5 0.6 0.5 1.5 0 1.1-0.8 1.7-0.9 0.6-2.3 0.6-0.7 0-1.3-0.1-0.7-0.1-1.4-0.4v-1.3q0.7 0.4 1.3 0.6 0.7 0.1 1.4 0.1 0.9 0 1.4-0.3 0.4-0.3 0.4-0.8 0-0.5-0.3-0.8-0.4-0.3-1.5-0.5l-0.5-0.1q-1.1-0.3-1.7-0.8-0.5-0.5-0.5-1.4 0-1.1 0.8-1.7 0.8-0.5 2.2-0.5 0.7 0 1.3 0.1 0.6 0.1 1.1 0.3zm2.4-2.4h1.3v2.1h2.6v1h-2.6v4.2q0 0.9 0.2 1.2 0.3 0.2 1.1 0.2h1.3v1.1h-1.3q-1.5 0-2-0.5-0.6-0.6-0.6-2v-4.2h-0.9v-1h0.9zm12.1 5.7v0.6h-5.8q0.1 1.3 0.8 2 0.7 0.7 1.9 0.7 0.7 0 1.4-0.2 0.7-0.1 1.4-0.5v1.2q-0.7 0.3-1.4 0.4-0.7 0.2-1.5 0.2-1.8 0-2.9-1.1-1-1.1-1-2.9 0-1.9 1-3 1-1.1 2.7-1.1 1.6 0 2.5 1 0.9 1 0.9 2.7zm-5.8-0.3h4.5q0-1.1-0.6-1.7-0.5-0.6-1.5-0.6-1 0-1.7 0.6-0.6 0.6-0.7 1.7zm13.8-1.7q0.5-0.9 1.1-1.3 0.7-0.4 1.6-0.4 1.2 0 1.8 0.9 0.7 0.8 0.7 2.4v4.6h-1.3v-4.6q0-1.1-0.4-1.6-0.4-0.6-1.2-0.6-1 0-1.5 0.7-0.6 0.6-0.6 1.7v4.4h-1.3v-4.6q0-1.1-0.4-1.6-0.3-0.6-1.2-0.6-0.9 0-1.5 0.7-0.6 0.6-0.6 1.7v4.4h-1.2v-7.7h1.2v1.2q0.5-0.7 1.1-1 0.6-0.4 1.4-0.4 0.8 0 1.4 0.5 0.6 0.4 0.9 1.2z"/>
		<path fill-rule="evenodd" class="s5" d="m555.3 50h75.8c1.4 0 2.5 1.1 2.5 2.5v25.3c0 1.4-1.1 2.5-2.5 2.5h-75.8c-1.4 0-2.5-1.1-2.5-2.5v-25.3c0-1.4 1.1-2.5 2.5-2.5z"/>
		<path id="Database" class="s4" aria-label="Database"  d="m564.2 60.9h-1.6v8h1.6q2.1 0 3.1-1 1-0.9 1-3 0-2.1-1-3-1-1-3.1-1zm-3 9.1v-10.2h2.8q3 0 4.4 1.2 1.4 1.3 1.4 3.9 0 2.6-1.4 3.9-1.4 1.2-4.4 1.2zm15.5-3.8h-1.3q-1.5 0-2.1 0.3-0.6 0.3-0.6 1.2 0 0.7 0.5 1.1 0.4 0.3 1.2 0.3 1 0 1.6-0.7 0.7-0.7 0.7-2zm1.2-0.5v4.4h-1.2v-1.2q-0.5 0.7-1.1 1.1-0.6 0.3-1.6 0.3-1.2 0-1.8-0.7-0.7-0.6-0.7-1.7 0-1.3 0.8-2 0.9-0.7 2.6-0.7h1.8v-0.1q0-0.8-0.6-1.3-0.6-0.5-1.6-0.5-0.7 0-1.3 0.2-0.6 0.1-1.2 0.4v-1.1q0.7-0.3 1.4-0.4 0.6-0.2 1.2-0.2 1.7 0 2.5 0.9 0.8 0.9 0.8 2.6zm2.6-5.4h1.3v2.1h2.6v1h-2.6v4.2q0 0.9 0.2 1.2 0.3 0.2 1.1 0.2h1.3v1.1h-1.3q-1.5 0-2-0.6-0.6-0.5-0.6-1.9v-4.2h-0.9v-1h0.9zm10.2 6h-1.2q-1.5 0-2.1 0.4-0.6 0.3-0.6 1.1 0 0.7 0.4 1.1 0.5 0.4 1.2 0.4 1.1 0 1.7-0.7 0.6-0.8 0.6-2zm1.3-0.5v4.3h-1.3v-1.1q-0.4 0.7-1 1-0.7 0.3-1.6 0.3-1.2 0-1.9-0.6-0.7-0.7-0.7-1.8 0-1.3 0.9-1.9 0.9-0.7 2.6-0.7h1.7v-0.1q0-0.9-0.5-1.4-0.6-0.4-1.6-0.4-0.7 0-1.3 0.1-0.6 0.2-1.2 0.5v-1.2q0.7-0.2 1.3-0.4 0.7-0.1 1.3-0.1 1.7 0 2.5 0.9 0.8 0.8 0.8 2.6zm8.1 0.5q0-1.4-0.6-2.2-0.6-0.8-1.6-0.8-1 0-1.5 0.8-0.6 0.8-0.6 2.2 0 1.4 0.6 2.2 0.5 0.8 1.5 0.8 1 0 1.6-0.8 0.6-0.8 0.6-2.2zm-4.3-6.8v4.1q0.4-0.6 1-1 0.6-0.3 1.5-0.3 1.3 0 2.2 1.1 0.9 1.1 0.9 2.9 0 1.8-0.9 2.9-0.9 1.1-2.2 1.1-0.9 0-1.5-0.3-0.6-0.3-1-1v1.1h-1.3v-10.6zm12.4 6.8h-1.2q-1.5 0-2.1 0.3-0.6 0.4-0.6 1.2 0 0.7 0.4 1.1 0.5 0.4 1.2 0.4 1.1 0 1.7-0.8 0.6-0.7 0.6-1.9zm1.3-0.6v4.4h-1.3v-1.1q-0.4 0.6-1 1-0.7 0.3-1.6 0.3-1.2 0-1.9-0.6-0.7-0.7-0.7-1.8 0-1.3 0.9-2 0.9-0.6 2.6-0.6h1.7v-0.1q0-0.9-0.5-1.4-0.6-0.5-1.6-0.5-0.7 0-1.3 0.2-0.6 0.2-1.2 0.5v-1.2q0.7-0.3 1.3-0.4 0.7-0.1 1.3-0.1 1.7 0 2.5 0.8 0.8 0.9 0.8 2.6zm7.5-3v1.2q-0.6-0.3-1.1-0.4-0.6-0.2-1.2-0.2-1 0-1.4 0.3-0.5 0.3-0.5 0.9 0 0.4 0.3 0.7 0.4 0.2 1.4 0.4l0.4 0.1q1.4 0.3 1.9 0.8 0.6 0.6 0.6 1.5 0 1.1-0.9 1.7-0.8 0.6-2.3 0.6-0.6 0-1.3-0.1-0.6-0.1-1.4-0.4v-1.3q0.7 0.4 1.4 0.6 0.7 0.2 1.3 0.2 0.9 0 1.4-0.3 0.5-0.3 0.5-0.9 0-0.5-0.4-0.8-0.3-0.3-1.5-0.5l-0.4-0.1q-1.2-0.3-1.7-0.8-0.5-0.5-0.5-1.4 0-1.1 0.7-1.6 0.8-0.6 2.2-0.6 0.7 0 1.3 0.1 0.6 0.1 1.2 0.3zm8.9 3.3v0.6h-5.8q0.1 1.3 0.8 2 0.7 0.6 2 0.6 0.7 0 1.4-0.1 0.7-0.2 1.3-0.6v1.2q-0.6 0.3-1.4 0.5-0.7 0.1-1.4 0.1-1.8 0-2.9-1.1-1.1-1-1.1-2.8 0-1.9 1-3 1.1-1.1 2.8-1.1 1.5 0 2.4 1 0.9 1 0.9 2.7zm-5.7-0.4h4.5q0-1-0.6-1.6-0.6-0.7-1.5-0.7-1.1 0-1.7 0.6-0.6 0.6-0.7 1.7z"/>
		<g>
			<path fill-rule="evenodd" class="s1" d="m38.4 112.4h10v87.4h-10z"/>
		</g>
		<g>
			<path fill-rule="evenodd" class="s1" d="m38.4 229h10v87.4h-10z"/>
		</g>
		<g>
			<path fill-rule="evenodd" class="s1" d="m117.4 345.5h10v87.4h-10z"/>
		</g>
		<g>
			<path fill-rule="evenodd" class="s1" d="m189.3 462h10v87.4h-10z"/>
		</g>
		<g>
			<path fill-rule="evenodd" class="s1" d="m256.5 578.6h10v87.4h-10z"/>
		</g>
		<g>
			<path fill-rule="evenodd" class="s1" d="m410.1 112.4h10v87.4h-10z"/>
		</g>
		<g>
			<path fill-rule="evenodd" class="s1" d="m410.1 229h10v87.4h-10z"/>
		</g>
		<g>
			<path fill-rule="evenodd" class="s1" d="m410.1 345.5h10v87.4h-10z"/>
		</g>
		<g>
			<path fill-rule="evenodd" class="s1" d="m410.1 462h10v87.4h-10z"/>
		</g>
		<g>
			<path fill-rule="evenodd" class="s1" d="m410.1 578.6h10v87.4h-10z"/>
		</g>
		<path fill-rule="evenodd" class="s7" d="m398.1 108.4l10 4-10 4 4-4z"/>
		<path fill-rule="evenodd" class="s8" d="m48.4 112.4h355.7"/>
		<path id="Register Institution" class="s4" aria-label="Register Institution"  d="m61.2 102.6q0.4 0.1 0.8 0.6 0.4 0.4 0.8 1.2l1.3 2.6h-1.4l-1.2-2.4q-0.5-1-0.9-1.3-0.5-0.3-1.2-0.3h-1.4v4h-1.3v-9.5h2.9q1.6 0 2.4 0.7 0.8 0.7 0.8 2.1 0 0.8-0.4 1.4-0.4 0.6-1.2 0.9zm-1.6-4h-1.6v3.3h1.6q0.9 0 1.4-0.4 0.5-0.4 0.5-1.2 0-0.9-0.5-1.3-0.5-0.4-1.4-0.4zm11.6 4.6v0.5h-5.4q0.1 1.2 0.7 1.9 0.7 0.6 1.9 0.6 0.6 0 1.3-0.2 0.6-0.1 1.2-0.5v1.1q-0.6 0.3-1.3 0.4-0.6 0.2-1.3 0.2-1.7 0-2.7-1-1-1-1-2.7 0-1.7 0.9-2.8 1-1 2.6-1 1.4 0 2.2 0.9 0.9 1 0.9 2.6zm-5.3-0.4h4.1q0-0.9-0.5-1.5-0.5-0.6-1.4-0.6-1 0-1.6 0.6-0.6 0.5-0.6 1.5zm11.9 0.6q0-1.3-0.5-2-0.6-0.7-1.5-0.7-1 0-1.5 0.7-0.5 0.7-0.5 2 0 1.2 0.5 1.9 0.5 0.7 1.5 0.7 0.9 0 1.5-0.7 0.5-0.7 0.5-1.9zm1.1-3.5v6.2q0 1.8-0.8 2.7-0.8 0.9-2.4 0.9-0.6 0-1.2-0.1-0.5-0.1-1.1-0.3v-1.1q0.6 0.3 1.1 0.4 0.5 0.1 1 0.1 1.1 0 1.7-0.6 0.6-0.6 0.6-1.8v-0.6q-0.4 0.7-0.9 1-0.6 0.3-1.4 0.3-1.3 0-2.1-1-0.8-1-0.8-2.6 0-1.7 0.8-2.7 0.8-1 2.1-1 0.8 0 1.4 0.3 0.5 0.3 0.9 1v-1.1zm2.4 7.1v-7.1h1.2v7.1zm0-8.4v-1.5h1.1v1.5zm8.2 1.5v1.1q-0.5-0.2-1.1-0.4-0.5-0.1-1.1-0.1-0.8 0-1.3 0.3-0.4 0.2-0.4 0.8 0 0.4 0.3 0.6 0.3 0.2 1.3 0.4l0.4 0.1q1.2 0.3 1.7 0.8 0.5 0.5 0.5 1.3 0 1-0.7 1.6-0.8 0.6-2.2 0.6-0.6 0-1.2-0.1-0.6-0.1-1.3-0.4v-1.2q0.7 0.4 1.3 0.5 0.6 0.2 1.2 0.2 0.9 0 1.3-0.3 0.4-0.3 0.4-0.8 0-0.4-0.3-0.7-0.3-0.3-1.4-0.5l-0.4-0.1q-1.1-0.2-1.6-0.7-0.4-0.5-0.4-1.3 0-1 0.7-1.5 0.7-0.6 2-0.6 0.6 0 1.2 0.1 0.6 0.1 1.1 0.3zm2.2-2.2h1.2v2h2.4v0.9h-2.4v3.9q0 0.8 0.2 1.1 0.2 0.2 1 0.2h1.2v1h-1.2q-1.4 0-1.9-0.5-0.5-0.5-0.5-1.8v-3.9h-0.9v-0.9h0.9zm11.2 5.3v0.5h-5.4q0.1 1.2 0.7 1.9 0.7 0.6 1.9 0.6 0.6 0 1.3-0.2 0.6-0.1 1.2-0.4v1.1q-0.6 0.2-1.3 0.4-0.6 0.1-1.3 0.1-1.7 0-2.7-1-1-1-1-2.7 0-1.7 0.9-2.7 1-1.1 2.6-1.1 1.4 0 2.2 1 0.9 0.9 0.9 2.5zm-5.4-0.4h4.2q0-0.9-0.5-1.5-0.5-0.6-1.4-0.6-1 0-1.6 0.6-0.6 0.5-0.7 1.5zm11.4-3v1.2q-0.2-0.1-0.4-0.2-0.2 0-0.5 0-1 0-1.5 0.6-0.6 0.7-0.6 1.9v3.7h-1.1v-7.1h1.1v1.1q0.4-0.6 1-0.9 0.6-0.4 1.4-0.4 0.1 0 0.3 0.1 0.1 0 0.3 0zm5.4 7.2v-9.5h1.3v9.5zm9.7-4.3v4.3h-1.2v-4.2q0-1-0.4-1.5-0.4-0.5-1.1-0.5-1 0-1.5 0.6-0.6 0.6-0.6 1.6v4h-1.2v-7.1h1.2v1.1q0.4-0.6 1-0.9 0.6-0.4 1.3-0.4 1.2 0 1.9 0.8 0.6 0.8 0.6 2.2zm6.9-2.6v1.1q-0.5-0.2-1.1-0.4-0.5-0.1-1.1-0.1-0.8 0-1.3 0.3-0.4 0.2-0.4 0.8 0 0.4 0.3 0.6 0.3 0.3 1.3 0.5h0.4q1.2 0.3 1.7 0.8 0.5 0.5 0.5 1.4 0 0.9-0.7 1.5-0.8 0.6-2.2 0.6-0.6 0-1.2-0.1-0.6-0.1-1.3-0.3v-1.2q0.7 0.3 1.3 0.5 0.6 0.1 1.2 0.1 0.9 0 1.3-0.3 0.4-0.2 0.4-0.8 0-0.4-0.3-0.7-0.3-0.2-1.4-0.5l-0.4-0.1q-1.1-0.2-1.6-0.7-0.4-0.4-0.4-1.3 0-1 0.7-1.5 0.7-0.6 2-0.6 0.6 0 1.2 0.1 0.6 0.1 1.1 0.3zm2.2-2.2h1.2v2h2.4v0.9h-2.4v3.9q0 0.8 0.2 1.1 0.2 0.2 1 0.2h1.2v1h-1.2q-1.4 0-1.9-0.5-0.5-0.5-0.5-1.8v-3.9h-0.9v-0.9h0.9zm5.1 9.1v-7.1h1.2v7.1zm0-8.4v-1.4h1.1v1.4zm3.6-0.7h1.2v2h2.4v0.9h-2.4v3.9q0 0.9 0.2 1.1 0.3 0.3 1 0.3h1.2v0.9h-1.2q-1.3 0-1.9-0.5-0.5-0.5-0.5-1.8v-3.9h-0.8v-0.9h0.8zm5 6.4v-4.4h1.2v4.3q0 1 0.4 1.5 0.4 0.5 1.2 0.5 0.9 0 1.5-0.6 0.5-0.6 0.5-1.6v-4.1h1.2v7.2h-1.2v-1.1q-0.4 0.6-1 0.9-0.5 0.3-1.3 0.3-1.2 0-1.8-0.7-0.7-0.8-0.7-2.2zm3-4.5zm5.4-1.9h1.1v2h2.4v1h-2.4v3.8q0 0.9 0.3 1.1 0.2 0.3 0.9 0.3h1.2v1h-1.2q-1.3 0-1.8-0.5-0.5-0.6-0.5-1.9v-3.8h-0.9v-1h0.9zm5.1 9.2v-7.1h1.2v7.1zm0-8.4v-1.5h1.1v1.5zm6.4 2.1q-1 0-1.5 0.7-0.5 0.8-0.5 2 0 1.3 0.5 2 0.5 0.8 1.5 0.8 0.9 0 1.5-0.8 0.5-0.7 0.5-2 0-1.2-0.5-2-0.6-0.7-1.5-0.7zm0-1q1.5 0 2.4 1 0.8 1 0.8 2.7 0 1.8-0.8 2.8-0.9 1-2.4 1-1.5 0-2.4-1-0.9-1-0.9-2.8 0-1.7 0.9-2.7 0.9-1 2.4-1zm11.1 3v4.3h-1.2v-4.3q0-1-0.4-1.5-0.4-0.5-1.1-0.5-1 0-1.5 0.6-0.6 0.6-0.6 1.7v4h-1.2v-7.1h1.2v1.1q0.4-0.7 1-1 0.6-0.3 1.3-0.3 1.2 0 1.9 0.8 0.6 0.7 0.6 2.2z"/>
		<path fill-rule="evenodd" class="s7" d="m581.2 137.6l10 4-10 4 4-4z"/>
		<path fill-rule="evenodd" class="s8" d="m420.1 141.6h167.1"/>
		<path id="Save institution details" class="s4" aria-label="Save institution details"  d="m434.1 126.8v1.3q-0.7-0.4-1.4-0.5-0.6-0.2-1.2-0.2-1.1 0-1.6 0.4-0.6 0.4-0.6 1.2 0 0.6 0.4 0.9 0.3 0.3 1.4 0.5l0.8 0.2q1.4 0.3 2.1 0.9 0.7 0.7 0.7 1.9 0 1.4-1 2.1-0.9 0.7-2.7 0.7-0.6 0-1.4-0.2-0.7-0.1-1.6-0.4v-1.3q0.8 0.4 1.6 0.6 0.7 0.2 1.4 0.2 1.1 0 1.7-0.4 0.6-0.4 0.6-1.2 0-0.7-0.4-1.1-0.4-0.4-1.4-0.6l-0.8-0.2q-1.4-0.2-2.1-0.8-0.6-0.7-0.6-1.7 0-1.3 0.9-2 0.9-0.7 2.4-0.7 0.7 0 1.4 0.1 0.7 0.1 1.4 0.3zm6.9 5.6h-1.1q-1.5 0-2 0.4-0.6 0.3-0.6 1.1 0 0.6 0.5 0.9 0.4 0.4 1.1 0.4 0.9 0 1.5-0.7 0.6-0.7 0.6-1.8zm1.2-0.5v4.1h-1.2v-1.1q-0.4 0.6-1 0.9-0.6 0.3-1.4 0.3-1.1 0-1.8-0.6-0.6-0.6-0.6-1.6 0-1.2 0.8-1.8 0.8-0.6 2.4-0.6h1.6v-0.1q0-0.8-0.5-1.3-0.5-0.4-1.5-0.4-0.6 0-1.2 0.1-0.6 0.2-1.1 0.5v-1.1q0.6-0.3 1.2-0.4 0.6-0.1 1.2-0.1 1.6 0 2.3 0.8 0.8 0.8 0.8 2.4zm4.2 4.1l-2.6-7.1h1.2l2.2 5.9 2.2-5.9h1.3l-2.7 7.1zm12-3.9v0.6h-5.4q0.1 1.2 0.7 1.8 0.7 0.7 1.8 0.7 0.7 0 1.3-0.2 0.7-0.2 1.3-0.5v1.1q-0.6 0.3-1.3 0.4-0.7 0.1-1.3 0.1-1.7 0-2.7-0.9-1-1-1-2.7 0-1.8 0.9-2.8 0.9-1 2.5-1 1.5 0 2.3 0.9 0.9 0.9 0.9 2.5zm-5.4-0.3h4.2q0-1-0.6-1.6-0.5-0.5-1.3-0.5-1 0-1.6 0.5-0.6 0.6-0.7 1.6zm11.4 4.2v-7.1h1.2v7.1zm0-8.4v-1.5h1.1v1.5zm9.6 4.1v4.3h-1.2v-4.3q0-1-0.4-1.5-0.4-0.5-1.2-0.5-0.9 0-1.5 0.6-0.5 0.6-0.5 1.6v4.1h-1.2v-7.1h1.2v1.1q0.4-0.7 1-1 0.5-0.3 1.3-0.3 1.2 0 1.8 0.7 0.7 0.8 0.7 2.3zm6.8-2.6v1.1q-0.5-0.3-1-0.4-0.5-0.1-1.1-0.1-0.9 0-1.3 0.2-0.5 0.3-0.5 0.8 0 0.4 0.4 0.7 0.3 0.2 1.2 0.4l0.4 0.1q1.3 0.3 1.8 0.7 0.5 0.5 0.5 1.4 0 1-0.8 1.6-0.8 0.5-2.1 0.5-0.6 0-1.2-0.1-0.6-0.1-1.3-0.3v-1.2q0.6 0.3 1.2 0.5 0.7 0.2 1.3 0.2 0.8 0 1.3-0.3 0.4-0.3 0.4-0.8 0-0.5-0.3-0.7-0.3-0.3-1.4-0.5l-0.4-0.1q-1.1-0.3-1.6-0.7-0.5-0.5-0.5-1.3 0-1 0.7-1.6 0.7-0.5 2-0.5 0.7 0 1.3 0.1 0.5 0.1 1 0.3zm2.2-2.3h1.2v2.1h2.4v0.9h-2.4v3.8q0 0.9 0.3 1.1 0.2 0.3 0.9 0.3h1.2v1h-1.2q-1.3 0-1.8-0.5-0.6-0.5-0.6-1.9v-3.8h-0.8v-0.9h0.8zm5.2 9.1v-7.1h1.1v7.1zm0-8.4v-1.5h1.2v1.5zm3.6-0.7h1.2v2h2.4v0.9h-2.4v3.8q0 0.9 0.2 1.2 0.2 0.2 1 0.2h1.2v1h-1.2q-1.4 0-1.9-0.5-0.5-0.5-0.5-1.9v-3.8h-0.9v-0.9h0.9zm5 6.3v-4.3h1.2v4.2q0 1.1 0.3 1.6 0.4 0.5 1.2 0.5 1 0 1.5-0.6 0.6-0.6 0.6-1.7v-4h1.1v7.1h-1.1v-1.1q-0.5 0.7-1 1-0.6 0.3-1.3 0.3-1.2 0-1.9-0.8-0.6-0.7-0.6-2.2zm2.9-4.5zm5.4-1.8h1.2v2h2.4v0.9h-2.4v3.9q0 0.8 0.2 1.1 0.3 0.2 1 0.2h1.2v1h-1.2q-1.3 0-1.9-0.5-0.5-0.5-0.5-1.8v-3.9h-0.8v-0.9h0.8zm5.1 9.1v-7.1h1.2v7.1zm0-8.4v-1.5h1.2v1.5zm6.3 2.1q-0.9 0-1.4 0.8-0.6 0.7-0.6 2 0 1.2 0.6 2 0.5 0.7 1.4 0.7 1 0 1.5-0.7 0.6-0.8 0.6-2 0-1.3-0.6-2-0.5-0.8-1.5-0.8zm0-1q1.6 0 2.4 1 0.9 1 0.9 2.8 0 1.7-0.9 2.7-0.8 1-2.4 1-1.5 0-2.4-1-0.8-1-0.8-2.7 0-1.8 0.8-2.8 0.9-1 2.4-1zm11.2 3v4.3h-1.2v-4.2q0-1-0.4-1.5-0.4-0.5-1.2-0.5-0.9 0-1.5 0.6-0.5 0.6-0.5 1.6v4h-1.2v-7.1h1.2v1.1q0.4-0.6 1-0.9 0.5-0.4 1.3-0.4 1.2 0 1.8 0.8 0.7 0.8 0.7 2.2zm11.1-1.7v-3.9h1.2v9.9h-1.2v-1.1q-0.4 0.7-0.9 1-0.6 0.3-1.4 0.3-1.3 0-2.1-1-0.8-1.1-0.8-2.7 0-1.7 0.8-2.7 0.8-1.1 2.1-1.1 0.8 0 1.4 0.3 0.5 0.4 0.9 1zm-4 2.5q0 1.3 0.5 2 0.6 0.7 1.5 0.7 0.9 0 1.5-0.7 0.5-0.7 0.5-2 0-1.3-0.5-2.1-0.6-0.7-1.5-0.7-0.9 0-1.5 0.7-0.5 0.8-0.5 2.1zm13.6-0.3v0.5h-5.3q0.1 1.2 0.7 1.9 0.7 0.6 1.8 0.6 0.7 0 1.3-0.2 0.7-0.1 1.3-0.5v1.2q-0.7 0.2-1.3 0.4-0.7 0.1-1.4 0.1-1.7 0-2.7-1-0.9-1-0.9-2.7 0-1.7 0.9-2.7 0.9-1.1 2.5-1.1 1.5 0 2.3 1 0.8 0.9 0.8 2.5zm-5.3-0.4h4.2q0-0.9-0.6-1.5-0.5-0.6-1.3-0.6-1 0-1.6 0.6-0.6 0.5-0.7 1.5zm7.2-4.9h1.2v2h2.4v0.9h-2.4v3.9q0 0.8 0.3 1.1 0.2 0.2 0.9 0.2h1.2v1h-1.2q-1.3 0-1.8-0.5-0.6-0.5-0.6-1.8v-3.9h-0.8v-0.9h0.8zm9.6 5.6h-1.2q-1.4 0-2 0.3-0.5 0.3-0.5 1.1 0 0.6 0.4 1 0.4 0.3 1.1 0.3 1 0 1.6-0.6 0.6-0.7 0.6-1.9zm1.1-0.5v4.1h-1.1v-1.1q-0.4 0.7-1 1-0.6 0.3-1.5 0.3-1.1 0-1.7-0.6-0.7-0.6-0.7-1.7 0-1.2 0.8-1.8 0.8-0.6 2.4-0.6h1.7v-0.1q0-0.8-0.6-1.3-0.5-0.4-1.5-0.4-0.6 0-1.2 0.2-0.5 0.1-1.1 0.4v-1.1q0.7-0.2 1.3-0.4 0.6-0.1 1.2-0.1 1.5 0 2.3 0.8 0.7 0.8 0.7 2.4zm2.4 4.1v-7.1h1.2v7.1zm0-8.4v-1.5h1.2v1.5zm3.6 8.4v-9.9h1.1v9.9zm8.2-6.9v1.1q-0.5-0.3-1-0.4-0.6-0.1-1.1-0.1-0.9 0-1.4 0.3-0.4 0.2-0.4 0.8 0 0.4 0.3 0.6 0.3 0.2 1.3 0.4l0.4 0.1q1.2 0.3 1.7 0.8 0.6 0.5 0.6 1.3 0 1-0.8 1.6-0.8 0.6-2.2 0.6-0.5 0-1.2-0.1-0.6-0.1-1.3-0.4v-1.2q0.7 0.4 1.3 0.5 0.6 0.2 1.3 0.2 0.8 0 1.2-0.3 0.5-0.3 0.5-0.8 0-0.5-0.4-0.7-0.3-0.3-1.4-0.5l-0.4-0.1q-1.1-0.2-1.5-0.7-0.5-0.5-0.5-1.3 0-1 0.7-1.5 0.7-0.6 2-0.6 0.7 0 1.2 0.1 0.6 0.1 1.1 0.3z"/>
		<path fill-rule="evenodd" class="s7" d="m431.1 166.7l-10 4 10 4-4-4z"/>
		<path fill-rule="evenodd" class="s9" d="m425.1 170.7h167.1"/>
		<path id="Institution saved" class="s4" aria-label="Institution saved"  d="m438.4 166v-9.5h1.3v9.5zm9.7-4.3v4.3h-1.2v-4.3q0-1-0.4-1.5-0.4-0.5-1.1-0.5-1 0-1.5 0.6-0.6 0.6-0.6 1.7v4h-1.2v-7.1h1.2v1.1q0.4-0.6 1-1 0.6-0.3 1.3-0.3 1.2 0 1.9 0.8 0.6 0.7 0.6 2.2zm6.9-2.6v1.1q-0.5-0.2-1.1-0.4-0.5-0.1-1.1-0.1-0.8 0-1.3 0.3-0.4 0.2-0.4 0.8 0 0.4 0.3 0.6 0.3 0.2 1.2 0.4l0.4 0.1q1.3 0.3 1.8 0.8 0.5 0.5 0.5 1.3 0 1-0.7 1.6-0.8 0.6-2.2 0.6-0.6 0-1.2-0.1-0.6-0.1-1.3-0.4v-1.2q0.7 0.4 1.3 0.5 0.6 0.2 1.2 0.2 0.9 0 1.3-0.3 0.4-0.3 0.4-0.8 0-0.4-0.3-0.7-0.3-0.3-1.4-0.5l-0.4-0.1q-1.1-0.2-1.6-0.7-0.4-0.5-0.4-1.3 0-1 0.7-1.5 0.7-0.6 2-0.6 0.6 0 1.2 0.1 0.6 0.1 1.1 0.3zm2.2-2.2h1.2v2h2.4v0.9h-2.4v3.9q0 0.8 0.2 1.1 0.2 0.2 1 0.2h1.2v1h-1.2q-1.4 0-1.9-0.5-0.5-0.5-0.5-1.8v-3.9h-0.9v-0.9h0.9zm5.1 9.1v-7.1h1.2v7.1zm0-8.4v-1.5h1.1v1.5zm3.6-0.7h1.2v2h2.4v0.9h-2.4v3.9q0 0.8 0.2 1.1 0.3 0.2 1 0.2h1.2v1h-1.2q-1.3 0-1.9-0.5-0.5-0.5-0.5-1.8v-3.9h-0.8v-0.9h0.8zm5 6.3v-4.3h1.2v4.3q0 1 0.4 1.5 0.4 0.5 1.2 0.5 0.9 0 1.5-0.6 0.5-0.6 0.5-1.6v-4.1h1.2v7.1h-1.2v-1.1q-0.4 0.7-1 1-0.5 0.3-1.3 0.3-1.2 0-1.8-0.7-0.7-0.8-0.7-2.3zm3-4.4zm5.4-1.9h1.1v2h2.4v0.9h-2.4v3.9q0 0.9 0.3 1.1 0.2 0.3 0.9 0.3h1.2v0.9h-1.2q-1.3 0-1.8-0.5-0.5-0.5-0.5-1.8v-3.9h-0.9v-0.9h0.9zm5.1 9.2v-7.2h1.1v7.2zm0-8.4v-1.5h1.2v1.5zm6.4 2.1q-1 0-1.5 0.7-0.5 0.7-0.5 2 0 1.3 0.5 2 0.5 0.7 1.5 0.7 0.9 0 1.5-0.7 0.5-0.7 0.5-2 0-1.3-0.5-2-0.6-0.7-1.5-0.7zm0-1q1.5 0 2.4 1 0.8 1 0.8 2.7 0 1.8-0.8 2.7-0.9 1-2.4 1-1.5 0-2.4-1-0.9-0.9-0.9-2.7 0-1.7 0.9-2.7 0.9-1 2.4-1zm11.1 3v4.3h-1.2v-4.3q0-1-0.4-1.5-0.4-0.5-1.2-0.5-0.9 0-1.4 0.6-0.6 0.6-0.6 1.6v4.1h-1.2v-7.2h1.2v1.2q0.4-0.7 1-1 0.6-0.3 1.3-0.3 1.2 0 1.9 0.7 0.6 0.8 0.6 2.3zm11-2.6v1.1q-0.5-0.3-1-0.4-0.6-0.1-1.1-0.1-0.9 0-1.4 0.2-0.4 0.3-0.4 0.8 0 0.4 0.3 0.7 0.3 0.2 1.3 0.4l0.4 0.1q1.2 0.3 1.7 0.7 0.6 0.5 0.6 1.4 0 1-0.8 1.6-0.8 0.5-2.2 0.5-0.5 0-1.2-0.1-0.6-0.1-1.3-0.3v-1.2q0.7 0.3 1.3 0.5 0.6 0.2 1.3 0.2 0.8 0 1.2-0.3 0.5-0.3 0.5-0.8 0-0.5-0.4-0.7-0.3-0.3-1.4-0.5l-0.4-0.1q-1.1-0.3-1.5-0.7-0.5-0.5-0.5-1.3 0-1 0.7-1.6 0.7-0.5 2-0.5 0.7 0 1.2 0.1 0.6 0.1 1.1 0.3zm6.6 3.3h-1.1q-1.5 0-2 0.3-0.6 0.3-0.6 1.1 0 0.6 0.5 1 0.4 0.4 1.1 0.4 0.9 0 1.5-0.7 0.6-0.7 0.6-1.9zm1.2-0.4v4h-1.2v-1.1q-0.4 0.7-1 1-0.6 0.3-1.4 0.3-1.1 0-1.8-0.6-0.6-0.6-0.6-1.7 0-1.2 0.8-1.8 0.8-0.6 2.4-0.6h1.6v-0.1q0-0.8-0.5-1.2-0.5-0.5-1.5-0.5-0.6 0-1.2 0.2-0.6 0.1-1.1 0.4v-1.1q0.6-0.2 1.2-0.3 0.6-0.2 1.2-0.2 1.6 0 2.3 0.8 0.8 0.8 0.8 2.5zm4.2 4l-2.6-7.1h1.2l2.2 6 2.2-6h1.3l-2.7 7.1zm12-3.8v0.5h-5.4q0.1 1.2 0.7 1.9 0.7 0.6 1.8 0.6 0.7 0 1.3-0.2 0.7-0.1 1.3-0.5v1.2q-0.6 0.2-1.3 0.4-0.7 0.1-1.3 0.1-1.7 0-2.7-1-1-1-1-2.7 0-1.7 0.9-2.7 0.9-1.1 2.5-1.1 1.5 0 2.3 1 0.9 0.9 0.9 2.5zm-5.4-0.4h4.2q0-0.9-0.6-1.5-0.5-0.6-1.3-0.6-1 0-1.6 0.6-0.6 0.5-0.7 1.5zm11.9-1.8v-3.9h1.2v9.9h-1.2v-1.1q-0.3 0.7-0.9 1-0.5 0.3-1.3 0.3-1.3 0-2.1-1-0.8-1.1-0.8-2.7 0-1.7 0.8-2.7 0.8-1.1 2.1-1.1 0.8 0 1.3 0.3 0.6 0.4 0.9 1zm-3.9 2.5q0 1.3 0.5 2 0.5 0.7 1.5 0.7 0.9 0 1.4-0.7 0.5-0.7 0.5-2 0-1.3-0.5-2.1-0.5-0.7-1.4-0.7-1 0-1.5 0.7-0.5 0.8-0.5 2.1z"/>
		<path fill-rule="evenodd" class="s7" d="m54.4 195.8l-10 4 10 4-4-4z"/>
		<path fill-rule="evenodd" class="s8" d="m48.4 199.8h365.7"/>
		<path id="Registration Confirmation" class="s4" aria-label="Registration Confirmation"  d="m66.2 190.6q0.4 0.1 0.8 0.6 0.4 0.4 0.8 1.2l1.3 2.6h-1.4l-1.2-2.4q-0.5-1-0.9-1.3-0.5-0.3-1.2-0.3h-1.4v4h-1.3v-9.5h2.9q1.6 0 2.4 0.7 0.8 0.7 0.8 2.1 0 0.8-0.4 1.4-0.4 0.6-1.2 0.9zm-1.6-4h-1.6v3.3h1.6q0.9 0 1.4-0.4 0.5-0.4 0.5-1.2 0-0.9-0.5-1.3-0.5-0.4-1.4-0.4zm11.6 4.6v0.5h-5.4q0.1 1.2 0.7 1.9 0.7 0.6 1.9 0.6 0.6 0 1.3-0.2 0.6-0.1 1.2-0.5v1.1q-0.6 0.3-1.3 0.4-0.6 0.2-1.3 0.2-1.7 0-2.7-1-1-1-1-2.7 0-1.7 0.9-2.8 1-1 2.6-1 1.4 0 2.2 0.9 0.9 1 0.9 2.6zm-5.3-0.4h4.1q0-0.9-0.5-1.5-0.5-0.6-1.4-0.6-1 0-1.6 0.6-0.6 0.5-0.6 1.5zm11.9 0.6q0-1.3-0.5-2-0.6-0.7-1.5-0.7-1 0-1.5 0.7-0.5 0.7-0.5 2 0 1.2 0.5 1.9 0.5 0.7 1.5 0.7 0.9 0 1.5-0.7 0.5-0.7 0.5-1.9zm1.1-3.5v6.2q0 1.8-0.8 2.7-0.8 0.9-2.4 0.9-0.6 0-1.2-0.1-0.5-0.1-1.1-0.3v-1.1q0.6 0.3 1.1 0.4 0.5 0.1 1 0.1 1.1 0 1.7-0.6 0.6-0.6 0.6-1.8v-0.6q-0.4 0.7-0.9 1-0.6 0.3-1.4 0.3-1.3 0-2.1-1-0.8-1-0.8-2.6 0-1.7 0.8-2.7 0.8-1 2.1-1 0.8 0 1.4 0.3 0.5 0.3 0.9 1v-1.1zm2.4 7.1v-7.1h1.2v7.1zm0-8.4v-1.5h1.1v1.5zm8.2 1.5v1.1q-0.5-0.2-1.1-0.4-0.5-0.1-1.1-0.1-0.8 0-1.3 0.3-0.4 0.2-0.4 0.8 0 0.4 0.3 0.6 0.3 0.2 1.3 0.4l0.4 0.1q1.2 0.3 1.7 0.8 0.5 0.5 0.5 1.3 0 1-0.7 1.6-0.8 0.6-2.2 0.6-0.6 0-1.2-0.1-0.6-0.1-1.3-0.4v-1.2q0.7 0.4 1.3 0.5 0.6 0.2 1.2 0.2 0.9 0 1.3-0.3 0.4-0.3 0.4-0.8 0-0.4-0.3-0.7-0.3-0.3-1.4-0.5l-0.4-0.1q-1.1-0.2-1.6-0.7-0.4-0.5-0.4-1.3 0-1 0.7-1.5 0.7-0.6 2-0.6 0.6 0 1.2 0.1 0.6 0.1 1.1 0.3zm2.2-2.2h1.2v2h2.4v0.9h-2.4v3.9q0 0.8 0.2 1.1 0.2 0.2 1 0.2h1.2v1h-1.2q-1.4 0-1.9-0.5-0.5-0.5-0.5-1.8v-3.9h-0.9v-0.9h0.9zm9.2 1.9v1.2q-0.2-0.1-0.4-0.2-0.2 0-0.5 0-1 0-1.5 0.6-0.6 0.7-0.6 1.9v3.7h-1.1v-7.1h1.1v1.1q0.4-0.6 1-0.9 0.6-0.4 1.4-0.4 0.1 0 0.3 0.1 0.1 0 0.3 0zm5.6 3.6h-1.1q-1.4 0-2 0.4-0.5 0.3-0.5 1.1 0 0.6 0.4 1 0.4 0.3 1.1 0.3 1 0 1.5-0.7 0.6-0.7 0.6-1.8zm1.2-0.5v4.1h-1.2v-1.1q-0.4 0.6-1 1-0.6 0.3-1.4 0.3-1.1 0-1.8-0.6-0.6-0.7-0.6-1.7 0-1.2 0.8-1.8 0.8-0.6 2.4-0.6h1.6v-0.1q0-0.8-0.5-1.3-0.5-0.4-1.5-0.4-0.6 0-1.2 0.1-0.5 0.2-1.1 0.5v-1.1q0.7-0.3 1.3-0.4 0.6-0.1 1.1-0.1 1.6 0 2.3 0.8 0.8 0.8 0.8 2.4zm2.4-5h1.2v2h2.4v0.9h-2.4v3.8q0 0.9 0.2 1.2 0.2 0.2 1 0.2h1.2v1h-1.2q-1.4 0-1.9-0.5-0.5-0.5-0.5-1.9v-3.8h-0.9v-0.9h0.9zm5.1 9.1v-7.1h1.2v7.1zm0-8.4v-1.5h1.1v1.5zm6.4 2.1q-0.9 0-1.5 0.7-0.5 0.8-0.5 2 0 1.3 0.5 2.1 0.6 0.7 1.5 0.7 0.9 0 1.5-0.7 0.5-0.8 0.5-2.1 0-1.2-0.5-2-0.6-0.7-1.5-0.7zm0-1q1.5 0 2.4 1 0.9 1 0.9 2.7 0 1.8-0.9 2.8-0.9 1-2.4 1-1.5 0-2.4-1-0.9-1-0.9-2.8 0-1.7 0.9-2.7 0.9-1 2.4-1zm11.1 3v4.3h-1.1v-4.3q0-1-0.4-1.5-0.4-0.5-1.2-0.5-1 0-1.5 0.6-0.6 0.6-0.6 1.7v4h-1.1v-7.1h1.1v1.1q0.5-0.6 1-1 0.6-0.3 1.3-0.3 1.3 0 1.9 0.8 0.6 0.7 0.6 2.2zm13.6-4.4v1.3q-0.6-0.6-1.4-0.9-0.7-0.3-1.5-0.3-1.6 0-2.5 1-0.9 1-0.9 2.9 0 1.8 0.9 2.8 0.9 1 2.5 1 0.8 0 1.5-0.3 0.8-0.3 1.4-0.9v1.4q-0.6 0.4-1.4 0.7-0.7 0.2-1.6 0.2-2.1 0-3.4-1.3-1.2-1.4-1.2-3.6 0-2.3 1.2-3.6 1.3-1.4 3.4-1.4 0.9 0 1.6 0.3 0.8 0.2 1.4 0.7zm4.7 2.4q-0.9 0-1.5 0.7-0.5 0.8-0.5 2 0 1.3 0.5 2.1 0.6 0.7 1.5 0.7 0.9 0 1.5-0.7 0.5-0.8 0.5-2.1 0-1.2-0.5-2-0.6-0.7-1.5-0.7zm0-1q1.5 0 2.4 1 0.9 1 0.9 2.7 0 1.8-0.9 2.8-0.9 1-2.4 1-1.5 0-2.4-1-0.8-1-0.8-2.8 0-1.7 0.8-2.7 0.9-1 2.4-1zm11.1 3v4.3h-1.1v-4.3q0-1-0.4-1.5-0.4-0.5-1.2-0.5-1 0-1.5 0.6-0.6 0.6-0.6 1.7v4h-1.1v-7.1h1.1v1.1q0.5-0.6 1-1 0.6-0.3 1.3-0.3 1.3 0 1.9 0.8 0.6 0.7 0.6 2.2zm4.8-5.6h1.2v1h-1.2q-0.6 0-0.8 0.2-0.3 0.3-0.3 1v0.6h1.9v0.9h-1.9v6.2h-1.2v-6.2h-1.1v-0.9h1.1v-0.5q0-1.2 0.6-1.7 0.5-0.6 1.7-0.6zm2.1 9.9v-7.1h1.2v7.1zm0-8.4v-1.5h1.2v1.5zm7.7 1.2v1.2q-0.2-0.1-0.4-0.2-0.3 0-0.5 0-1 0-1.6 0.6-0.5 0.6-0.5 1.9v3.7h-1.2v-7.1h1.2v1.1q0.4-0.7 1-1 0.6-0.3 1.4-0.3 0.1 0 0.3 0 0.1 0 0.3 0.1zm6.5 1.5q0.5-0.8 1.1-1.2 0.6-0.4 1.4-0.4 1.1 0 1.7 0.8 0.6 0.8 0.6 2.2v4.3h-1.1v-4.3q0-1-0.4-1.5-0.4-0.5-1.1-0.5-0.9 0-1.4 0.6-0.6 0.6-0.6 1.7v4h-1.1v-4.3q0-1-0.4-1.5-0.4-0.5-1.1-0.5-0.9 0-1.5 0.6-0.5 0.6-0.5 1.7v4h-1.2v-7.1h1.2v1.1q0.4-0.7 1-1 0.5-0.3 1.3-0.3 0.8 0 1.3 0.4 0.6 0.4 0.8 1.2zm11.5 2.1h-1.1q-1.4 0-2 0.3-0.5 0.4-0.5 1.2 0 0.6 0.4 0.9 0.4 0.4 1.1 0.4 1 0 1.6-0.7 0.5-0.7 0.5-1.8zm1.2-0.5v4.1h-1.2v-1.1q-0.4 0.6-0.9 0.9-0.6 0.3-1.5 0.3-1.1 0-1.7-0.6-0.7-0.6-0.7-1.6 0-1.2 0.8-1.8 0.8-0.6 2.4-0.6h1.6v-0.1q0-0.9-0.5-1.3-0.5-0.4-1.5-0.4-0.6 0-1.2 0.1-0.5 0.2-1.1 0.5v-1.1q0.7-0.3 1.3-0.4 0.6-0.1 1.2-0.1 1.5 0 2.3 0.8 0.7 0.8 0.7 2.4zm2.4-5.1h1.2v2h2.4v1h-2.4v3.8q0 0.9 0.2 1.1 0.3 0.3 1 0.3h1.2v1h-1.2q-1.4 0-1.9-0.5-0.5-0.6-0.5-1.9v-3.8h-0.9v-1h0.9zm5.1 9.2v-7.1h1.2v7.1zm0-8.4v-1.5h1.2v1.5zm6.3 2.1q-0.9 0-1.5 0.7-0.5 0.8-0.5 2 0 1.3 0.5 2 0.6 0.8 1.5 0.8 1 0 1.5-0.8 0.5-0.7 0.5-2 0-1.2-0.5-2-0.5-0.7-1.5-0.7zm0-1q1.5 0 2.4 1 0.9 1 0.9 2.7 0 1.8-0.9 2.8-0.9 1-2.4 1-1.5 0-2.4-1-0.8-1-0.8-2.8 0-1.7 0.8-2.7 0.9-1 2.4-1zm11.1 3v4.3h-1.1v-4.3q0-1-0.4-1.5-0.4-0.5-1.2-0.5-1 0-1.5 0.6-0.5 0.6-0.5 1.7v4h-1.2v-7.1h1.2v1.1q0.4-0.7 0.9-1 0.6-0.3 1.3-0.3 1.3 0 1.9 0.8 0.6 0.7 0.6 2.2z"/>
		<path fill-rule="evenodd" class="s7" d="m398.1 225l10 4-10 4 4-4z"/>
		<path fill-rule="evenodd" class="s8" d="m48.4 229h355.7"/>
		<path id="Login" class="s4" aria-label="Login"  d="m56.7 224v-9.5h1.3v8.4h4.6v1.1zm9.7-6.3q-0.9 0-1.5 0.7-0.5 0.8-0.5 2.1 0 1.2 0.5 2 0.6 0.7 1.5 0.7 1 0 1.5-0.7 0.5-0.8 0.5-2 0-1.3-0.5-2-0.5-0.8-1.5-0.8zm0-1q1.5 0 2.4 1 0.9 1 0.9 2.8 0 1.7-0.9 2.7-0.9 1-2.4 1-1.5 0-2.4-1-0.8-1-0.8-2.7 0-1.8 0.8-2.8 0.9-1 2.4-1zm9.9 3.7q0-1.3-0.5-2-0.6-0.7-1.5-0.7-0.9 0-1.5 0.7-0.5 0.7-0.5 2 0 1.2 0.5 1.9 0.6 0.7 1.5 0.7 0.9 0 1.5-0.7 0.5-0.7 0.5-1.9zm1.2-3.5v6.2q0 1.8-0.8 2.7-0.8 0.9-2.5 0.9-0.6 0-1.2-0.1-0.5-0.1-1-0.3v-1.1q0.5 0.3 1 0.4 0.5 0.1 1 0.1 1.2 0 1.7-0.6 0.6-0.6 0.6-1.8v-0.6q-0.4 0.7-0.9 1-0.6 0.3-1.4 0.3-1.3 0-2.1-1-0.8-1-0.8-2.6 0-1.7 0.8-2.7 0.8-1 2.1-1 0.8 0 1.4 0.3 0.5 0.3 0.9 1v-1.1zm2.4 7.1v-7.1h1.2v7.1zm0-8.4v-1.5h1.1v1.5zm9.6 4.1v4.3h-1.2v-4.3q0-1-0.4-1.5-0.4-0.5-1.2-0.5-0.9 0-1.5 0.6-0.5 0.6-0.5 1.7v4h-1.2v-7.1h1.2v1.1q0.4-0.6 1-1 0.5-0.3 1.3-0.3 1.2 0 1.8 0.8 0.7 0.7 0.7 2.2z"/>
		<path fill-rule="evenodd" class="s7" d="m581.2 254.1l10 4-10 4 4-4z"/>
		<path fill-rule="evenodd" class="s8" d="m420.1 258.1h167.1"/>
		<path id="Validate credentials" class="s4" aria-label="Validate credentials"  d="m432.3 253h-1.4l-3.7-9.5h1.4l3 8 3-8h1.3zm8.4-3.6h-1.2q-1.4 0-2 0.4-0.5 0.3-0.5 1.1 0 0.6 0.4 1 0.4 0.3 1.1 0.3 1 0 1.6-0.7 0.6-0.6 0.6-1.8zm1.1-0.5v4.1h-1.1v-1.1q-0.4 0.7-1 1-0.6 0.3-1.5 0.3-1.1 0-1.7-0.6-0.7-0.7-0.7-1.7 0-1.2 0.8-1.8 0.8-0.6 2.4-0.6h1.7v-0.1q0-0.8-0.6-1.3-0.5-0.4-1.5-0.4-0.6 0-1.1 0.1-0.6 0.2-1.2 0.5v-1.1q0.7-0.2 1.3-0.4 0.6-0.1 1.2-0.1 1.5 0 2.3 0.8 0.7 0.8 0.7 2.4zm2.4 4.1v-9.9h1.2v9.9zm3.6 0v-7.1h1.2v7.1zm0-8.4v-1.5h1.2v1.5zm8.2 2.4v-3.9h1.2v9.9h-1.2v-1.1q-0.3 0.7-0.9 1-0.6 0.3-1.3 0.3-1.3 0-2.1-1.1-0.8-1-0.8-2.7 0-1.6 0.8-2.7 0.8-1 2.1-1 0.7 0 1.3 0.3 0.6 0.3 0.9 1zm-3.9 2.4q0 1.3 0.5 2.1 0.5 0.7 1.4 0.7 1 0 1.5-0.7 0.5-0.8 0.5-2.1 0-1.3-0.5-2-0.5-0.7-1.5-0.7-0.9 0-1.4 0.7-0.5 0.7-0.5 2zm11.9 0h-1.2q-1.4 0-1.9 0.3-0.6 0.4-0.6 1.1 0 0.7 0.4 1 0.5 0.4 1.2 0.4 0.9 0 1.5-0.7 0.6-0.7 0.6-1.8zm1.2-0.5v4h-1.2v-1q-0.4 0.6-1 0.9-0.6 0.3-1.4 0.3-1.1 0-1.8-0.6-0.6-0.6-0.6-1.6 0-1.2 0.8-1.8 0.8-0.6 2.4-0.6h1.6v-0.2q0-0.8-0.5-1.2-0.6-0.4-1.5-0.4-0.6 0-1.2 0.1-0.6 0.1-1.1 0.4v-1q0.6-0.3 1.2-0.4 0.6-0.1 1.2-0.1 1.6 0 2.3 0.8 0.8 0.8 0.8 2.4zm2.4-5.1h1.1v2h2.4v0.9h-2.4v3.9q0 0.9 0.3 1.1 0.2 0.3 0.9 0.3h1.2v0.9h-1.2q-1.3 0-1.8-0.5-0.5-0.5-0.5-1.8v-3.9h-0.9v-0.9h0.9zm11.2 5.3v0.6h-5.4q0.1 1.2 0.7 1.8 0.7 0.7 1.8 0.7 0.7 0 1.3-0.2 0.7-0.2 1.3-0.5v1.1q-0.6 0.3-1.3 0.4-0.7 0.1-1.3 0.1-1.7 0-2.7-0.9-1-1-1-2.7 0-1.8 0.9-2.8 1-1 2.6-1 1.4 0 2.2 0.9 0.9 0.9 0.9 2.5zm-5.4-0.3h4.2q0-1-0.5-1.6-0.6-0.5-1.4-0.5-1 0-1.6 0.5-0.6 0.6-0.7 1.6zm16.5-2.7v1.1q-0.5-0.3-1-0.4-0.5-0.1-1-0.1-1.1 0-1.7 0.7-0.7 0.7-0.7 2 0 1.3 0.7 2 0.6 0.8 1.7 0.8 0.5 0 1-0.2 0.5-0.1 1-0.4v1.1q-0.5 0.2-1 0.3-0.5 0.1-1.1 0.1-1.6 0-2.6-1-0.9-1-0.9-2.7 0-1.7 1-2.7 0.9-1 2.6-1 0.5 0 1 0.1 0.5 0.1 1 0.3zm6.2-0.4v1.2q-0.2-0.1-0.5-0.1-0.2-0.1-0.5-0.1-1 0-1.5 0.7-0.5 0.6-0.5 1.8v3.8h-1.2v-7.1h1.2v1.1q0.4-0.7 0.9-1 0.6-0.3 1.5-0.3 0.1 0 0.2 0 0.2 0 0.4 0zm7 3.4v0.6h-5.4q0.1 1.2 0.7 1.8 0.7 0.7 1.9 0.7 0.6 0 1.3-0.2 0.6-0.2 1.2-0.5v1.1q-0.6 0.3-1.3 0.4-0.6 0.1-1.3 0.1-1.7 0-2.7-0.9-1-1-1-2.7 0-1.8 0.9-2.8 1-1 2.6-1 1.4 0 2.3 0.9 0.8 0.9 0.8 2.5zm-5.3-0.3h4.1q0-1-0.5-1.6-0.5-0.5-1.4-0.5-1 0-1.6 0.5-0.5 0.6-0.6 1.6zm11.9-1.9v-3.8h1.2v9.9h-1.2v-1.1q-0.4 0.6-0.9 0.9-0.6 0.3-1.4 0.3-1.3 0-2.1-1-0.8-1-0.8-2.7 0-1.7 0.8-2.7 0.8-1 2.1-1 0.8 0 1.4 0.3 0.5 0.3 0.9 0.9zm-4 2.5q0 1.3 0.5 2 0.6 0.8 1.5 0.8 0.9 0 1.5-0.8 0.5-0.7 0.5-2 0-1.3-0.5-2-0.6-0.7-1.5-0.7-0.9 0-1.5 0.7-0.5 0.7-0.5 2zm13.6-0.3v0.6h-5.3q0.1 1.2 0.7 1.8 0.7 0.7 1.8 0.7 0.7 0 1.3-0.2 0.7-0.2 1.3-0.5v1.1q-0.7 0.3-1.3 0.4-0.7 0.1-1.4 0.1-1.7 0-2.7-0.9-0.9-1-0.9-2.7 0-1.8 0.9-2.8 0.9-1 2.5-1 1.5 0 2.3 0.9 0.8 0.9 0.8 2.5zm-5.3-0.3h4.2q0-1-0.6-1.6-0.5-0.5-1.3-0.5-1 0-1.6 0.5-0.6 0.6-0.7 1.6zm13.2-0.1v4.3h-1.2v-4.3q0-1-0.4-1.5-0.4-0.5-1.2-0.5-0.9 0-1.5 0.6-0.5 0.6-0.5 1.6v4.1h-1.2v-7.1h1.2v1.1q0.4-0.7 1-1 0.5-0.3 1.3-0.3 1.2 0 1.8 0.7 0.7 0.8 0.7 2.3zm2.3-4.9h1.2v2.1h2.4v0.9h-2.4v3.8q0 0.9 0.2 1.1 0.2 0.3 1 0.3h1.2v1h-1.2q-1.4 0-1.9-0.5-0.5-0.5-0.5-1.9v-3.8h-0.9v-0.9h0.9zm5.1 9.1v-7.1h1.2v7.1zm0-8.4v-1.5h1.1v1.5zm8 4.8h-1.1q-1.4 0-2 0.3-0.5 0.4-0.5 1.1 0 0.7 0.4 1 0.4 0.4 1.1 0.4 1 0 1.5-0.7 0.6-0.7 0.6-1.8zm1.2-0.5v4h-1.2v-1q-0.4 0.6-1 0.9-0.6 0.3-1.4 0.3-1.1 0-1.8-0.6-0.6-0.6-0.6-1.6 0-1.2 0.8-1.8 0.8-0.6 2.4-0.6h1.6v-0.2q0-0.8-0.5-1.2-0.5-0.4-1.5-0.4-0.6 0-1.2 0.1-0.5 0.1-1.1 0.4v-1q0.7-0.3 1.3-0.4 0.6-0.1 1.1-0.1 1.6 0 2.3 0.8 0.8 0.8 0.8 2.4zm2.4 4v-9.8h1.2v9.8zm8.1-6.9v1.1q-0.5-0.2-1-0.3-0.5-0.2-1.1-0.2-0.9 0-1.3 0.3-0.4 0.3-0.4 0.8 0 0.4 0.3 0.6 0.3 0.3 1.2 0.5l0.4 0.1q1.3 0.2 1.8 0.7 0.5 0.5 0.5 1.4 0 1-0.8 1.5-0.8 0.6-2.1 0.6-0.6 0-1.2-0.1-0.6-0.1-1.3-0.3v-1.2q0.6 0.3 1.2 0.5 0.7 0.1 1.3 0.1 0.8 0 1.3-0.2 0.4-0.3 0.4-0.8 0-0.5-0.3-0.8-0.3-0.2-1.4-0.5h-0.4q-1.1-0.3-1.6-0.7-0.5-0.5-0.5-1.3 0-1 0.7-1.6 0.7-0.5 2.1-0.5 0.6 0 1.2 0.1 0.5 0.1 1 0.2z"/>
		<path fill-rule="evenodd" class="s7" d="m431.1 283.2l-10 4 10 4-4-4z"/>
		<path fill-rule="evenodd" class="s9" d="m425.1 287.2h167.1"/>
		<path id="Credentials valid" class="s4" aria-label="Credentials valid"  d="m445.5 273.3v1.3q-0.6-0.6-1.4-0.9-0.7-0.3-1.5-0.3-1.6 0-2.5 1-0.9 1-0.9 2.9 0 1.8 0.9 2.8 0.9 1 2.5 1 0.8 0 1.5-0.3 0.8-0.3 1.4-0.9v1.4q-0.7 0.4-1.4 0.7-0.8 0.2-1.6 0.2-2.1 0-3.4-1.3-1.2-1.4-1.2-3.6 0-2.3 1.2-3.6 1.3-1.3 3.4-1.3 0.9 0 1.6 0.2 0.8 0.2 1.4 0.7zm6.1 1.5v1.2q-0.2-0.1-0.5-0.2-0.2 0-0.5 0-1 0-1.5 0.6-0.5 0.6-0.5 1.9v3.7h-1.2v-7.1h1.2v1.1q0.3-0.7 0.9-1 0.6-0.3 1.5-0.3 0.1 0 0.2 0 0.2 0.1 0.4 0.1zm7 3.4v0.5h-5.4q0.1 1.2 0.7 1.9 0.7 0.6 1.9 0.6 0.6 0 1.3-0.2 0.6-0.1 1.2-0.5v1.1q-0.6 0.3-1.3 0.4-0.6 0.2-1.3 0.2-1.7 0-2.7-1-1-1-1-2.7 0-1.7 0.9-2.8 1-1 2.6-1 1.4 0 2.3 0.9 0.8 1 0.8 2.6zm-5.3-0.4h4.1q0-0.9-0.5-1.5-0.5-0.6-1.4-0.6-1 0-1.6 0.6-0.6 0.5-0.6 1.5zm11.9-1.8v-3.9h1.2v9.9h-1.2v-1.1q-0.4 0.7-0.9 1-0.6 0.3-1.4 0.3-1.3 0-2.1-1-0.8-1.1-0.8-2.7 0-1.7 0.8-2.8 0.8-1 2.1-1 0.8 0 1.4 0.3 0.5 0.3 0.9 1zm-4 2.5q0 1.2 0.5 2 0.6 0.7 1.5 0.7 0.9 0 1.5-0.7 0.5-0.8 0.5-2 0-1.3-0.5-2.1-0.6-0.7-1.5-0.7-0.9 0-1.5 0.7-0.5 0.8-0.5 2.1zm13.6-0.3v0.5h-5.3q0 1.2 0.7 1.9 0.6 0.6 1.8 0.6 0.7 0 1.3-0.2 0.6-0.1 1.3-0.5v1.1q-0.7 0.3-1.3 0.4-0.7 0.2-1.4 0.2-1.7 0-2.7-1-0.9-1-0.9-2.7 0-1.7 0.9-2.8 0.9-1 2.5-1 1.5 0 2.3 0.9 0.8 1 0.8 2.6zm-5.3-0.4h4.2q0-0.9-0.6-1.5-0.5-0.6-1.4-0.6-0.9 0-1.5 0.6-0.6 0.5-0.7 1.5zm13.2-0.1v4.3h-1.2v-4.3q0-1-0.4-1.5-0.4-0.5-1.2-0.5-0.9 0-1.5 0.6-0.5 0.6-0.5 1.7v4h-1.2v-7.1h1.2v1.1q0.4-0.6 1-1 0.5-0.3 1.3-0.3 1.2 0 1.8 0.8 0.7 0.7 0.7 2.2zm2.3-4.8h1.2v2h2.4v0.9h-2.4v3.9q0 0.8 0.2 1.1 0.2 0.2 1 0.2h1.2v1h-1.2q-1.4 0-1.9-0.5-0.5-0.5-0.5-1.8v-3.9h-0.9v-0.9h0.9zm5.1 9.1v-7.1h1.2v7.1zm0-8.4v-1.5h1.1v1.5zm8 4.8h-1.1q-1.4 0-2 0.4-0.5 0.3-0.5 1.1 0 0.6 0.4 1 0.4 0.3 1.1 0.3 1 0 1.5-0.7 0.6-0.7 0.6-1.8zm1.2-0.5v4.1h-1.2v-1.1q-0.4 0.6-1 1-0.6 0.3-1.4 0.3-1.1 0-1.8-0.6-0.6-0.7-0.6-1.7 0-1.2 0.8-1.8 0.8-0.6 2.4-0.6h1.6v-0.1q0-0.8-0.5-1.3-0.5-0.4-1.5-0.4-0.6 0-1.2 0.1-0.5 0.2-1.1 0.5v-1.1q0.7-0.3 1.3-0.4 0.6-0.1 1.1-0.1 1.6 0 2.3 0.8 0.8 0.8 0.8 2.4zm2.4 4.1v-9.9h1.2v9.9zm8.1-6.9v1.1q-0.5-0.3-1-0.4-0.5-0.1-1.1-0.1-0.9 0-1.3 0.2-0.5 0.3-0.5 0.8 0 0.4 0.4 0.7 0.3 0.2 1.2 0.4l0.4 0.1q1.3 0.3 1.8 0.8 0.5 0.4 0.5 1.3 0 1-0.8 1.6-0.8 0.6-2.1 0.6-0.6 0-1.2-0.1-0.6-0.2-1.3-0.4v-1.2q0.6 0.3 1.2 0.5 0.7 0.2 1.3 0.2 0.8 0 1.3-0.3 0.4-0.3 0.4-0.8 0-0.5-0.3-0.7-0.3-0.3-1.4-0.5l-0.4-0.1q-1.1-0.2-1.6-0.7-0.5-0.5-0.5-1.3 0-1 0.7-1.6 0.7-0.5 2-0.5 0.7 0 1.3 0.1 0.5 0.1 1 0.3zm8.2 6.9l-2.6-7.1h1.2l2.2 5.9 2.2-5.9h1.3l-2.7 7.1zm10.3-3.6h-1.2q-1.4 0-2 0.3-0.5 0.4-0.5 1.1 0 0.7 0.4 1 0.4 0.4 1.1 0.4 1 0 1.6-0.7 0.6-0.7 0.6-1.8zm1.1-0.5v4h-1.1v-1q-0.4 0.6-1 0.9-0.6 0.3-1.5 0.3-1.1 0-1.7-0.6-0.7-0.6-0.7-1.6 0-1.2 0.8-1.8 0.8-0.6 2.4-0.6h1.7v-0.2q0-0.8-0.6-1.2-0.5-0.5-1.5-0.5-0.6 0-1.1 0.2-0.6 0.1-1.2 0.4v-1q0.7-0.3 1.3-0.4 0.6-0.1 1.2-0.1 1.5 0 2.3 0.8 0.7 0.8 0.7 2.4zm2.4 4v-9.8h1.2v9.8zm3.6 0v-7.1h1.2v7.1zm0-8.4v-1.4h1.2v1.4zm8.2 2.4v-3.8h1.2v9.8h-1.2v-1q-0.3 0.6-0.9 0.9-0.5 0.3-1.3 0.3-1.3 0-2.1-1-0.8-1-0.8-2.7 0-1.7 0.8-2.7 0.8-1 2.1-1 0.8 0 1.3 0.3 0.6 0.3 0.9 0.9zm-3.9 2.5q0 1.3 0.5 2 0.5 0.7 1.5 0.7 0.9 0 1.4-0.7 0.5-0.7 0.5-2 0-1.3-0.5-2-0.5-0.8-1.4-0.8-1 0-1.5 0.8-0.5 0.7-0.5 2z"/>
		<path fill-rule="evenodd" class="s7" d="m54.4 312.4l-10 4 10 4-4-4z"/>
		<path fill-rule="evenodd" class="s8" d="m48.4 316.4h365.7"/>
		<path id="Access Dashboard" class="s4" aria-label="Access Dashboard"  d="m66.6 307.5l-1.7-4.7-1.8 4.7zm-6.1 3.5l3.7-9.5h1.4l3.6 9.5h-1.3l-0.9-2.4h-4.2l-0.9 2.4zm14.9-6.8v1.1q-0.5-0.3-1-0.5-0.5-0.1-1-0.1-1.1 0-1.8 0.7-0.6 0.8-0.6 2.1 0 1.3 0.6 2 0.7 0.7 1.8 0.7 0.5 0 1-0.1 0.5-0.2 1-0.5v1.1q-0.5 0.3-1 0.4-0.5 0.1-1.1 0.1-1.6 0-2.6-1-0.9-1-0.9-2.7 0-1.8 0.9-2.8 1-1 2.6-1 0.6 0 1.1 0.1 0.5 0.1 1 0.4zm7.1 0v1.1q-0.4-0.3-0.9-0.5-0.5-0.1-1.1-0.1-1.1 0-1.7 0.7-0.6 0.8-0.6 2.1 0 1.3 0.6 2 0.6 0.7 1.7 0.7 0.6 0 1.1-0.1 0.5-0.2 0.9-0.5v1.1q-0.4 0.3-1 0.4-0.5 0.1-1.1 0.1-1.6 0-2.5-1-1-1-1-2.7 0-1.8 1-2.8 0.9-1 2.6-1 0.5 0 1.1 0.1 0.5 0.1 0.9 0.4zm8.2 3v0.5h-5.4q0.1 1.2 0.7 1.9 0.7 0.6 1.8 0.6 0.7 0 1.3-0.2 0.7-0.1 1.3-0.5v1.1q-0.6 0.3-1.3 0.4-0.7 0.2-1.3 0.2-1.7 0-2.7-1-1-1-1-2.7 0-1.7 0.9-2.8 1-1 2.6-1 1.4 0 2.2 0.9 0.9 1 0.9 2.6zm-5.4-0.4h4.2q0-0.9-0.5-1.5-0.6-0.6-1.4-0.6-1 0-1.6 0.6-0.6 0.5-0.7 1.5zm11.8-2.7v1.1q-0.5-0.2-1-0.4-0.6-0.1-1.1-0.1-0.9 0-1.3 0.3-0.5 0.2-0.5 0.8 0 0.4 0.3 0.6 0.4 0.2 1.3 0.4l0.4 0.1q1.2 0.3 1.8 0.8 0.5 0.5 0.5 1.3 0 1-0.8 1.6-0.8 0.6-2.1 0.6-0.6 0-1.2-0.1-0.7-0.1-1.3-0.4v-1.2q0.6 0.4 1.2 0.5 0.7 0.2 1.3 0.2 0.8 0 1.2-0.3 0.5-0.3 0.5-0.8 0-0.4-0.3-0.7-0.4-0.3-1.4-0.5l-0.4-0.1q-1.1-0.2-1.6-0.7-0.5-0.5-0.5-1.3 0-1 0.7-1.5 0.7-0.6 2-0.6 0.7 0 1.3 0.1 0.5 0.1 1 0.3zm6.8 0v1.1q-0.5-0.2-1-0.4-0.6-0.1-1.2-0.1-0.8 0-1.3 0.3-0.4 0.2-0.4 0.8 0 0.4 0.3 0.6 0.3 0.2 1.3 0.4l0.4 0.1q1.2 0.3 1.7 0.8 0.6 0.5 0.6 1.3 0 1-0.8 1.6-0.8 0.6-2.2 0.6-0.5 0-1.2-0.1-0.6-0.1-1.3-0.4v-1.2q0.7 0.4 1.3 0.5 0.6 0.2 1.2 0.2 0.9 0 1.3-0.3 0.5-0.3 0.5-0.8 0-0.4-0.4-0.7-0.3-0.3-1.4-0.5l-0.4-0.1q-1.1-0.2-1.5-0.7-0.5-0.5-0.5-1.3 0-1 0.7-1.5 0.7-0.6 2-0.6 0.7 0 1.2 0.1 0.6 0.1 1.1 0.3zm9.2-1.5h-1.5v7.3h1.5q2 0 2.9-0.8 0.9-0.9 0.9-2.8 0-2-0.9-2.8-0.9-0.9-2.9-0.9zm-2.8 8.4v-9.5h2.6q2.8 0 4.1 1.2 1.3 1.1 1.3 3.6 0 2.4-1.3 3.6-1.3 1.1-4.1 1.1zm14.4-3.6h-1.2q-1.4 0-1.9 0.3-0.6 0.4-0.6 1.2 0 0.6 0.4 0.9 0.4 0.4 1.1 0.4 1 0 1.6-0.7 0.6-0.7 0.6-1.8zm1.2-0.5v4.1h-1.2v-1.1q-0.4 0.6-1 0.9-0.6 0.3-1.5 0.3-1.1 0-1.7-0.6-0.6-0.6-0.6-1.6 0-1.2 0.8-1.8 0.8-0.6 2.4-0.6h1.6v-0.1q0-0.8-0.5-1.3-0.6-0.4-1.5-0.4-0.6 0-1.2 0.1-0.6 0.2-1.1 0.5v-1.1q0.6-0.3 1.2-0.4 0.6-0.1 1.2-0.1 1.5 0 2.3 0.8 0.8 0.8 0.8 2.4zm6.9-2.8v1.1q-0.5-0.3-1-0.4-0.6-0.1-1.1-0.1-0.9 0-1.3 0.2-0.5 0.3-0.5 0.8 0 0.4 0.3 0.7 0.3 0.2 1.3 0.4l0.4 0.1q1.2 0.3 1.8 0.7 0.5 0.5 0.5 1.4 0 1-0.8 1.6-0.8 0.5-2.2 0.5-0.5 0-1.2-0.1-0.6-0.1-1.3-0.3v-1.2q0.7 0.3 1.3 0.5 0.6 0.2 1.3 0.2 0.8 0 1.2-0.3 0.5-0.3 0.5-0.8 0-0.5-0.3-0.7-0.4-0.3-1.4-0.5l-0.5-0.1q-1-0.3-1.5-0.7-0.5-0.5-0.5-1.3 0-1 0.7-1.6 0.7-0.5 2-0.5 0.7 0 1.2 0.1 0.6 0.1 1.1 0.3zm8.1 2.6v4.3h-1.1v-4.3q0-1-0.4-1.5-0.4-0.5-1.2-0.5-0.9 0-1.5 0.6-0.5 0.6-0.5 1.6v4.1h-1.2v-9.9h1.2v3.9q0.4-0.7 1-1 0.5-0.3 1.3-0.3 1.2 0 1.8 0.7 0.6 0.8 0.6 2.3zm7.5 0.7q0-1.3-0.6-2-0.5-0.7-1.4-0.7-0.9 0-1.5 0.7-0.5 0.7-0.5 2 0 1.3 0.5 2 0.6 0.8 1.5 0.8 0.9 0 1.4-0.8 0.6-0.7 0.6-2zm-4-6.3v3.8q0.4-0.6 0.9-0.9 0.6-0.3 1.4-0.3 1.3 0 2.1 1 0.8 1 0.8 2.7 0 1.7-0.8 2.7-0.8 1-2.1 1-0.8 0-1.4-0.3-0.5-0.3-0.9-0.9v1.1h-1.2v-9.9zm9.9 3.6q-0.9 0-1.5 0.7-0.5 0.7-0.5 2 0 1.3 0.5 2 0.6 0.8 1.5 0.8 0.9 0 1.5-0.8 0.5-0.7 0.5-2 0-1.3-0.5-2-0.6-0.7-1.5-0.7zm0-1q1.5 0 2.4 1 0.9 1 0.9 2.7 0 1.8-0.9 2.8-0.9 0.9-2.4 0.9-1.5 0-2.4-0.9-0.9-1-0.9-2.8 0-1.7 0.9-2.7 0.9-1 2.4-1zm9.6 3.7h-1.2q-1.4 0-1.9 0.3-0.6 0.3-0.6 1.1 0 0.6 0.4 1 0.5 0.4 1.2 0.4 0.9 0 1.5-0.7 0.6-0.7 0.6-1.9zm1.2-0.4v4h-1.2v-1.1q-0.4 0.7-1 1-0.6 0.3-1.5 0.3-1 0-1.7-0.6-0.6-0.6-0.6-1.6 0-1.2 0.8-1.9 0.8-0.6 2.4-0.6h1.6v-0.1q0-0.8-0.5-1.2-0.6-0.5-1.5-0.5-0.6 0-1.2 0.2-0.6 0.1-1.1 0.4v-1.1q0.6-0.2 1.2-0.3 0.6-0.2 1.2-0.2 1.5 0 2.3 0.8 0.8 0.8 0.8 2.5zm6.5-3.2v1.2q-0.2-0.1-0.4-0.2-0.3 0-0.5 0-1 0-1.6 0.6-0.5 0.7-0.5 1.9v3.7h-1.2v-7.1h1.2v1.1q0.4-0.6 1-0.9 0.6-0.4 1.4-0.4 0.1 0 0.3 0.1 0.1 0 0.3 0zm5.7 1.2v-3.9h1.1v9.9h-1.1v-1q-0.4 0.6-1 0.9-0.5 0.3-1.3 0.3-1.3 0-2.1-1-0.8-1.1-0.8-2.7 0-1.7 0.8-2.7 0.8-1.1 2.1-1.1 0.8 0 1.3 0.4 0.6 0.3 1 0.9zm-4 2.5q0 1.3 0.5 2 0.6 0.7 1.5 0.7 0.9 0 1.4-0.7 0.6-0.7 0.6-2 0-1.3-0.6-2-0.5-0.8-1.4-0.8-0.9 0-1.5 0.8-0.5 0.7-0.5 2z"/>
		<path fill-rule="evenodd" class="s7" d="m398.1 341.5l10 4-10 4 4-4z"/>
		<path fill-rule="evenodd" class="s8" d="m127.4 345.5h276.7"/>
		<path id="Login" class="s4" aria-label="Login"  d="m135.7 340v-9.5h1.3v8.4h4.6v1.1zm9.7-6.3q-0.9 0-1.5 0.7-0.5 0.8-0.5 2.1 0 1.2 0.5 2 0.6 0.7 1.5 0.7 0.9 0 1.5-0.7 0.5-0.8 0.5-2 0-1.3-0.5-2-0.6-0.8-1.5-0.8zm0-1q1.5 0 2.4 1 0.9 1 0.9 2.8 0 1.7-0.9 2.7-0.9 1-2.4 1-1.5 0-2.4-1-0.9-1-0.9-2.7 0-1.8 0.9-2.8 0.9-1 2.4-1zm9.9 3.7q0-1.3-0.5-2-0.6-0.7-1.5-0.7-1 0-1.5 0.7-0.5 0.7-0.5 2 0 1.2 0.5 1.9 0.5 0.7 1.5 0.7 0.9 0 1.5-0.7 0.5-0.7 0.5-1.9zm1.1-3.5v6.2q0 1.8-0.8 2.7-0.8 0.9-2.4 0.9-0.6 0-1.2-0.1-0.5-0.1-1.1-0.3v-1.1q0.6 0.3 1.1 0.4 0.5 0.1 1 0.1 1.1 0 1.7-0.6 0.6-0.6 0.6-1.8v-0.6q-0.4 0.7-0.9 1-0.6 0.3-1.4 0.3-1.3 0-2.1-1-0.8-1-0.8-2.6 0-1.7 0.8-2.7 0.8-1 2.1-1 0.8 0 1.4 0.3 0.5 0.3 0.9 1v-1.1zm2.4 7.1v-7.1h1.2v7.1zm0-8.4v-1.5h1.1v1.5zm9.5 4.1v4.3h-1.1v-4.3q0-1-0.4-1.5-0.4-0.5-1.2-0.5-0.9 0-1.5 0.6-0.5 0.6-0.5 1.7v4h-1.2v-7.1h1.2v1.1q0.4-0.6 0.9-1 0.6-0.3 1.4-0.3 1.2 0 1.8 0.8 0.6 0.7 0.6 2.2z"/>
		<path fill-rule="evenodd" class="s7" d="m581.2 370.6l10 4-10 4 4-4z"/>
		<path fill-rule="evenodd" class="s8" d="m420.1 374.6h167.1"/>
		<path id="Validate credentials" class="s4" aria-label="Validate credentials"  d="m432.3 370h-1.4l-3.7-9.5h1.4l3 8 3-8h1.3zm8.4-3.6h-1.2q-1.4 0-2 0.4-0.5 0.3-0.5 1.1 0 0.6 0.4 1 0.4 0.3 1.1 0.3 1 0 1.6-0.7 0.6-0.6 0.6-1.8zm1.1-0.5v4.1h-1.1v-1.1q-0.4 0.7-1 1-0.6 0.3-1.5 0.3-1.1 0-1.7-0.6-0.7-0.7-0.7-1.7 0-1.2 0.8-1.8 0.8-0.6 2.4-0.6h1.7v-0.1q0-0.8-0.6-1.3-0.5-0.4-1.5-0.4-0.6 0-1.1 0.1-0.6 0.2-1.2 0.5v-1.1q0.7-0.2 1.3-0.4 0.6-0.1 1.2-0.1 1.5 0 2.3 0.8 0.7 0.8 0.7 2.4zm2.4 4.1v-9.9h1.2v9.9zm3.6 0v-7.1h1.2v7.1zm0-8.4v-1.5h1.2v1.5zm8.2 2.4v-3.9h1.2v9.9h-1.2v-1.1q-0.3 0.7-0.9 1-0.6 0.3-1.3 0.3-1.3 0-2.1-1.1-0.8-1-0.8-2.7 0-1.6 0.8-2.7 0.8-1 2.1-1 0.7 0 1.3 0.3 0.6 0.3 0.9 1zm-3.9 2.4q0 1.3 0.5 2.1 0.5 0.7 1.4 0.7 1 0 1.5-0.7 0.5-0.8 0.5-2.1 0-1.3-0.5-2-0.5-0.7-1.5-0.7-0.9 0-1.4 0.7-0.5 0.7-0.5 2zm11.9 0h-1.2q-1.4 0-1.9 0.3-0.6 0.4-0.6 1.1 0 0.7 0.4 1 0.5 0.4 1.2 0.4 0.9 0 1.5-0.7 0.6-0.7 0.6-1.8zm1.2-0.5v4h-1.2v-1q-0.4 0.6-1 0.9-0.6 0.3-1.4 0.3-1.1 0-1.8-0.6-0.6-0.6-0.6-1.6 0-1.2 0.8-1.8 0.8-0.6 2.4-0.6h1.6v-0.2q0-0.8-0.5-1.2-0.6-0.4-1.5-0.4-0.6 0-1.2 0.1-0.6 0.1-1.1 0.4v-1q0.6-0.3 1.2-0.4 0.6-0.1 1.2-0.1 1.6 0 2.3 0.8 0.8 0.8 0.8 2.4zm2.4-5.1h1.1v2h2.4v0.9h-2.4v3.9q0 0.9 0.3 1.1 0.2 0.3 0.9 0.3h1.2v0.9h-1.2q-1.3 0-1.8-0.5-0.5-0.5-0.5-1.8v-3.9h-0.9v-0.9h0.9zm11.2 5.3v0.6h-5.4q0.1 1.2 0.7 1.8 0.7 0.7 1.8 0.7 0.7 0 1.3-0.2 0.7-0.2 1.3-0.5v1.1q-0.6 0.3-1.3 0.4-0.7 0.1-1.3 0.1-1.7 0-2.7-0.9-1-1-1-2.7 0-1.8 0.9-2.8 1-1 2.6-1 1.4 0 2.2 0.9 0.9 0.9 0.9 2.5zm-5.4-0.3h4.2q0-1-0.5-1.6-0.6-0.5-1.4-0.5-1 0-1.6 0.5-0.6 0.6-0.7 1.6zm16.5-2.7v1.1q-0.5-0.3-1-0.4-0.5-0.1-1-0.1-1.1 0-1.7 0.7-0.7 0.7-0.7 2 0 1.3 0.7 2 0.6 0.8 1.7 0.8 0.5 0 1-0.2 0.5-0.1 1-0.4v1.1q-0.5 0.2-1 0.3-0.5 0.1-1.1 0.1-1.6 0-2.6-1-0.9-1-0.9-2.7 0-1.7 1-2.7 0.9-1 2.6-1 0.5 0 1 0.1 0.5 0.1 1 0.3zm6.2-0.4v1.2q-0.2-0.1-0.5-0.1-0.2-0.1-0.5-0.1-1 0-1.5 0.7-0.5 0.6-0.5 1.8v3.8h-1.2v-7.1h1.2v1.1q0.4-0.7 0.9-1 0.6-0.3 1.5-0.3 0.1 0 0.2 0 0.2 0 0.4 0zm7 3.4v0.6h-5.4q0.1 1.2 0.7 1.8 0.7 0.7 1.9 0.7 0.6 0 1.3-0.2 0.6-0.2 1.2-0.5v1.1q-0.6 0.3-1.3 0.4-0.6 0.1-1.3 0.1-1.7 0-2.7-0.9-1-1-1-2.7 0-1.8 0.9-2.8 1-1 2.6-1 1.4 0 2.3 0.9 0.8 0.9 0.8 2.5zm-5.3-0.3h4.1q0-1-0.5-1.6-0.5-0.5-1.4-0.5-1 0-1.6 0.5-0.5 0.6-0.6 1.6zm11.9-1.9v-3.8h1.2v9.9h-1.2v-1.1q-0.4 0.6-0.9 0.9-0.6 0.3-1.4 0.3-1.3 0-2.1-1-0.8-1-0.8-2.7 0-1.7 0.8-2.7 0.8-1 2.1-1 0.8 0 1.4 0.3 0.5 0.3 0.9 0.9zm-4 2.5q0 1.3 0.5 2 0.6 0.8 1.5 0.8 0.9 0 1.5-0.8 0.5-0.7 0.5-2 0-1.3-0.5-2-0.6-0.7-1.5-0.7-0.9 0-1.5 0.7-0.5 0.7-0.5 2zm13.6-0.3v0.6h-5.3q0.1 1.2 0.7 1.8 0.7 0.7 1.8 0.7 0.7 0 1.3-0.2 0.7-0.2 1.3-0.5v1.1q-0.7 0.3-1.3 0.4-0.7 0.1-1.4 0.1-1.7 0-2.7-0.9-0.9-1-0.9-2.7 0-1.8 0.9-2.8 0.9-1 2.5-1 1.5 0 2.3 0.9 0.8 0.9 0.8 2.5zm-5.3-0.3h4.2q0-1-0.6-1.6-0.5-0.5-1.3-0.5-1 0-1.6 0.5-0.6 0.6-0.7 1.6zm13.2-0.1v4.3h-1.2v-4.3q0-1-0.4-1.5-0.4-0.5-1.2-0.5-0.9 0-1.5 0.6-0.5 0.6-0.5 1.6v4.1h-1.2v-7.1h1.2v1.1q0.4-0.7 1-1 0.5-0.3 1.3-0.3 1.2 0 1.8 0.7 0.7 0.8 0.7 2.3zm2.3-4.9h1.2v2.1h2.4v0.9h-2.4v3.8q0 0.9 0.2 1.1 0.2 0.3 1 0.3h1.2v1h-1.2q-1.4 0-1.9-0.5-0.5-0.5-0.5-1.9v-3.8h-0.9v-0.9h0.9zm5.1 9.1v-7.1h1.2v7.1zm0-8.4v-1.5h1.1v1.5zm8 4.8h-1.1q-1.4 0-2 0.3-0.5 0.4-0.5 1.1 0 0.7 0.4 1 0.4 0.4 1.1 0.4 1 0 1.5-0.7 0.6-0.7 0.6-1.8zm1.2-0.5v4h-1.2v-1q-0.4 0.6-1 0.9-0.6 0.3-1.4 0.3-1.1 0-1.8-0.6-0.6-0.6-0.6-1.6 0-1.2 0.8-1.8 0.8-0.6 2.4-0.6h1.6v-0.2q0-0.8-0.5-1.2-0.5-0.4-1.5-0.4-0.6 0-1.2 0.1-0.5 0.1-1.1 0.4v-1q0.7-0.3 1.3-0.4 0.6-0.1 1.1-0.1 1.6 0 2.3 0.8 0.8 0.8 0.8 2.4zm2.4 4v-9.8h1.2v9.8zm8.1-6.9v1.1q-0.5-0.2-1-0.3-0.5-0.2-1.1-0.2-0.9 0-1.3 0.3-0.4 0.3-0.4 0.8 0 0.4 0.3 0.6 0.3 0.3 1.2 0.5l0.4 0.1q1.3 0.2 1.8 0.7 0.5 0.5 0.5 1.4 0 1-0.8 1.5-0.8 0.6-2.1 0.6-0.6 0-1.2-0.1-0.6-0.1-1.3-0.3v-1.2q0.6 0.3 1.2 0.5 0.7 0.1 1.3 0.1 0.8 0 1.3-0.2 0.4-0.3 0.4-0.8 0-0.5-0.3-0.8-0.3-0.2-1.4-0.5h-0.4q-1.1-0.3-1.6-0.7-0.5-0.5-0.5-1.3 0-1 0.7-1.6 0.7-0.5 2.1-0.5 0.6 0 1.2 0.1 0.5 0.1 1 0.2z"/>
		<path fill-rule="evenodd" class="s7" d="m431.1 399.8l-10 4 10 4-4-4z"/>
		<path fill-rule="evenodd" class="s9" d="m425.1 403.8h167.1"/>
		<path id="Credentials valid" class="s4" aria-label="Credentials valid"  d="m445.5 390.3v1.3q-0.6-0.6-1.4-0.9-0.7-0.3-1.5-0.3-1.6 0-2.5 1-0.9 1-0.9 2.9 0 1.8 0.9 2.8 0.9 1 2.5 1 0.8 0 1.5-0.3 0.8-0.3 1.4-0.9v1.4q-0.7 0.4-1.4 0.7-0.8 0.2-1.6 0.2-2.1 0-3.4-1.3-1.2-1.4-1.2-3.6 0-2.3 1.2-3.6 1.3-1.3 3.4-1.3 0.9 0 1.6 0.2 0.8 0.2 1.4 0.7zm6.1 1.5v1.2q-0.2-0.1-0.5-0.2-0.2 0-0.5 0-1 0-1.5 0.6-0.5 0.6-0.5 1.9v3.7h-1.2v-7.1h1.2v1.1q0.3-0.7 0.9-1 0.6-0.3 1.5-0.3 0.1 0 0.2 0 0.2 0.1 0.4 0.1zm7 3.4v0.5h-5.4q0.1 1.2 0.7 1.9 0.7 0.6 1.9 0.6 0.6 0 1.3-0.2 0.6-0.1 1.2-0.5v1.1q-0.6 0.3-1.3 0.4-0.6 0.2-1.3 0.2-1.7 0-2.7-1-1-1-1-2.7 0-1.7 0.9-2.8 1-1 2.6-1 1.4 0 2.3 0.9 0.8 1 0.8 2.6zm-5.3-0.4h4.1q0-0.9-0.5-1.5-0.5-0.6-1.4-0.6-1 0-1.6 0.6-0.6 0.5-0.6 1.5zm11.9-1.8v-3.9h1.2v9.9h-1.2v-1.1q-0.4 0.7-0.9 1-0.6 0.3-1.4 0.3-1.3 0-2.1-1-0.8-1.1-0.8-2.7 0-1.7 0.8-2.8 0.8-1 2.1-1 0.8 0 1.4 0.3 0.5 0.3 0.9 1zm-4 2.5q0 1.2 0.5 2 0.6 0.7 1.5 0.7 0.9 0 1.5-0.7 0.5-0.8 0.5-2 0-1.3-0.5-2.1-0.6-0.7-1.5-0.7-0.9 0-1.5 0.7-0.5 0.8-0.5 2.1zm13.6-0.3v0.5h-5.3q0 1.2 0.7 1.9 0.6 0.6 1.8 0.6 0.7 0 1.3-0.2 0.6-0.1 1.3-0.5v1.1q-0.7 0.3-1.3 0.4-0.7 0.2-1.4 0.2-1.7 0-2.7-1-0.9-1-0.9-2.7 0-1.7 0.9-2.8 0.9-1 2.5-1 1.5 0 2.3 0.9 0.8 1 0.8 2.6zm-5.3-0.4h4.2q0-0.9-0.6-1.5-0.5-0.6-1.4-0.6-0.9 0-1.5 0.6-0.6 0.5-0.7 1.5zm13.2-0.1v4.3h-1.2v-4.3q0-1-0.4-1.5-0.4-0.5-1.2-0.5-0.9 0-1.5 0.6-0.5 0.6-0.5 1.7v4h-1.2v-7.1h1.2v1.1q0.4-0.6 1-1 0.5-0.3 1.3-0.3 1.2 0 1.8 0.8 0.7 0.7 0.7 2.2zm2.3-4.8h1.2v2h2.4v0.9h-2.4v3.9q0 0.8 0.2 1.1 0.2 0.2 1 0.2h1.2v1h-1.2q-1.4 0-1.9-0.5-0.5-0.5-0.5-1.8v-3.9h-0.9v-0.9h0.9zm5.1 9.1v-7.1h1.2v7.1zm0-8.4v-1.5h1.1v1.5zm8 4.8h-1.1q-1.4 0-2 0.4-0.5 0.3-0.5 1.1 0 0.6 0.4 1 0.4 0.3 1.1 0.3 1 0 1.5-0.7 0.6-0.7 0.6-1.8zm1.2-0.5v4.1h-1.2v-1.1q-0.4 0.6-1 1-0.6 0.3-1.4 0.3-1.1 0-1.8-0.6-0.6-0.7-0.6-1.7 0-1.2 0.8-1.8 0.8-0.6 2.4-0.6h1.6v-0.1q0-0.8-0.5-1.3-0.5-0.4-1.5-0.4-0.6 0-1.2 0.1-0.5 0.2-1.1 0.5v-1.1q0.7-0.3 1.3-0.4 0.6-0.1 1.1-0.1 1.6 0 2.3 0.8 0.8 0.8 0.8 2.4zm2.4 4.1v-9.9h1.2v9.9zm8.1-6.9v1.1q-0.5-0.3-1-0.4-0.5-0.1-1.1-0.1-0.9 0-1.3 0.2-0.5 0.3-0.5 0.8 0 0.4 0.4 0.7 0.3 0.2 1.2 0.4l0.4 0.1q1.3 0.3 1.8 0.8 0.5 0.4 0.5 1.3 0 1-0.8 1.6-0.8 0.6-2.1 0.6-0.6 0-1.2-0.1-0.6-0.2-1.3-0.4v-1.2q0.6 0.3 1.2 0.5 0.7 0.2 1.3 0.2 0.8 0 1.3-0.3 0.4-0.3 0.4-0.8 0-0.5-0.3-0.7-0.3-0.3-1.4-0.5l-0.4-0.1q-1.1-0.2-1.6-0.7-0.5-0.5-0.5-1.3 0-1 0.7-1.6 0.7-0.5 2-0.5 0.7 0 1.3 0.1 0.5 0.1 1 0.3zm8.2 6.9l-2.6-7.1h1.2l2.2 5.9 2.2-5.9h1.3l-2.7 7.1zm10.3-3.6h-1.2q-1.4 0-2 0.3-0.5 0.4-0.5 1.1 0 0.7 0.4 1 0.4 0.4 1.1 0.4 1 0 1.6-0.7 0.6-0.7 0.6-1.8zm1.1-0.5v4h-1.1v-1q-0.4 0.6-1 0.9-0.6 0.3-1.5 0.3-1.1 0-1.7-0.6-0.7-0.6-0.7-1.6 0-1.2 0.8-1.8 0.8-0.6 2.4-0.6h1.7v-0.2q0-0.8-0.6-1.2-0.5-0.5-1.5-0.5-0.6 0-1.1 0.2-0.6 0.1-1.2 0.4v-1q0.7-0.3 1.3-0.4 0.6-0.1 1.2-0.1 1.5 0 2.3 0.8 0.7 0.8 0.7 2.4zm2.4 4v-9.8h1.2v9.8zm3.6 0v-7.1h1.2v7.1zm0-8.4v-1.4h1.2v1.4zm8.2 2.4v-3.8h1.2v9.8h-1.2v-1q-0.3 0.6-0.9 0.9-0.5 0.3-1.3 0.3-1.3 0-2.1-1-0.8-1-0.8-2.7 0-1.7 0.8-2.7 0.8-1 2.1-1 0.8 0 1.3 0.3 0.6 0.3 0.9 0.9zm-3.9 2.5q0 1.3 0.5 2 0.5 0.7 1.5 0.7 0.9 0 1.4-0.7 0.5-0.7 0.5-2 0-1.3-0.5-2-0.5-0.8-1.4-0.8-1 0-1.5 0.8-0.5 0.7-0.5 2z"/>
		<path fill-rule="evenodd" class="s7" d="m133.4 428.9l-10 4 10 4-4-4z"/>
		<path fill-rule="evenodd" class="s8" d="m127.4 432.9h286.7"/>
		<path id="Access Dashboard" class="s4" aria-label="Access Dashboard"  d="m145.6 424.5l-1.7-4.7-1.8 4.7zm-6.1 3.5l3.6-9.5h1.5l3.6 9.5h-1.3l-0.9-2.4h-4.3l-0.8 2.4zm14.9-6.8v1.1q-0.5-0.3-1-0.5-0.5-0.1-1-0.1-1.2 0-1.8 0.7-0.6 0.8-0.6 2.1 0 1.3 0.6 2 0.6 0.7 1.8 0.7 0.5 0 1-0.1 0.5-0.2 1-0.5v1.1q-0.5 0.3-1 0.4-0.6 0.1-1.1 0.1-1.6 0-2.6-1-0.9-1-0.9-2.7 0-1.8 0.9-2.8 1-1 2.6-1 0.6 0 1.1 0.1 0.5 0.1 1 0.4zm7.1 0v1.1q-0.5-0.3-1-0.5-0.5-0.1-1-0.1-1.1 0-1.7 0.7-0.7 0.8-0.7 2.1 0 1.3 0.7 2 0.6 0.7 1.7 0.7 0.5 0 1-0.1 0.5-0.2 1-0.5v1.1q-0.5 0.3-1 0.4-0.5 0.1-1.1 0.1-1.6 0-2.5-1-1-1-1-2.7 0-1.8 1-2.8 0.9-1 2.6-1 0.5 0 1 0.1 0.5 0.1 1 0.4zm8.1 3v0.5h-5.3q0 1.2 0.7 1.9 0.7 0.6 1.8 0.6 0.7 0 1.3-0.2 0.6-0.1 1.3-0.5v1.1q-0.7 0.3-1.3 0.4-0.7 0.2-1.4 0.2-1.7 0-2.7-1-0.9-1-0.9-2.7 0-1.7 0.9-2.8 0.9-1 2.5-1 1.5 0 2.3 0.9 0.8 1 0.8 2.6zm-5.3-0.4h4.2q0-0.9-0.6-1.5-0.5-0.6-1.3-0.6-1 0-1.6 0.6-0.6 0.5-0.7 1.5zm11.8-2.7v1.1q-0.5-0.2-1-0.4-0.6-0.1-1.1-0.1-0.9 0-1.3 0.3-0.5 0.2-0.5 0.8 0 0.4 0.3 0.6 0.3 0.2 1.3 0.4l0.4 0.1q1.2 0.3 1.7 0.8 0.6 0.5 0.6 1.3 0 1-0.8 1.6-0.8 0.6-2.2 0.6-0.5 0-1.2-0.1-0.6-0.1-1.3-0.4v-1.2q0.7 0.4 1.3 0.5 0.6 0.2 1.3 0.2 0.8 0 1.2-0.3 0.5-0.3 0.5-0.8 0-0.4-0.4-0.7-0.3-0.3-1.4-0.5l-0.4-0.1q-1-0.2-1.5-0.7-0.5-0.5-0.5-1.3 0-1 0.7-1.5 0.7-0.6 2-0.6 0.7 0 1.2 0.1 0.6 0.1 1.1 0.3zm6.8 0v1.1q-0.5-0.2-1.1-0.4-0.5-0.1-1.1-0.1-0.8 0-1.3 0.3-0.4 0.2-0.4 0.8 0 0.4 0.3 0.6 0.3 0.2 1.3 0.4l0.4 0.1q1.2 0.3 1.7 0.8 0.5 0.5 0.5 1.3 0 1-0.7 1.6-0.8 0.6-2.2 0.6-0.6 0-1.2-0.1-0.6-0.1-1.3-0.4v-1.2q0.7 0.4 1.3 0.5 0.6 0.2 1.2 0.2 0.9 0 1.3-0.3 0.4-0.3 0.4-0.8 0-0.4-0.3-0.7-0.3-0.3-1.4-0.5l-0.4-0.1q-1.1-0.2-1.6-0.7-0.4-0.5-0.4-1.3 0-1 0.7-1.5 0.7-0.6 2-0.6 0.6 0 1.2 0.1 0.6 0.1 1.1 0.3zm9.2-1.5h-1.5v7.3h1.5q2 0 2.9-0.8 0.9-0.9 0.9-2.8 0-2-0.9-2.8-0.9-0.9-2.9-0.9zm-2.8 8.4v-9.5h2.6q2.8 0 4.1 1.2 1.3 1.1 1.3 3.6 0 2.4-1.3 3.6-1.3 1.1-4.1 1.1zm14.4-3.6h-1.2q-1.4 0-1.9 0.3-0.6 0.4-0.6 1.2 0 0.6 0.4 0.9 0.4 0.4 1.1 0.4 1 0 1.6-0.7 0.6-0.7 0.6-1.8zm1.1-0.5v4.1h-1.1v-1.1q-0.4 0.6-1 0.9-0.6 0.3-1.5 0.3-1.1 0-1.7-0.6-0.7-0.6-0.7-1.6 0-1.2 0.8-1.8 0.8-0.6 2.4-0.6h1.7v-0.1q0-0.8-0.6-1.3-0.5-0.4-1.4-0.4-0.7 0-1.2 0.1-0.6 0.2-1.1 0.5v-1.1q0.6-0.3 1.2-0.4 0.6-0.1 1.2-0.1 1.5 0 2.3 0.8 0.7 0.8 0.7 2.4zm7-2.8v1.1q-0.5-0.3-1-0.4-0.6-0.1-1.2-0.1-0.8 0-1.3 0.2-0.4 0.3-0.4 0.8 0 0.4 0.3 0.7 0.3 0.2 1.3 0.4l0.4 0.1q1.2 0.3 1.7 0.7 0.6 0.5 0.6 1.4 0 1-0.8 1.6-0.8 0.5-2.2 0.5-0.5 0-1.2-0.1-0.6-0.1-1.3-0.3v-1.2q0.7 0.3 1.3 0.5 0.6 0.2 1.2 0.2 0.9 0 1.3-0.3 0.5-0.3 0.5-0.8 0-0.5-0.4-0.7-0.3-0.3-1.4-0.5l-0.4-0.1q-1.1-0.3-1.5-0.7-0.5-0.5-0.5-1.3 0-1 0.7-1.6 0.7-0.5 2-0.5 0.7 0 1.2 0.1 0.6 0.1 1.1 0.3zm8.1 2.6v4.3h-1.1v-4.3q0-1-0.4-1.5-0.4-0.5-1.2-0.5-1 0-1.5 0.6-0.5 0.6-0.5 1.6v4.1h-1.2v-9.9h1.2v3.9q0.4-0.7 0.9-1 0.6-0.3 1.3-0.3 1.3 0 1.9 0.7 0.6 0.8 0.6 2.3zm7.5 0.7q0-1.3-0.6-2-0.5-0.7-1.4-0.7-0.9 0-1.5 0.7-0.5 0.7-0.5 2 0 1.3 0.5 2 0.6 0.8 1.5 0.8 0.9 0 1.4-0.8 0.6-0.7 0.6-2zm-4-6.3v3.8q0.4-0.6 0.9-0.9 0.6-0.3 1.4-0.3 1.3 0 2.1 1 0.8 1 0.8 2.7 0 1.7-0.8 2.7-0.8 1-2.1 1-0.8 0-1.4-0.3-0.5-0.3-0.9-0.9v1.1h-1.2v-9.9zm9.9 3.6q-0.9 0-1.5 0.7-0.5 0.7-0.5 2 0 1.3 0.5 2 0.5 0.8 1.5 0.8 0.9 0 1.5-0.8 0.5-0.7 0.5-2 0-1.3-0.5-2-0.6-0.7-1.5-0.7zm0-1q1.5 0 2.4 1 0.9 1 0.9 2.7 0 1.8-0.9 2.8-0.9 0.9-2.4 0.9-1.5 0-2.4-0.9-0.9-1-0.9-2.8 0-1.7 0.9-2.7 0.9-1 2.4-1zm9.6 3.7h-1.2q-1.4 0-1.9 0.3-0.6 0.3-0.6 1.1 0 0.6 0.4 1 0.4 0.4 1.1 0.4 1 0 1.6-0.7 0.6-0.7 0.6-1.9zm1.2-0.4v4h-1.2v-1.1q-0.4 0.7-1 1-0.6 0.3-1.5 0.3-1.1 0-1.7-0.6-0.7-0.6-0.7-1.6 0-1.2 0.8-1.9 0.9-0.6 2.4-0.6h1.7v-0.1q0-0.8-0.5-1.2-0.6-0.5-1.5-0.5-0.6 0-1.2 0.2-0.6 0.1-1.1 0.4v-1.1q0.6-0.2 1.2-0.3 0.6-0.2 1.2-0.2 1.5 0 2.3 0.8 0.8 0.8 0.8 2.5zm6.5-3.2v1.2q-0.2-0.1-0.5-0.2-0.2 0-0.5 0-1 0-1.5 0.6-0.5 0.7-0.5 1.9v3.7h-1.2v-7.1h1.2v1.1q0.4-0.6 0.9-0.9 0.6-0.4 1.5-0.4 0.1 0 0.2 0.1 0.2 0 0.4 0zm5.7 1.2v-3.9h1.1v9.9h-1.1v-1q-0.4 0.6-1 0.9-0.5 0.3-1.3 0.3-1.3 0-2.1-1-0.8-1.1-0.8-2.7 0-1.7 0.8-2.7 0.8-1.1 2.1-1.1 0.8 0 1.3 0.4 0.6 0.3 1 0.9zm-4 2.5q0 1.3 0.5 2 0.5 0.7 1.5 0.7 0.9 0 1.4-0.7 0.6-0.7 0.6-2 0-1.3-0.6-2-0.5-0.8-1.4-0.8-1 0-1.5 0.8-0.5 0.7-0.5 2z"/>
		<path fill-rule="evenodd" class="s7" d="m398.1 458l10 4-10 4 4-4z"/>
		<path fill-rule="evenodd" class="s8" d="m199.3 462h204.8"/>
		<path id="Login" class="s4" aria-label="Login"  d="m207.6 457v-9.5h1.3v8.4h4.6v1.1zm9.7-6.3q-0.9 0-1.5 0.7-0.5 0.8-0.5 2.1 0 1.2 0.5 2 0.6 0.7 1.5 0.7 0.9 0 1.5-0.7 0.5-0.8 0.5-2 0-1.3-0.5-2-0.6-0.8-1.5-0.8zm0-1q1.5 0 2.4 1 0.9 1 0.9 2.8 0 1.7-0.9 2.7-0.9 1-2.4 1-1.5 0-2.4-1-0.9-1-0.9-2.7 0-1.8 0.9-2.8 0.9-1 2.4-1zm9.9 3.7q0-1.3-0.6-2-0.5-0.7-1.4-0.7-1 0-1.5 0.7-0.5 0.7-0.5 2 0 1.2 0.5 1.9 0.5 0.7 1.5 0.7 0.9 0 1.4-0.7 0.6-0.7 0.6-1.9zm1.1-3.5v6.2q0 1.8-0.8 2.7-0.8 0.9-2.4 0.9-0.6 0-1.2-0.1-0.5-0.1-1.1-0.3v-1.1q0.6 0.3 1.1 0.4 0.5 0.1 1 0.1 1.1 0 1.7-0.6 0.6-0.6 0.6-1.8v-0.6q-0.4 0.7-1 1-0.5 0.3-1.3 0.3-1.3 0-2.1-1-0.8-1-0.8-2.6 0-1.7 0.8-2.7 0.8-1 2.1-1 0.8 0 1.3 0.3 0.6 0.3 1 1v-1.1zm2.4 7.1v-7.1h1.1v7.1zm0-8.4v-1.5h1.2v1.5zm9.5 4.1v4.3h-1.1v-4.3q0-1-0.4-1.5-0.4-0.5-1.2-0.5-0.9 0-1.5 0.6-0.5 0.6-0.5 1.7v4h-1.2v-7.1h1.2v1.1q0.4-0.6 0.9-1 0.6-0.3 1.4-0.3 1.2 0 1.8 0.8 0.6 0.7 0.6 2.2z"/>
		<path fill-rule="evenodd" class="s7" d="m581.2 487.2l10 4-10 4 4-4z"/>
		<path fill-rule="evenodd" class="s8" d="m420.1 491.2h167.1"/>
		<path id="Validate credentials" class="s4" aria-label="Validate credentials"  d="m432.3 486h-1.4l-3.7-9.5h1.4l3 8 3-8h1.3zm8.4-3.6h-1.2q-1.4 0-2 0.4-0.5 0.3-0.5 1.1 0 0.6 0.4 1 0.4 0.3 1.1 0.3 1 0 1.6-0.7 0.6-0.6 0.6-1.8zm1.1-0.5v4.1h-1.1v-1.1q-0.4 0.7-1 1-0.6 0.3-1.5 0.3-1.1 0-1.7-0.6-0.7-0.7-0.7-1.7 0-1.2 0.8-1.8 0.8-0.6 2.4-0.6h1.7v-0.1q0-0.8-0.6-1.3-0.5-0.4-1.5-0.4-0.6 0-1.1 0.1-0.6 0.2-1.2 0.5v-1.1q0.7-0.2 1.3-0.4 0.6-0.1 1.2-0.1 1.5 0 2.3 0.8 0.7 0.8 0.7 2.4zm2.4 4.1v-9.9h1.2v9.9zm3.6 0v-7.1h1.2v7.1zm0-8.4v-1.5h1.2v1.5zm8.2 2.4v-3.9h1.2v9.9h-1.2v-1.1q-0.3 0.7-0.9 1-0.6 0.3-1.3 0.3-1.3 0-2.1-1.1-0.8-1-0.8-2.7 0-1.6 0.8-2.7 0.8-1 2.1-1 0.7 0 1.3 0.3 0.6 0.3 0.9 1zm-3.9 2.4q0 1.3 0.5 2.1 0.5 0.7 1.4 0.7 1 0 1.5-0.7 0.5-0.8 0.5-2.1 0-1.3-0.5-2-0.5-0.7-1.5-0.7-0.9 0-1.4 0.7-0.5 0.7-0.5 2zm11.9 0h-1.2q-1.4 0-1.9 0.3-0.6 0.4-0.6 1.1 0 0.7 0.4 1 0.5 0.4 1.2 0.4 0.9 0 1.5-0.7 0.6-0.7 0.6-1.8zm1.2-0.5v4h-1.2v-1q-0.4 0.6-1 0.9-0.6 0.3-1.4 0.3-1.1 0-1.8-0.6-0.6-0.6-0.6-1.6 0-1.2 0.8-1.8 0.8-0.6 2.4-0.6h1.6v-0.2q0-0.8-0.5-1.2-0.6-0.4-1.5-0.4-0.6 0-1.2 0.1-0.6 0.1-1.1 0.4v-1q0.6-0.3 1.2-0.4 0.6-0.1 1.2-0.1 1.6 0 2.3 0.8 0.8 0.8 0.8 2.4zm2.4-5.1h1.1v2h2.4v0.9h-2.4v3.9q0 0.9 0.3 1.1 0.2 0.3 0.9 0.3h1.2v0.9h-1.2q-1.3 0-1.8-0.5-0.5-0.5-0.5-1.8v-3.9h-0.9v-0.9h0.9zm11.2 5.3v0.6h-5.4q0.1 1.2 0.7 1.8 0.7 0.7 1.8 0.7 0.7 0 1.3-0.2 0.7-0.2 1.3-0.5v1.1q-0.6 0.3-1.3 0.4-0.7 0.1-1.3 0.1-1.7 0-2.7-0.9-1-1-1-2.7 0-1.8 0.9-2.8 1-1 2.6-1 1.4 0 2.2 0.9 0.9 0.9 0.9 2.5zm-5.4-0.3h4.2q0-1-0.5-1.6-0.6-0.5-1.4-0.5-1 0-1.6 0.5-0.6 0.6-0.7 1.6zm16.5-2.7v1.1q-0.5-0.3-1-0.4-0.5-0.1-1-0.1-1.1 0-1.7 0.7-0.7 0.7-0.7 2 0 1.3 0.7 2 0.6 0.8 1.7 0.8 0.5 0 1-0.2 0.5-0.1 1-0.4v1.1q-0.5 0.2-1 0.3-0.5 0.1-1.1 0.1-1.6 0-2.6-1-0.9-1-0.9-2.7 0-1.7 1-2.7 0.9-1 2.6-1 0.5 0 1 0.1 0.5 0.1 1 0.3zm6.2-0.4v1.2q-0.2-0.1-0.5-0.1-0.2-0.1-0.5-0.1-1 0-1.5 0.7-0.5 0.6-0.5 1.8v3.8h-1.2v-7.1h1.2v1.1q0.4-0.7 0.9-1 0.6-0.3 1.5-0.3 0.1 0 0.2 0 0.2 0 0.4 0zm7 3.4v0.6h-5.4q0.1 1.2 0.7 1.8 0.7 0.7 1.9 0.7 0.6 0 1.3-0.2 0.6-0.2 1.2-0.5v1.1q-0.6 0.3-1.3 0.4-0.6 0.1-1.3 0.1-1.7 0-2.7-0.9-1-1-1-2.7 0-1.8 0.9-2.8 1-1 2.6-1 1.4 0 2.3 0.9 0.8 0.9 0.8 2.5zm-5.3-0.3h4.1q0-1-0.5-1.6-0.5-0.5-1.4-0.5-1 0-1.6 0.5-0.5 0.6-0.6 1.6zm11.9-1.9v-3.8h1.2v9.9h-1.2v-1.1q-0.4 0.6-0.9 0.9-0.6 0.3-1.4 0.3-1.3 0-2.1-1-0.8-1-0.8-2.7 0-1.7 0.8-2.7 0.8-1 2.1-1 0.8 0 1.4 0.3 0.5 0.3 0.9 0.9zm-4 2.5q0 1.3 0.5 2 0.6 0.8 1.5 0.8 0.9 0 1.5-0.8 0.5-0.7 0.5-2 0-1.3-0.5-2-0.6-0.7-1.5-0.7-0.9 0-1.5 0.7-0.5 0.7-0.5 2zm13.6-0.3v0.6h-5.3q0.1 1.2 0.7 1.8 0.7 0.7 1.8 0.7 0.7 0 1.3-0.2 0.7-0.2 1.3-0.5v1.1q-0.7 0.3-1.3 0.4-0.7 0.1-1.4 0.1-1.7 0-2.7-0.9-0.9-1-0.9-2.7 0-1.8 0.9-2.8 0.9-1 2.5-1 1.5 0 2.3 0.9 0.8 0.9 0.8 2.5zm-5.3-0.3h4.2q0-1-0.6-1.6-0.5-0.5-1.3-0.5-1 0-1.6 0.5-0.6 0.6-0.7 1.6zm13.2-0.1v4.3h-1.2v-4.3q0-1-0.4-1.5-0.4-0.5-1.2-0.5-0.9 0-1.5 0.6-0.5 0.6-0.5 1.6v4.1h-1.2v-7.1h1.2v1.1q0.4-0.7 1-1 0.5-0.3 1.3-0.3 1.2 0 1.8 0.7 0.7 0.8 0.7 2.3zm2.3-4.9h1.2v2.1h2.4v0.9h-2.4v3.8q0 0.9 0.2 1.1 0.2 0.3 1 0.3h1.2v1h-1.2q-1.4 0-1.9-0.5-0.5-0.5-0.5-1.9v-3.8h-0.9v-0.9h0.9zm5.1 9.1v-7.1h1.2v7.1zm0-8.4v-1.5h1.1v1.5zm8 4.8h-1.1q-1.4 0-2 0.3-0.5 0.4-0.5 1.1 0 0.7 0.4 1 0.4 0.4 1.1 0.4 1 0 1.5-0.7 0.6-0.7 0.6-1.8zm1.2-0.5v4h-1.2v-1q-0.4 0.6-1 0.9-0.6 0.3-1.4 0.3-1.1 0-1.8-0.6-0.6-0.6-0.6-1.6 0-1.2 0.8-1.8 0.8-0.6 2.4-0.6h1.6v-0.2q0-0.8-0.5-1.2-0.5-0.4-1.5-0.4-0.6 0-1.2 0.1-0.5 0.1-1.1 0.4v-1q0.7-0.3 1.3-0.4 0.6-0.1 1.1-0.1 1.6 0 2.3 0.8 0.8 0.8 0.8 2.4zm2.4 4v-9.8h1.2v9.8zm8.1-6.9v1.1q-0.5-0.2-1-0.3-0.5-0.2-1.1-0.2-0.9 0-1.3 0.3-0.4 0.3-0.4 0.8 0 0.4 0.3 0.6 0.3 0.3 1.2 0.5l0.4 0.1q1.3 0.2 1.8 0.7 0.5 0.5 0.5 1.4 0 1-0.8 1.5-0.8 0.6-2.1 0.6-0.6 0-1.2-0.1-0.6-0.1-1.3-0.3v-1.2q0.6 0.3 1.2 0.5 0.7 0.1 1.3 0.1 0.8 0 1.3-0.2 0.4-0.3 0.4-0.8 0-0.5-0.3-0.8-0.3-0.2-1.4-0.5h-0.4q-1.1-0.3-1.6-0.7-0.5-0.5-0.5-1.3 0-1 0.7-1.6 0.7-0.5 2.1-0.5 0.6 0 1.2 0.1 0.5 0.1 1 0.2z"/>
		<path fill-rule="evenodd" class="s7" d="m431.1 516.3l-10 4 10 4-4-4z"/>
		<path fill-rule="evenodd" class="s9" d="m425.1 520.3h167.1"/>
		<path id="Credentials valid" class="s4" aria-label="Credentials valid"  d="m445.5 506.3v1.3q-0.6-0.6-1.4-0.9-0.7-0.3-1.5-0.3-1.6 0-2.5 1-0.9 1-0.9 2.9 0 1.8 0.9 2.8 0.9 1 2.5 1 0.8 0 1.5-0.3 0.8-0.3 1.4-0.9v1.4q-0.7 0.4-1.4 0.7-0.8 0.2-1.6 0.2-2.1 0-3.4-1.3-1.2-1.4-1.2-3.6 0-2.3 1.2-3.6 1.3-1.3 3.4-1.3 0.9 0 1.6 0.2 0.8 0.2 1.4 0.7zm6.1 1.5v1.2q-0.2-0.1-0.5-0.2-0.2 0-0.5 0-1 0-1.5 0.6-0.5 0.6-0.5 1.9v3.7h-1.2v-7.1h1.2v1.1q0.3-0.7 0.9-1 0.6-0.3 1.5-0.3 0.1 0 0.2 0 0.2 0.1 0.4 0.1zm7 3.4v0.5h-5.4q0.1 1.2 0.7 1.9 0.7 0.6 1.9 0.6 0.6 0 1.3-0.2 0.6-0.1 1.2-0.5v1.1q-0.6 0.3-1.3 0.4-0.6 0.2-1.3 0.2-1.7 0-2.7-1-1-1-1-2.7 0-1.7 0.9-2.8 1-1 2.6-1 1.4 0 2.3 0.9 0.8 1 0.8 2.6zm-5.3-0.4h4.1q0-0.9-0.5-1.5-0.5-0.6-1.4-0.6-1 0-1.6 0.6-0.6 0.5-0.6 1.5zm11.9-1.8v-3.9h1.2v9.9h-1.2v-1.1q-0.4 0.7-0.9 1-0.6 0.3-1.4 0.3-1.3 0-2.1-1-0.8-1.1-0.8-2.7 0-1.7 0.8-2.8 0.8-1 2.1-1 0.8 0 1.4 0.3 0.5 0.3 0.9 1zm-4 2.5q0 1.2 0.5 2 0.6 0.7 1.5 0.7 0.9 0 1.5-0.7 0.5-0.8 0.5-2 0-1.3-0.5-2.1-0.6-0.7-1.5-0.7-0.9 0-1.5 0.7-0.5 0.8-0.5 2.1zm13.6-0.3v0.5h-5.3q0 1.2 0.7 1.9 0.6 0.6 1.8 0.6 0.7 0 1.3-0.2 0.6-0.1 1.3-0.5v1.1q-0.7 0.3-1.3 0.4-0.7 0.2-1.4 0.2-1.7 0-2.7-1-0.9-1-0.9-2.7 0-1.7 0.9-2.8 0.9-1 2.5-1 1.5 0 2.3 0.9 0.8 1 0.8 2.6zm-5.3-0.4h4.2q0-0.9-0.6-1.5-0.5-0.6-1.4-0.6-0.9 0-1.5 0.6-0.6 0.5-0.7 1.5zm13.2-0.1v4.3h-1.2v-4.3q0-1-0.4-1.5-0.4-0.5-1.2-0.5-0.9 0-1.5 0.6-0.5 0.6-0.5 1.7v4h-1.2v-7.1h1.2v1.1q0.4-0.6 1-1 0.5-0.3 1.3-0.3 1.2 0 1.8 0.8 0.7 0.7 0.7 2.2zm2.3-4.8h1.2v2h2.4v0.9h-2.4v3.9q0 0.8 0.2 1.1 0.2 0.2 1 0.2h1.2v1h-1.2q-1.4 0-1.9-0.5-0.5-0.5-0.5-1.8v-3.9h-0.9v-0.9h0.9zm5.1 9.1v-7.1h1.2v7.1zm0-8.4v-1.5h1.1v1.5zm8 4.8h-1.1q-1.4 0-2 0.4-0.5 0.3-0.5 1.1 0 0.6 0.4 1 0.4 0.3 1.1 0.3 1 0 1.5-0.7 0.6-0.7 0.6-1.8zm1.2-0.5v4.1h-1.2v-1.1q-0.4 0.6-1 1-0.6 0.3-1.4 0.3-1.1 0-1.8-0.6-0.6-0.7-0.6-1.7 0-1.2 0.8-1.8 0.8-0.6 2.4-0.6h1.6v-0.1q0-0.8-0.5-1.3-0.5-0.4-1.5-0.4-0.6 0-1.2 0.1-0.5 0.2-1.1 0.5v-1.1q0.7-0.3 1.3-0.4 0.6-0.1 1.1-0.1 1.6 0 2.3 0.8 0.8 0.8 0.8 2.4zm2.4 4.1v-9.9h1.2v9.9zm8.1-6.9v1.1q-0.5-0.3-1-0.4-0.5-0.1-1.1-0.1-0.9 0-1.3 0.2-0.5 0.3-0.5 0.8 0 0.4 0.4 0.7 0.3 0.2 1.2 0.4l0.4 0.1q1.3 0.3 1.8 0.8 0.5 0.4 0.5 1.3 0 1-0.8 1.6-0.8 0.6-2.1 0.6-0.6 0-1.2-0.1-0.6-0.2-1.3-0.4v-1.2q0.6 0.3 1.2 0.5 0.7 0.2 1.3 0.2 0.8 0 1.3-0.3 0.4-0.3 0.4-0.8 0-0.5-0.3-0.7-0.3-0.3-1.4-0.5l-0.4-0.1q-1.1-0.2-1.6-0.7-0.5-0.5-0.5-1.3 0-1 0.7-1.6 0.7-0.5 2-0.5 0.7 0 1.3 0.1 0.5 0.1 1 0.3zm8.2 6.9l-2.6-7.1h1.2l2.2 5.9 2.2-5.9h1.3l-2.7 7.1zm10.3-3.6h-1.2q-1.4 0-2 0.3-0.5 0.4-0.5 1.1 0 0.7 0.4 1 0.4 0.4 1.1 0.4 1 0 1.6-0.7 0.6-0.7 0.6-1.8zm1.1-0.5v4h-1.1v-1q-0.4 0.6-1 0.9-0.6 0.3-1.5 0.3-1.1 0-1.7-0.6-0.7-0.6-0.7-1.6 0-1.2 0.8-1.8 0.8-0.6 2.4-0.6h1.7v-0.2q0-0.8-0.6-1.2-0.5-0.5-1.5-0.5-0.6 0-1.1 0.2-0.6 0.1-1.2 0.4v-1q0.7-0.3 1.3-0.4 0.6-0.1 1.2-0.1 1.5 0 2.3 0.8 0.7 0.8 0.7 2.4zm2.4 4v-9.8h1.2v9.8zm3.6 0v-7.1h1.2v7.1zm0-8.4v-1.4h1.2v1.4zm8.2 2.4v-3.8h1.2v9.8h-1.2v-1q-0.3 0.6-0.9 0.9-0.5 0.3-1.3 0.3-1.3 0-2.1-1-0.8-1-0.8-2.7 0-1.7 0.8-2.7 0.8-1 2.1-1 0.8 0 1.3 0.3 0.6 0.3 0.9 0.9zm-3.9 2.5q0 1.3 0.5 2 0.5 0.7 1.5 0.7 0.9 0 1.4-0.7 0.5-0.7 0.5-2 0-1.3-0.5-2-0.5-0.8-1.4-0.8-1 0-1.5 0.8-0.5 0.7-0.5 2z"/>
		<path fill-rule="evenodd" class="s7" d="m205.3 545.4l-10 4 10 4-4-4z"/>
		<path fill-rule="evenodd" class="s8" d="m199.3 549.4h214.8"/>
		<path id="Access Dashboard" class="s4" aria-label="Access Dashboard"  d="m217.5 540.5l-1.7-4.7-1.8 4.7zm-6.1 3.5l3.6-9.5h1.5l3.6 9.5h-1.3l-0.9-2.4h-4.3l-0.8 2.4zm14.9-6.8v1.1q-0.5-0.3-1-0.5-0.5-0.1-1-0.1-1.2 0-1.8 0.7-0.6 0.8-0.6 2.1 0 1.3 0.6 2 0.6 0.7 1.8 0.7 0.5 0 1-0.1 0.5-0.2 1-0.5v1.1q-0.5 0.3-1 0.4-0.6 0.1-1.1 0.1-1.7 0-2.6-1-0.9-1-0.9-2.7 0-1.8 0.9-2.8 1-1 2.6-1 0.6 0 1.1 0.1 0.5 0.1 1 0.4zm7.1 0v1.1q-0.5-0.3-1-0.5-0.5-0.1-1-0.1-1.1 0-1.7 0.7-0.7 0.8-0.7 2.1 0 1.3 0.7 2 0.6 0.7 1.7 0.7 0.5 0 1-0.1 0.5-0.2 1-0.5v1.1q-0.5 0.3-1 0.4-0.5 0.1-1.1 0.1-1.6 0-2.6-1-0.9-1-0.9-2.7 0-1.8 1-2.8 0.9-1 2.6-1 0.5 0 1 0.1 0.5 0.1 1 0.4zm8.1 3v0.5h-5.3q0 1.2 0.7 1.9 0.6 0.6 1.8 0.6 0.7 0 1.3-0.2 0.6-0.1 1.3-0.5v1.1q-0.7 0.3-1.3 0.4-0.7 0.2-1.4 0.2-1.7 0-2.7-1-0.9-1-0.9-2.7 0-1.7 0.9-2.8 0.9-1 2.5-1 1.5 0 2.3 0.9 0.8 1 0.8 2.6zm-5.3-0.4h4.2q0-0.9-0.6-1.5-0.5-0.6-1.4-0.6-0.9 0-1.5 0.6-0.6 0.5-0.7 1.5zm11.8-2.7v1.1q-0.5-0.2-1-0.4-0.6-0.1-1.1-0.1-0.9 0-1.4 0.3-0.4 0.2-0.4 0.8 0 0.4 0.3 0.6 0.3 0.2 1.3 0.4l0.4 0.1q1.2 0.3 1.7 0.8 0.6 0.5 0.6 1.3 0 1-0.8 1.6-0.8 0.6-2.2 0.6-0.5 0-1.2-0.1-0.6-0.1-1.3-0.4v-1.2q0.7 0.4 1.3 0.5 0.6 0.2 1.3 0.2 0.8 0 1.2-0.3 0.5-0.3 0.5-0.8 0-0.4-0.4-0.7-0.3-0.3-1.4-0.5l-0.4-0.1q-1-0.2-1.5-0.7-0.5-0.5-0.5-1.3 0-1 0.7-1.5 0.7-0.6 2-0.6 0.7 0 1.2 0.1 0.6 0.1 1.1 0.3zm6.8 0v1.1q-0.5-0.2-1.1-0.4-0.5-0.1-1.1-0.1-0.8 0-1.3 0.3-0.4 0.2-0.4 0.8 0 0.4 0.3 0.6 0.3 0.2 1.3 0.4l0.4 0.1q1.2 0.3 1.7 0.8 0.5 0.5 0.5 1.3 0 1-0.7 1.6-0.8 0.6-2.2 0.6-0.6 0-1.2-0.1-0.6-0.1-1.3-0.4v-1.2q0.7 0.4 1.3 0.5 0.6 0.2 1.2 0.2 0.9 0 1.3-0.3 0.4-0.3 0.4-0.8 0-0.4-0.3-0.7-0.3-0.3-1.4-0.5l-0.4-0.1q-1.1-0.2-1.6-0.7-0.4-0.5-0.4-1.3 0-1 0.7-1.5 0.7-0.6 2-0.6 0.6 0 1.2 0.1 0.6 0.1 1.1 0.3zm9.2-1.5h-1.5v7.3h1.5q2 0 2.9-0.8 0.9-0.9 0.9-2.8 0-2-0.9-2.8-0.9-0.9-2.9-0.9zm-2.8 8.4v-9.5h2.6q2.8 0 4.1 1.2 1.3 1.1 1.3 3.6 0 2.4-1.3 3.6-1.3 1.1-4.1 1.1zm14.4-3.6h-1.2q-1.4 0-2 0.3-0.5 0.4-0.5 1.2 0 0.6 0.4 0.9 0.4 0.4 1.1 0.4 1 0 1.6-0.7 0.6-0.7 0.6-1.8zm1.1-0.5v4.1h-1.1v-1.1q-0.4 0.6-1 0.9-0.6 0.3-1.5 0.3-1.1 0-1.7-0.6-0.7-0.6-0.7-1.6 0-1.2 0.8-1.8 0.8-0.6 2.4-0.6h1.7v-0.1q0-0.8-0.6-1.3-0.5-0.4-1.4-0.4-0.7 0-1.2 0.1-0.6 0.2-1.1 0.5v-1.1q0.6-0.3 1.2-0.4 0.6-0.1 1.2-0.1 1.5 0 2.3 0.8 0.7 0.8 0.7 2.4zm7-2.8v1.1q-0.5-0.3-1-0.4-0.6-0.1-1.2-0.1-0.8 0-1.3 0.2-0.4 0.3-0.4 0.8 0 0.4 0.3 0.7 0.3 0.2 1.3 0.4l0.4 0.1q1.2 0.3 1.7 0.7 0.6 0.5 0.6 1.4 0 1-0.8 1.6-0.8 0.5-2.2 0.5-0.6 0-1.2-0.1-0.6-0.1-1.3-0.3v-1.2q0.7 0.3 1.3 0.5 0.6 0.2 1.2 0.2 0.9 0 1.3-0.3 0.5-0.3 0.5-0.8 0-0.5-0.4-0.7-0.3-0.3-1.4-0.5l-0.4-0.1q-1.1-0.3-1.5-0.7-0.5-0.5-0.5-1.3 0-1 0.7-1.6 0.7-0.5 2-0.5 0.7 0 1.2 0.1 0.6 0.1 1.1 0.3zm8.1 2.6v4.3h-1.1v-4.3q0-1-0.4-1.5-0.4-0.5-1.2-0.5-1 0-1.5 0.6-0.6 0.6-0.6 1.6v4.1h-1.1v-9.9h1.1v3.9q0.5-0.7 1-1 0.6-0.3 1.3-0.3 1.3 0 1.9 0.7 0.6 0.8 0.6 2.3zm7.5 0.7q0-1.3-0.6-2-0.5-0.7-1.4-0.7-1 0-1.5 0.7-0.5 0.7-0.5 2 0 1.3 0.5 2 0.5 0.8 1.5 0.8 0.9 0 1.4-0.8 0.6-0.7 0.6-2zm-4-6.3v3.8q0.4-0.6 0.9-0.9 0.6-0.3 1.4-0.3 1.3 0 2.1 1 0.8 1 0.8 2.7 0 1.7-0.8 2.7-0.8 1-2.1 1-0.8 0-1.4-0.3-0.5-0.3-0.9-0.9v1.1h-1.2v-9.9zm9.9 3.6q-0.9 0-1.5 0.7-0.5 0.7-0.5 2 0 1.3 0.5 2 0.5 0.8 1.5 0.8 0.9 0 1.5-0.8 0.5-0.7 0.5-2 0-1.3-0.5-2-0.6-0.7-1.5-0.7zm0-1q1.5 0 2.4 1 0.9 1 0.9 2.7 0 1.8-0.9 2.8-0.9 0.9-2.4 0.9-1.5 0-2.4-0.9-0.9-1-0.9-2.8 0-1.7 0.9-2.7 0.9-1 2.4-1zm9.6 3.7h-1.2q-1.4 0-1.9 0.3-0.6 0.3-0.6 1.1 0 0.6 0.4 1 0.4 0.4 1.1 0.4 1 0 1.6-0.7 0.6-0.7 0.6-1.9zm1.2-0.4v4h-1.2v-1.1q-0.4 0.7-1 1-0.6 0.3-1.5 0.3-1.1 0-1.7-0.6-0.7-0.6-0.7-1.6 0-1.2 0.8-1.9 0.9-0.6 2.4-0.6h1.7v-0.1q0-0.8-0.6-1.2-0.5-0.5-1.4-0.5-0.6 0-1.2 0.2-0.6 0.1-1.1 0.4v-1.1q0.6-0.2 1.2-0.3 0.6-0.2 1.2-0.2 1.5 0 2.3 0.8 0.8 0.8 0.8 2.5zm6.5-3.2v1.2q-0.2-0.1-0.5-0.2-0.2 0-0.5 0-1 0-1.5 0.6-0.5 0.7-0.5 1.9v3.7h-1.2v-7.1h1.2v1.1q0.4-0.6 0.9-0.9 0.6-0.4 1.5-0.4 0.1 0 0.2 0.1 0.2 0 0.4 0zm5.7 1.2v-3.9h1.1v9.9h-1.1v-1q-0.4 0.6-1 0.9-0.5 0.3-1.3 0.3-1.3 0-2.1-1-0.8-1.1-0.8-2.7 0-1.7 0.8-2.7 0.8-1.1 2.1-1.1 0.8 0 1.3 0.4 0.6 0.3 1 0.9zm-4 2.5q0 1.3 0.5 2 0.5 0.7 1.5 0.7 0.9 0 1.4-0.7 0.6-0.7 0.6-2 0-1.3-0.6-2-0.5-0.8-1.4-0.8-1 0-1.5 0.8-0.5 0.7-0.5 2z"/>
		<path fill-rule="evenodd" class="s7" d="m398.1 574.6l10 4-10 4 4-4z"/>
		<path fill-rule="evenodd" class="s8" d="m266.5 578.6h137.6"/>
		<path id="Login" class="s4" aria-label="Login"  d="m274.8 573v-9.5h1.3v8.4h4.6v1.1zm9.7-6.3q-0.9 0-1.5 0.7-0.5 0.8-0.5 2.1 0 1.2 0.5 2 0.6 0.7 1.5 0.7 1 0 1.5-0.7 0.5-0.8 0.5-2 0-1.3-0.5-2-0.5-0.8-1.5-0.8zm0-1q1.5 0 2.4 1 0.9 1 0.9 2.8 0 1.7-0.9 2.7-0.9 1-2.4 1-1.5 0-2.4-1-0.8-1-0.8-2.7 0-1.8 0.8-2.8 0.9-1 2.4-1zm9.9 3.7q0-1.3-0.5-2-0.6-0.7-1.5-0.7-0.9 0-1.5 0.7-0.5 0.7-0.5 2 0 1.2 0.5 1.9 0.6 0.7 1.5 0.7 0.9 0 1.5-0.7 0.5-0.7 0.5-1.9zm1.2-3.5v6.2q0 1.8-0.8 2.7-0.9 0.9-2.5 0.9-0.6 0-1.2-0.1-0.5-0.1-1-0.3v-1.1q0.5 0.3 1 0.4 0.5 0.1 1 0.1 1.2 0 1.7-0.6 0.6-0.6 0.6-1.8v-0.6q-0.4 0.7-0.9 1-0.6 0.3-1.4 0.3-1.3 0-2.1-1-0.8-1-0.8-2.6 0-1.7 0.8-2.7 0.8-1 2.1-1 0.8 0 1.4 0.3 0.5 0.3 0.9 1v-1.1zm2.4 7.1v-7.1h1.2v7.1zm0-8.4v-1.5h1.1v1.5zm9.6 4.1v4.3h-1.2v-4.3q0-1-0.4-1.5-0.4-0.5-1.2-0.5-0.9 0-1.5 0.6-0.5 0.6-0.5 1.7v4h-1.2v-7.1h1.2v1.1q0.4-0.6 1-1 0.5-0.3 1.3-0.3 1.2 0 1.8 0.8 0.7 0.7 0.7 2.2z"/>
		<path fill-rule="evenodd" class="s7" d="m581.2 603.7l10 4-10 4 4-4z"/>
		<path fill-rule="evenodd" class="s8" d="m420.1 607.7h167.1"/>
		<path id="Validate credentials" class="s4" aria-label="Validate credentials"  d="m432.3 603h-1.4l-3.7-9.5h1.4l3 8 3-8h1.3zm8.4-3.6h-1.2q-1.4 0-2 0.4-0.5 0.3-0.5 1.1 0 0.6 0.4 1 0.4 0.3 1.1 0.3 1 0 1.6-0.7 0.6-0.6 0.6-1.8zm1.1-0.5v4.1h-1.1v-1.1q-0.4 0.7-1 1-0.6 0.3-1.5 0.3-1.1 0-1.7-0.6-0.7-0.7-0.7-1.7 0-1.2 0.8-1.8 0.8-0.6 2.4-0.6h1.7v-0.1q0-0.8-0.6-1.3-0.5-0.4-1.5-0.4-0.6 0-1.1 0.1-0.6 0.2-1.2 0.5v-1.1q0.7-0.2 1.3-0.4 0.6-0.1 1.2-0.1 1.5 0 2.3 0.8 0.7 0.8 0.7 2.4zm2.4 4.1v-9.9h1.2v9.9zm3.6 0v-7.1h1.2v7.1zm0-8.4v-1.5h1.2v1.5zm8.2 2.4v-3.9h1.2v9.9h-1.2v-1.1q-0.3 0.7-0.9 1-0.6 0.3-1.3 0.3-1.3 0-2.1-1.1-0.8-1-0.8-2.7 0-1.6 0.8-2.7 0.8-1 2.1-1 0.7 0 1.3 0.3 0.6 0.3 0.9 1zm-3.9 2.4q0 1.3 0.5 2.1 0.5 0.7 1.4 0.7 1 0 1.5-0.7 0.5-0.8 0.5-2.1 0-1.3-0.5-2-0.5-0.7-1.5-0.7-0.9 0-1.4 0.7-0.5 0.7-0.5 2zm11.9 0h-1.2q-1.4 0-1.9 0.3-0.6 0.4-0.6 1.1 0 0.7 0.4 1 0.5 0.4 1.2 0.4 0.9 0 1.5-0.7 0.6-0.7 0.6-1.8zm1.2-0.5v4h-1.2v-1q-0.4 0.6-1 0.9-0.6 0.3-1.4 0.3-1.1 0-1.8-0.6-0.6-0.6-0.6-1.6 0-1.2 0.8-1.8 0.8-0.6 2.4-0.6h1.6v-0.2q0-0.8-0.5-1.2-0.6-0.4-1.5-0.4-0.6 0-1.2 0.1-0.6 0.1-1.1 0.4v-1q0.6-0.3 1.2-0.4 0.6-0.1 1.2-0.1 1.6 0 2.3 0.8 0.8 0.8 0.8 2.4zm2.4-5.1h1.1v2h2.4v0.9h-2.4v3.9q0 0.9 0.3 1.1 0.2 0.3 0.9 0.3h1.2v0.9h-1.2q-1.3 0-1.8-0.5-0.5-0.5-0.5-1.8v-3.9h-0.9v-0.9h0.9zm11.2 5.3v0.6h-5.4q0.1 1.2 0.7 1.8 0.7 0.7 1.8 0.7 0.7 0 1.3-0.2 0.7-0.2 1.3-0.5v1.1q-0.6 0.3-1.3 0.4-0.7 0.1-1.3 0.1-1.7 0-2.7-0.9-1-1-1-2.7 0-1.8 0.9-2.8 1-1 2.6-1 1.4 0 2.2 0.9 0.9 0.9 0.9 2.5zm-5.4-0.3h4.2q0-1-0.5-1.6-0.6-0.5-1.4-0.5-1 0-1.6 0.5-0.6 0.6-0.7 1.6zm16.5-2.7v1.1q-0.5-0.3-1-0.4-0.5-0.1-1-0.1-1.1 0-1.7 0.7-0.7 0.7-0.7 2 0 1.3 0.7 2 0.6 0.8 1.7 0.8 0.5 0 1-0.2 0.5-0.1 1-0.4v1.1q-0.5 0.2-1 0.3-0.5 0.1-1.1 0.1-1.6 0-2.6-1-0.9-1-0.9-2.7 0-1.7 1-2.7 0.9-1 2.6-1 0.5 0 1 0.1 0.5 0.1 1 0.3zm6.2-0.4v1.2q-0.2-0.1-0.5-0.1-0.2-0.1-0.5-0.1-1 0-1.5 0.7-0.5 0.6-0.5 1.8v3.8h-1.2v-7.1h1.2v1.1q0.4-0.7 0.9-1 0.6-0.3 1.5-0.3 0.1 0 0.2 0 0.2 0 0.4 0zm7 3.4v0.6h-5.4q0.1 1.2 0.7 1.8 0.7 0.7 1.9 0.7 0.6 0 1.3-0.2 0.6-0.2 1.2-0.5v1.1q-0.6 0.3-1.3 0.4-0.6 0.1-1.3 0.1-1.7 0-2.7-0.9-1-1-1-2.7 0-1.8 0.9-2.8 1-1 2.6-1 1.4 0 2.3 0.9 0.8 0.9 0.8 2.5zm-5.3-0.3h4.1q0-1-0.5-1.6-0.5-0.5-1.4-0.5-1 0-1.6 0.5-0.5 0.6-0.6 1.6zm11.9-1.9v-3.8h1.2v9.9h-1.2v-1.1q-0.4 0.6-0.9 0.9-0.6 0.3-1.4 0.3-1.3 0-2.1-1-0.8-1-0.8-2.7 0-1.7 0.8-2.7 0.8-1 2.1-1 0.8 0 1.4 0.3 0.5 0.3 0.9 0.9zm-4 2.5q0 1.3 0.5 2 0.6 0.8 1.5 0.8 0.9 0 1.5-0.8 0.5-0.7 0.5-2 0-1.3-0.5-2-0.6-0.7-1.5-0.7-0.9 0-1.5 0.7-0.5 0.7-0.5 2zm13.6-0.3v0.6h-5.3q0.1 1.2 0.7 1.8 0.7 0.7 1.8 0.7 0.7 0 1.3-0.2 0.7-0.2 1.3-0.5v1.1q-0.7 0.3-1.3 0.4-0.7 0.1-1.4 0.1-1.7 0-2.7-0.9-0.9-1-0.9-2.7 0-1.8 0.9-2.8 0.9-1 2.5-1 1.5 0 2.3 0.9 0.8 0.9 0.8 2.5zm-5.3-0.3h4.2q0-1-0.6-1.6-0.5-0.5-1.3-0.5-1 0-1.6 0.5-0.6 0.6-0.7 1.6zm13.2-0.1v4.3h-1.2v-4.3q0-1-0.4-1.5-0.4-0.5-1.2-0.5-0.9 0-1.5 0.6-0.5 0.6-0.5 1.6v4.1h-1.2v-7.1h1.2v1.1q0.4-0.7 1-1 0.5-0.3 1.3-0.3 1.2 0 1.8 0.7 0.7 0.8 0.7 2.3zm2.3-4.9h1.2v2.1h2.4v0.9h-2.4v3.8q0 0.9 0.2 1.1 0.2 0.3 1 0.3h1.2v1h-1.2q-1.4 0-1.9-0.5-0.5-0.5-0.5-1.9v-3.8h-0.9v-0.9h0.9zm5.1 9.1v-7.1h1.2v7.1zm0-8.4v-1.5h1.1v1.5zm8 4.8h-1.1q-1.4 0-2 0.3-0.5 0.4-0.5 1.1 0 0.7 0.4 1 0.4 0.4 1.1 0.4 1 0 1.5-0.7 0.6-0.7 0.6-1.8zm1.2-0.5v4h-1.2v-1q-0.4 0.6-1 0.9-0.6 0.3-1.4 0.3-1.1 0-1.8-0.6-0.6-0.6-0.6-1.6 0-1.2 0.8-1.8 0.8-0.6 2.4-0.6h1.6v-0.2q0-0.8-0.5-1.2-0.5-0.4-1.5-0.4-0.6 0-1.2 0.1-0.5 0.1-1.1 0.4v-1q0.7-0.3 1.3-0.4 0.6-0.1 1.1-0.1 1.6 0 2.3 0.8 0.8 0.8 0.8 2.4zm2.4 4v-9.8h1.2v9.8zm8.1-6.9v1.1q-0.5-0.2-1-0.3-0.5-0.2-1.1-0.2-0.9 0-1.3 0.3-0.4 0.3-0.4 0.8 0 0.4 0.3 0.6 0.3 0.3 1.2 0.5l0.4 0.1q1.3 0.2 1.8 0.7 0.5 0.5 0.5 1.4 0 1-0.8 1.5-0.8 0.6-2.1 0.6-0.6 0-1.2-0.1-0.6-0.1-1.3-0.3v-1.2q0.6 0.3 1.2 0.5 0.7 0.1 1.3 0.1 0.8 0 1.3-0.2 0.4-0.3 0.4-0.8 0-0.5-0.3-0.8-0.3-0.2-1.4-0.5h-0.4q-1.1-0.3-1.6-0.7-0.5-0.5-0.5-1.3 0-1 0.7-1.6 0.7-0.5 2.1-0.5 0.6 0 1.2 0.1 0.5 0.1 1 0.2z"/>
		<path fill-rule="evenodd" class="s7" d="m431.1 632.8l-10 4 10 4-4-4z"/>
		<path fill-rule="evenodd" class="s9" d="m425.1 636.8h167.1"/>
		<path id="Credentials valid" class="s4" aria-label="Credentials valid"  d="m445.5 623.3v1.3q-0.6-0.6-1.4-0.9-0.7-0.3-1.5-0.3-1.6 0-2.5 1-0.9 1-0.9 2.9 0 1.8 0.9 2.8 0.9 1 2.5 1 0.8 0 1.5-0.3 0.8-0.3 1.4-0.9v1.4q-0.7 0.4-1.4 0.7-0.8 0.2-1.6 0.2-2.1 0-3.4-1.3-1.2-1.4-1.2-3.6 0-2.3 1.2-3.6 1.3-1.3 3.4-1.3 0.9 0 1.6 0.2 0.8 0.2 1.4 0.7zm6.1 1.5v1.2q-0.2-0.1-0.5-0.2-0.2 0-0.5 0-1 0-1.5 0.6-0.5 0.6-0.5 1.9v3.7h-1.2v-7.1h1.2v1.1q0.3-0.7 0.9-1 0.6-0.3 1.5-0.3 0.1 0 0.2 0 0.2 0.1 0.4 0.1zm7 3.4v0.5h-5.4q0.1 1.2 0.7 1.9 0.7 0.6 1.9 0.6 0.6 0 1.3-0.2 0.6-0.1 1.2-0.5v1.1q-0.6 0.3-1.3 0.4-0.6 0.2-1.3 0.2-1.7 0-2.7-1-1-1-1-2.7 0-1.7 0.9-2.8 1-1 2.6-1 1.4 0 2.3 0.9 0.8 1 0.8 2.6zm-5.3-0.4h4.1q0-0.9-0.5-1.5-0.5-0.6-1.4-0.6-1 0-1.6 0.6-0.6 0.5-0.6 1.5zm11.9-1.8v-3.9h1.2v9.9h-1.2v-1.1q-0.4 0.7-0.9 1-0.6 0.3-1.4 0.3-1.3 0-2.1-1-0.8-1.1-0.8-2.7 0-1.7 0.8-2.8 0.8-1 2.1-1 0.8 0 1.4 0.3 0.5 0.3 0.9 1zm-4 2.5q0 1.2 0.5 2 0.6 0.7 1.5 0.7 0.9 0 1.5-0.7 0.5-0.8 0.5-2 0-1.3-0.5-2.1-0.6-0.7-1.5-0.7-0.9 0-1.5 0.7-0.5 0.8-0.5 2.1zm13.6-0.3v0.5h-5.3q0 1.2 0.7 1.9 0.6 0.6 1.8 0.6 0.7 0 1.3-0.2 0.6-0.1 1.3-0.5v1.1q-0.7 0.3-1.3 0.4-0.7 0.2-1.4 0.2-1.7 0-2.7-1-0.9-1-0.9-2.7 0-1.7 0.9-2.8 0.9-1 2.5-1 1.5 0 2.3 0.9 0.8 1 0.8 2.6zm-5.3-0.4h4.2q0-0.9-0.6-1.5-0.5-0.6-1.4-0.6-0.9 0-1.5 0.6-0.6 0.5-0.7 1.5zm13.2-0.1v4.3h-1.2v-4.3q0-1-0.4-1.5-0.4-0.5-1.2-0.5-0.9 0-1.5 0.6-0.5 0.6-0.5 1.7v4h-1.2v-7.1h1.2v1.1q0.4-0.6 1-1 0.5-0.3 1.3-0.3 1.2 0 1.8 0.8 0.7 0.7 0.7 2.2zm2.3-4.8h1.2v2h2.4v0.9h-2.4v3.9q0 0.8 0.2 1.1 0.2 0.2 1 0.2h1.2v1h-1.2q-1.4 0-1.9-0.5-0.5-0.5-0.5-1.8v-3.9h-0.9v-0.9h0.9zm5.1 9.1v-7.1h1.2v7.1zm0-8.4v-1.5h1.1v1.5zm8 4.8h-1.1q-1.4 0-2 0.4-0.5 0.3-0.5 1.1 0 0.6 0.4 1 0.4 0.3 1.1 0.3 1 0 1.5-0.7 0.6-0.7 0.6-1.8zm1.2-0.5v4.1h-1.2v-1.1q-0.4 0.6-1 1-0.6 0.3-1.4 0.3-1.1 0-1.8-0.6-0.6-0.7-0.6-1.7 0-1.2 0.8-1.8 0.8-0.6 2.4-0.6h1.6v-0.1q0-0.8-0.5-1.3-0.5-0.4-1.5-0.4-0.6 0-1.2 0.1-0.5 0.2-1.1 0.5v-1.1q0.7-0.3 1.3-0.4 0.6-0.1 1.1-0.1 1.6 0 2.3 0.8 0.8 0.8 0.8 2.4zm2.4 4.1v-9.9h1.2v9.9zm8.1-6.9v1.1q-0.5-0.3-1-0.4-0.5-0.1-1.1-0.1-0.9 0-1.3 0.2-0.5 0.3-0.5 0.8 0 0.4 0.4 0.7 0.3 0.2 1.2 0.4l0.4 0.1q1.3 0.3 1.8 0.8 0.5 0.4 0.5 1.3 0 1-0.8 1.6-0.8 0.6-2.1 0.6-0.6 0-1.2-0.1-0.6-0.2-1.3-0.4v-1.2q0.6 0.3 1.2 0.5 0.7 0.2 1.3 0.2 0.8 0 1.3-0.3 0.4-0.3 0.4-0.8 0-0.5-0.3-0.7-0.3-0.3-1.4-0.5l-0.4-0.1q-1.1-0.2-1.6-0.7-0.5-0.5-0.5-1.3 0-1 0.7-1.6 0.7-0.5 2-0.5 0.7 0 1.3 0.1 0.5 0.1 1 0.3zm8.2 6.9l-2.6-7.1h1.2l2.2 5.9 2.2-5.9h1.3l-2.7 7.1zm10.3-3.6h-1.2q-1.4 0-2 0.3-0.5 0.4-0.5 1.1 0 0.7 0.4 1 0.4 0.4 1.1 0.4 1 0 1.6-0.7 0.6-0.7 0.6-1.8zm1.1-0.5v4h-1.1v-1q-0.4 0.6-1 0.9-0.6 0.3-1.5 0.3-1.1 0-1.7-0.6-0.7-0.6-0.7-1.6 0-1.2 0.8-1.8 0.8-0.6 2.4-0.6h1.7v-0.2q0-0.8-0.6-1.2-0.5-0.5-1.5-0.5-0.6 0-1.1 0.2-0.6 0.1-1.2 0.4v-1q0.7-0.3 1.3-0.4 0.6-0.1 1.2-0.1 1.5 0 2.3 0.8 0.7 0.8 0.7 2.4zm2.4 4v-9.8h1.2v9.8zm3.6 0v-7.1h1.2v7.1zm0-8.4v-1.4h1.2v1.4zm8.2 2.4v-3.8h1.2v9.8h-1.2v-1q-0.3 0.6-0.9 0.9-0.5 0.3-1.3 0.3-1.3 0-2.1-1-0.8-1-0.8-2.7 0-1.7 0.8-2.7 0.8-1 2.1-1 0.8 0 1.3 0.3 0.6 0.3 0.9 0.9zm-3.9 2.5q0 1.3 0.5 2 0.5 0.7 1.5 0.7 0.9 0 1.4-0.7 0.5-0.7 0.5-2 0-1.3-0.5-2-0.5-0.8-1.4-0.8-1 0-1.5 0.8-0.5 0.7-0.5 2z"/>
		<path fill-rule="evenodd" class="s7" d="m272.5 662l-10 4 10 4-4-4z"/>
		<path fill-rule="evenodd" class="s8" d="m266.5 666h147.6"/>
		<path id="Access Dashboard" class="s4" aria-label="Access Dashboard"  d="m284.7 657.5l-1.7-4.7-1.8 4.7zm-6.1 3.5l3.7-9.5h1.4l3.6 9.5h-1.3l-0.9-2.4h-4.2l-0.9 2.4zm14.9-6.8v1.1q-0.5-0.3-1-0.5-0.5-0.1-1-0.1-1.1 0-1.8 0.7-0.6 0.8-0.6 2.1 0 1.3 0.6 2 0.7 0.7 1.8 0.7 0.5 0 1-0.1 0.5-0.2 1-0.5v1.1q-0.5 0.3-1 0.4-0.5 0.1-1.1 0.1-1.6 0-2.6-1-0.9-1-0.9-2.7 0-1.8 0.9-2.8 1-1 2.6-1 0.6 0 1.1 0.1 0.5 0.1 1 0.4zm7.1 0v1.1q-0.4-0.3-1-0.5-0.4-0.1-1-0.1-1.1 0-1.7 0.7-0.6 0.8-0.6 2.1 0 1.3 0.6 2 0.6 0.7 1.7 0.7 0.6 0 1-0.1 0.6-0.2 1-0.5v1.1q-0.4 0.3-1 0.4-0.5 0.1-1.1 0.1-1.6 0-2.5-1-1-1-1-2.7 0-1.8 1-2.8 0.9-1 2.6-1 0.5 0 1 0.1 0.6 0.1 1 0.4zm8.2 3v0.5h-5.4q0.1 1.2 0.7 1.9 0.7 0.6 1.8 0.6 0.7 0 1.3-0.2 0.7-0.1 1.3-0.5v1.1q-0.6 0.3-1.3 0.4-0.7 0.2-1.3 0.2-1.7 0-2.7-1-1-1-1-2.7 0-1.7 0.9-2.8 1-1 2.6-1 1.4 0 2.2 0.9 0.9 1 0.9 2.6zm-5.4-0.4h4.2q0-0.9-0.5-1.5-0.6-0.6-1.4-0.6-1 0-1.6 0.6-0.6 0.5-0.7 1.5zm11.8-2.7v1.1q-0.5-0.2-1-0.4-0.6-0.1-1.1-0.1-0.9 0-1.3 0.3-0.5 0.2-0.5 0.8 0 0.4 0.3 0.6 0.4 0.2 1.3 0.4l0.4 0.1q1.2 0.3 1.8 0.8 0.5 0.5 0.5 1.3 0 1-0.8 1.6-0.8 0.6-2.2 0.6-0.5 0-1.1-0.1-0.7-0.1-1.3-0.4v-1.2q0.6 0.4 1.2 0.5 0.7 0.2 1.3 0.2 0.8 0 1.2-0.3 0.5-0.3 0.5-0.8 0-0.4-0.3-0.7-0.4-0.3-1.4-0.5l-0.4-0.1q-1.1-0.2-1.6-0.7-0.5-0.5-0.5-1.3 0-1 0.7-1.5 0.7-0.6 2-0.6 0.7 0 1.3 0.1 0.5 0.1 1 0.3zm6.8 0v1.1q-0.5-0.2-1-0.4-0.6-0.1-1.2-0.1-0.8 0-1.3 0.3-0.4 0.2-0.4 0.8 0 0.4 0.3 0.6 0.3 0.2 1.3 0.4l0.4 0.1q1.2 0.3 1.7 0.8 0.6 0.5 0.6 1.3 0 1-0.8 1.6-0.8 0.6-2.2 0.6-0.5 0-1.2-0.1-0.6-0.1-1.3-0.4v-1.2q0.7 0.4 1.3 0.5 0.6 0.2 1.2 0.2 0.9 0 1.3-0.3 0.5-0.3 0.5-0.8 0-0.4-0.4-0.7-0.3-0.3-1.4-0.5l-0.4-0.1q-1.1-0.2-1.5-0.7-0.5-0.5-0.5-1.3 0-1 0.7-1.5 0.7-0.6 2-0.6 0.7 0 1.2 0.1 0.6 0.1 1.1 0.3zm9.2-1.5h-1.5v7.3h1.5q2 0 2.9-0.8 0.9-0.9 0.9-2.8 0-2-0.9-2.8-0.9-0.9-2.9-0.9zm-2.8 8.4v-9.5h2.6q2.8 0 4.1 1.2 1.3 1.1 1.3 3.6 0 2.4-1.3 3.6-1.3 1.1-4.1 1.1zm14.4-3.6h-1.2q-1.4 0-1.9 0.3-0.6 0.4-0.6 1.2 0 0.6 0.4 0.9 0.4 0.4 1.1 0.4 1 0 1.6-0.7 0.6-0.7 0.6-1.8zm1.2-0.5v4.1h-1.2v-1.1q-0.4 0.6-1 0.9-0.6 0.3-1.5 0.3-1.1 0-1.7-0.6-0.6-0.6-0.6-1.6 0-1.2 0.8-1.8 0.8-0.6 2.4-0.6h1.6v-0.1q0-0.8-0.5-1.3-0.6-0.4-1.5-0.4-0.6 0-1.2 0.1-0.6 0.2-1.1 0.5v-1.1q0.6-0.3 1.2-0.4 0.6-0.1 1.2-0.1 1.5 0 2.3 0.8 0.8 0.8 0.8 2.4zm6.9-2.8v1.1q-0.5-0.3-1-0.4-0.6-0.1-1.1-0.1-0.9 0-1.3 0.2-0.5 0.3-0.5 0.8 0 0.4 0.3 0.7 0.3 0.2 1.3 0.4l0.4 0.1q1.2 0.3 1.8 0.7 0.5 0.5 0.5 1.4 0 1-0.8 1.6-0.8 0.5-2.2 0.5-0.5 0-1.2-0.1-0.6-0.1-1.3-0.3v-1.2q0.7 0.3 1.3 0.5 0.6 0.2 1.3 0.2 0.8 0 1.2-0.3 0.5-0.3 0.5-0.8 0-0.5-0.3-0.7-0.4-0.3-1.4-0.5l-0.5-0.1q-1-0.3-1.5-0.7-0.5-0.5-0.5-1.3 0-1 0.7-1.6 0.7-0.5 2-0.5 0.7 0 1.2 0.1 0.6 0.1 1.1 0.3zm8.1 2.6v4.3h-1.1v-4.3q0-1-0.4-1.5-0.4-0.5-1.2-0.5-0.9 0-1.5 0.6-0.5 0.6-0.5 1.6v4.1h-1.2v-9.9h1.2v3.9q0.4-0.7 1-1 0.5-0.3 1.3-0.3 1.2 0 1.8 0.7 0.6 0.8 0.6 2.3zm7.5 0.7q0-1.3-0.6-2-0.5-0.7-1.4-0.7-0.9 0-1.5 0.7-0.5 0.7-0.5 2 0 1.3 0.5 2 0.6 0.8 1.5 0.8 0.9 0 1.4-0.8 0.6-0.7 0.6-2zm-4-6.3v3.8q0.4-0.6 0.9-0.9 0.6-0.3 1.4-0.3 1.3 0 2.1 1 0.8 1 0.8 2.7 0 1.7-0.8 2.7-0.8 1-2.1 1-0.8 0-1.4-0.3-0.5-0.3-0.9-0.9v1.1h-1.2v-9.9zm9.9 3.6q-0.9 0-1.5 0.7-0.5 0.7-0.5 2 0 1.3 0.5 2 0.6 0.8 1.5 0.8 0.9 0 1.5-0.8 0.5-0.7 0.5-2 0-1.3-0.5-2-0.6-0.7-1.5-0.7zm0-1q1.5 0 2.4 1 0.9 1 0.9 2.7 0 1.8-0.9 2.8-0.9 0.9-2.4 0.9-1.5 0-2.4-0.9-0.9-1-0.9-2.8 0-1.7 0.9-2.7 0.9-1 2.4-1zm9.6 3.7h-1.2q-1.4 0-1.9 0.3-0.6 0.3-0.6 1.1 0 0.6 0.4 1 0.5 0.4 1.2 0.4 0.9 0 1.5-0.7 0.6-0.7 0.6-1.9zm1.2-0.4v4h-1.2v-1.1q-0.4 0.7-1 1-0.6 0.3-1.5 0.3-1 0-1.7-0.6-0.6-0.6-0.6-1.6 0-1.2 0.8-1.9 0.8-0.6 2.4-0.6h1.6v-0.1q0-0.8-0.5-1.2-0.6-0.5-1.5-0.5-0.6 0-1.2 0.2-0.6 0.1-1.1 0.4v-1.1q0.6-0.2 1.2-0.3 0.6-0.2 1.2-0.2 1.5 0 2.3 0.8 0.8 0.8 0.8 2.5zm6.5-3.2v1.2q-0.2-0.1-0.4-0.2-0.3 0-0.5 0-1 0-1.6 0.6-0.5 0.7-0.5 1.9v3.7h-1.2v-7.1h1.2v1.1q0.4-0.6 1-0.9 0.6-0.4 1.4-0.4 0.1 0 0.3 0.1 0.1 0 0.3 0zm5.7 1.2v-3.9h1.1v9.9h-1.1v-1q-0.4 0.6-1 0.9-0.5 0.3-1.3 0.3-1.3 0-2.1-1-0.8-1.1-0.8-2.7 0-1.7 0.8-2.7 0.8-1.1 2.1-1.1 0.8 0 1.3 0.4 0.6 0.3 1 0.9zm-4 2.5q0 1.3 0.5 2 0.5 0.7 1.5 0.7 0.9 0 1.4-0.7 0.6-0.7 0.6-2 0-1.3-0.6-2-0.5-0.8-1.4-0.8-1 0-1.5 0.8-0.5 0.7-0.5 2z"/>
	</g>
</svg>